<mxfile host="65bd71144e">
    <diagram id="VKiogDk6atdgH_yKPOdn" name="Page-1">
        <mxGraphModel dx="398" dy="569" grid="1" gridSize="10" guides="1" tooltips="1" connect="1" arrows="1" fold="1" page="1" pageScale="1" pageWidth="850" pageHeight="1100" math="0" shadow="0">
            <root>
                <mxCell id="0"/>
                <mxCell id="1" parent="0"/>
                <mxCell id="5" value="" style="ellipse;whiteSpace=wrap;html=1;" parent="1" vertex="1">
                    <mxGeometry x="120" y="400" width="80" height="80" as="geometry"/>
                </mxCell>
                <mxCell id="2" value="" style="shape=image;verticalLabelPosition=bottom;labelBackgroundColor=default;verticalAlign=top;aspect=fixed;imageAspect=0;image=data:image/png,iVBORw0KGgoAAAANSUhEUgAAAggAAADqCAYAAADH773DAAAAAXNSR0IArs4c6QAAIABJREFUeF7sfQecVNX1//dN2TKzvS/s0hQQNNgQFVFBBcGGYk0siZrExF5iC4qJBWPvRo1dY+8VC/aGCIggUqW3XbbOzO7098859903b2anvJmdWX7xn/cJAXffu/Xcc773VGVtu1+tK7FDgXgsKqBq/0H/lj/Xft3jLzXRLww/p/boPfrT2hVCucMKqyLaVmP6kO+lapa/NbxE/63EDMYTVOFXFZTkib6M78hXaWxyjqnmQr+PXQ/jOPwq0NLhQm1pMSzUrjY3npP2Yby+Eq5xzIBkG9yeCgRUoKu7C2VOR4/lSrVvqdY39vfUZ5c/CKvFgjyrBYph3dJtK977xqlKGujo7EJxkQM2i/jCuP7J5hdLF7H9STqRbYQVIAyg0ys2rCRfgdZl1KfGvZb0lOxcJKIn+fM2r4oiO5BHhyHHD/XZ4gmh0mGFxaKdR8PZS2cEcv2M9Bg7fFrPzZ0B9C+x679KdM6MPyeek+qR/MT4Xoj6a2pFXXUFbPQLbbNi5yXPu+zGzLz1IWn/4L8UoKnDg8pSJ6zaQHS60vhdqnkk+72kNdl3EICr24eywnzm0SkZcy86p749/gCCihUOm0WcPxP7kk6X+tmTcsHjRVFBPgqsis7HJX2l027Uu3KdYv4m2qT1dHeHUeawiPWM4S8Z9xnnQ+qvyx+G3arwWTfKWuI9vXniyT1at82uIGqKbCyHjE/s+TLKpnjjUH7c2KEWKn6EIQeui07EZ5PmpxM5yNS6BSRVvCEFTpuCUJh+RnSuQolDCSGSgHwQaXl7UqeiKLDwd4KVi9ejV4MIPKyqsCHA0lpVQ7Ao1KMFqt5nz/bjnYXYfTQutJinBWFY4fH7UJqfD0UJRwEWGq/xUeX8NPAQKyB1kjX8glsgLsRcTkFQURBWAZtKq0DzSOeR76cSdbJNC0I0B1XRGCJ9b6ZPM+/IvTOsEa8X9WVBSCX2HyZK0SjBLDxIvB6idRobUyC361fyiTJgVwNMc3wiaLlV7d+G5lIerCjASuOPgNQgraACBJU8WMI+WJjGc/0oPL881auh8sga0tlUVHNjMK58FM32EIoW+CyFKAh5NVmt8QBtH8W57gnqJc+gvYlz6hNKRlWxwNPtRbHDAagh/TJAOyd6Ev9PbRLHiL1MGFdf0Ibgh6pi1S83qoH6LNY8tPu9cNosfPYEoybqEZQq/1/0R4sTD3LG7DkvLvEN/gKqEoRiIfhhgWqxoTvgg8Nqg0qHXq6OQqKO2qf3zO1hMkpjjqrY4CPeAiCP6IJ5Veq26dswv6dJZCNf10B4bN8KoVXFiu5gEHn2PNjDId4/uVe9OxW805Gzp9EFyYSglWCkHTb4td/T7pqT1ubeiqYov2JHHu9tUFyKeW0kcgkzS+9J7+mjMknX3UoBCuDnixy1bJQ36aypsqbNr9YbUL782KzYMNWZUYPQHUZlITEkgziPs+J8BCJYpefWyRusts6GI6MxHhXdQcAHoMyuiBu8ZPQ0HiEb9EHIISRjHPE3UawAfU83+pZOF2pKio1NxyV2yWzirV8sWRiXh4CGXBc6Rp6ubpQ6CpMyvLh7pE/UHLnTmDwB0iAoKLCKO5M58jX3VrwrUZu7C2VFDm3v5WEyRXGmXhKwQPw//enwMXREcT4xfSFECIEbwYCBJHWtUBQrSKF1k2yBGtU1CDajsDa9sCnnGHs7afYEUemwMcCLCOII/Rpp34i35ZyFEIzu1rgexkNKNLqp048GUt8ZxHosNej/bSDDVBQTj2LpOK9vbkX/qgpEdBY9aVTXGCY7ZMYJG2+Whm9obbd2eFBLGgTDz3vMT9MkptyseFhB+xnNjc66q8uPMkce02ZSHhHTVqL1NIp8I7+nf3f6A4DFiiJNW2hsMpbXmoA+4nPjOmmbKNtqc3tRWJDHgMsog9Jdt0hHPanESKu0fx1dKsociflfPHo3PR6Dmo36dfvDyLcqsGtnPeFZMseOo4ZhnJf8fIsrgLriiGXAuP7G/TLytnhzU9a2+tSGsjxxto2DM2FeMLtYkgiIIMnEUOWwRi7CCRoxEnWsSjiuUI1ZWEVV4SGAoCooJxMDMXpNxmhYISlejGJcsWDGyEAMAw2oKpraO1BfVqb1p0II9MhLPTQJ2mTkG/EOW7wDTj8jQEIAocKZAUCIlWpRHEADVDFjc7OJQUGhTSpVzVJA6veMB0aq/FtdHpQVOdkcpemJsqZblTQlhSitZzsBBFVFiQQIGk+LuQjF8roek4uQYs+dEz8RoKTVq6I4xsSQDKAmW8VkfEWCgSZPENXxAEI8AjOA+ihSkSBB+8a4NsZm6N8bYwCCDo5i6Co1dcgVi30zMuuQAqzd2oTG2poogBC37R7zFT+I+rGm8dPnx1q6yMCJbja3u1BfVhzXHBV3zcxMNOZDyTuDKgEEH8ocpOWKHAMjK5Kf9gBxCYgjdhm4XY1Hdvr8AiDYBa+OAn8x84gSdvpNK7Ke/KN4NGb4MZ31goLCKIAgjkqcD1PZHhIcIqkhkDqONu2yGm9bjHNKMPSE514lbbV++RAmE5c/hAIy12gmhqgLsqGlVFOLO9Y4A9zoDqC22C4uOtpHmfAWZW2rX20oiyAN4w0nAzDTY/xGOyVtTIcngDKn6M8MQjPedNKbYDRAMNJoj35J3ckDjZ6x7jdghkIUIBBWsbWtHf2rykVLmppCqKip+WgWKZoVaskoQJTsABqElj9MAKEL5UUO3Y6WLg8SBzBmgvpaGBinosDlD7APQqHVKnwQzKxL2gMSW8FgUgMIBLpz1Rdvk7btbT4yd2kAQZICmRj0ORiUkClPssEBxUhXbOoSAKzFp6LEBr5ZRC+lWWVnz8WNv06i/a3dIdSQD4KkIU3drlvztFHETs04NqH8jv/Eatg2tPvRWJrHc401yUlLWQJsEt2BicsK0cvqrc0YUFctfBAMT9Zoh2lBgH4GCG2dqCsviQIIWetLG79cU/ZBcPtQXpQPC7MrI1X2ziUhYhWXkoQEmp/NKwwQ+JD03Kke30UteiIiifQhiZ7Wsq3TgwKHBAg0QTI9xDNrCDNn0kcSV5yXaBaskWENQhDVhbHUkgHDiveJYQzUpzsQQqGVAIJhYzPpKsncjM1tdPtRV5wnfOFSW4cSjkRZ2+ZXG0vtujVEvpkNQmfBKHW0tDEK8MLLryPg8+CkE0+Ene1ruXpUeAJkYhAahITz0lfPBOElGyoDBGgAoYylSjbWsEeXirTFK8JJsUs4Kfaur9jDb5CO+qVCgTsgAAKZGGKwTtY3kWiltdODsmLhBJYNsJpqkAQQaONK84UYjNunmYVOwcCYSRFA8KooJYBACChHYMs45y1dEYDAZms5xyR9x04llQlO9kdNSoCQaO+MgMLMZSHZ/hHDX7O1CYNqajQfGcOkBDqPfG5mrfXX5cvRexS2EEBwoV+pMCeKR3s3xt/I+KtUNBhFdJrWk2Qz9dfp8qKiqCChfUEfaaL5Jdw8wweaf1OnzwdYbCiWACEugRq/o5mZNjZELUNcgBDh2LGqneRLKPl5nAuf/JCdFHMNEGJG6fEHkW+zwmbVbNtmfFKYbONc4JKugJBjWQUIDaX2iMd9lm5rc+bMwfEnHI9px0zDrbfeCpvNhta2VvRvGACfrwtXTb8af/vbNbAomRFVyoMG0iComolBHOEe5yMKWmUJILR3oH9lqQAIBp4hvI5SjzoRFzOwKWZ20i7p9mh2+rTaTmcc2q0J2wMguFFWXNTjRpje6M2/bQQIuaJKJglNQ9LiDaPUpvQJQGANgg4QiDilB0a6dGluPYnpmwEIsjUzuCs1QNiGAbVVTC96e6SxUbS7rjwjZs5Kj8MrkbJwEiaBvYkAQpnmb2TEEQl5qJmOo8EMgQMGUooACOXxAIKEJwmQWNprS30ZAYLZYZsjjR5vUfOtLjcKHA7NxKBdec0KUZ2IDI7XSUA69UcAobMriMpcaRAMs6T+un1Bjv6ysYOMSVmT4upPF3Cfz88m7MKC6Eg2BghFeRyxlLwZ/ZoQd/fYSXGABhCEFDUwDLPXtjgX0N+f+Xs88tgj7Jm6+ufV6Ne/H5YtW44RI3bibiwWCxYvXoyddtopTcFplgo1gBC2oMKgQZAMWtjVYtx0UqmuknWtmRiaOjrQr0LTIPD7mvmCnSC0BuKiwpjFjjcWea2lJmWoTp8ChIiTYt9oEARA6HsNAvv1J95tVvNFM3KzVLndAAI51XmkBkEABF2FkAMBIAHCgNKYw5fOQqXxLmkQVm9pwoA64YMQAQjaNHs5R75YazHZZCJigNDaiX6aiUH2l9Asmc5N0CAYpZaF/u5wdaOiqJAnFM8rPZpi49FvHNdodvaOedcAEMjEwJTOkRPRT6w/VRrbFfUqm9tcLhQWOuCwkUnDEGufTqNm1O/sHyAcvTu6gyjPEkDglTUukUXRtaxerx8eTxfC/gBUSxiBYJAFeyDgRygY4og++thKPh9FRSguLobD6YDdbmcNPK0zvbd58xb8+ONizPtuHj759BMsXLgQgUCAZeyjjz2KKVOm6Hu5we1HvQQI6SohDGueHCCkszlRiEnFiSeeiJdeegk2qw2rfl6FxsZGeDweVFdXw+ul0CcFd919F84555yeBJphv9GfSQ2CBRXMMQTwiTrAuQYIDEIE4QirshYup6vBkgmZhIpZoUFQgJAKuLNiYki+4OJIbT8NQl8CBGJOIg9CsuuYhrozBJT0tTAxaBoE8kHgsNjc6S1oqIkAgiTTrBw7rZEogGBCeyYEcIIRRAlXbV9i1l6YGJoxoLYa9l6CgcTrINSCFNRI3bOJgZwUU/WX6UVL3tU4JBZwubpRXlwYc6+R3N/krdTMJhsBQp6V+VfKOZppN8E7NIMWtwvOwkLk22zREW4m2mXake8Z/UTCYfh9frg9brhdbrS2tsLtcTHPdLm60NTaCdXrRltbK1rb2uD3+RAOkwlXhAWGQ2GEwiEOK6X/DgaDLJB9fh+36/V7EfAH+Gf0x+/3w+fzib+9PnR7u1jWkfyXIdO0eTq5aGOVQ+d3tIlI8EV/kwyl/gPBgA4M6V0OKdUay8vLR1PTVpQUl3BzBBD6FeWBFfS9MHcnBghm0Bj3HYOcNGZw9DHH4K233mRNwcqVKzFw4EBe/IEDB2Hjxg08iRkzZuCaa67JGUBwc6IkARDiMyDeOfH0ljlLH4T2dvSvNPgg0AZJs1MCp1wTZ6AH4mY7GgEETy+dFE10vv0AggtlxcU5NTEY6aKVnBTZByEBQNAFVe+YcQ+AYKNeI6q+tFXCJvaQBHaTJ4RqSlLGHCNiYsgdQPChsSyfR5fxnHrcvJMDhIE1PZ0UTSyPyVdiAEK78EHIqfDU/LgoM4fLHQ8gmFOrm5ygeI3AiM8HVbGhKL8XACEGGDLdh0N8G9aFKgvXILZ1tMPKpiAV/m6vELQBP/yUsCkYEcBSELOA9vng9XbzxdPtdqOzs5P/dHR0YOuWrfh59c8MDBjUkeDXHC0FthTXDotKAlvLyaFp1RKFoMf7udS+kJyjPnj5dB+UCHijAGoBEzK/zveQtYZNzcvLQ1NTUxRA6F+Ux24hvXJS7GFi0B1tDO7daVEXODnRySefjOeffx4Wi4I538zBHnvuweqSw6YchlmzZnGLN9xwA6688sqcmRjcIRV+MjEYA6ONc9Fv8tm5uZHTYFN7J/pVlkRQm4bgoqwLaa6n8XVd5aiFOZKTYnmvnRSTD0h6bsswx75zUnShlABClvxiYmcp11JmD5VRDAkBQqb7ZpSOWgQDxbW3esMosSscxcAYVWs/FwLnvxcgGCxzcv3j3NilBmFgbTUnDsvKE4tqpOJIMzFsprNeWsKhsblyo2WrhkVk/nNJc2IvvNITrkuMlqPL50dYscKZp4U5JvrQ8B3duF1ucSNvbmrG5i2bsXHjRqxfvwGrV69m9XhrSytCoRALU/qbbuhkvWA1O/0d8kMNhcWtnTQnQZp55DGaNaTA56gS3oOeCc3iDVsIej2cQCSnSqAxNN7q+Yxq1jnDiKAmSDImUrBprVsIlhMgURHmRFD6zTQlqRpD5SkUdOSIERg+fDi+mzcPK1Ys5++PPfY4vPjiC/phIR8EMjEQ7eQGIDAUyhAkKMCFF1yIu+65ixd++vTpOP+887F27Vocd/xxWLduHU/q2muvxVVXXZVTgODTAEJcLZ9JLUnKHdReIICwtb0T/Y0AwYR61Wz7On/UnNw4ikHTIGR8QzPReQ+AwHbC3Di3yeGIKAY3SslJMUcAwTh1YkakQaADnHWAEGWcFOrpWIBgJMVc7GU8gCCVFrnWIORiPrFkmxOAELNv3KcWWcBRDDpA6HmIkppMTJy52FfIxEDawtJsXQYkXyJaDIX4Fk68hG/iLjeamreh0+2Cp7Mdzc3bsHXrFni7vaw+J7U5pXj3uD2svqdbe0trC1q2tbBmQGStYEcJ3bbLgl1XqWv2eW2SKmegpPDR6HwXsX4WvYFh5CRfUlKCwsJCkDreRn/sds68WVFRzn8cDgcKCgpgs9lhIx6nKMIPQFH45wX5BbDZbfwz+ndefh4735MPgNVmhdVqZT8Ceief0kbnFaDQQf3lIURpqwsKUFiQj7w8O+w2G5sO6DtqX4IA8lXwuN3o7u5mX4VgIIBgKIhwWEVdXS1qa2u5j/aOdvTr14/3gp4333wThx92uE42WQMIMswxmuFrEDxTgABgyU9LMHr0aG0CCqxWSm8sVEzy2X33PTB37rc5imRQQRqEpAAhg4Oa7JP/7wCCjliyvJCajZ7CHEuLncIrPftdRLVoBAjkg6BBoJz0aoxikBqEXAvRaIBgcEaWvorZunVrKyZ8EISJIddzoy51gJBTE4OYHC0V9belvRP1ZSVRmRT1DHCScrJ0CaFbdofbzdkGKTycVNokQNlWHg6LGzndxkNh3R7u9XlZqLs9HnR2dqCz04X29jZs2kQ3+w1Ys2YNVqxYwX+HQlr6IOLRLIllgjeZVih7R4EujTR+XRBbbPzfJCxtVosQviRE7XZYLCR4LUL4Wun3Nham9G5+fj7/KXIWoaCwQAhx7U9JSSl23HEH7LDDjuhXX4+qqioW6KzkJ80E5Sbo6kZ5YaE+sVhAwiH6Zh7jJdBwjnR4ROCOEiXZLbBp5gfdqVUze6Tr8LlgwQLsNWYv3ncCPRs2bER5WZk+WqMPQq80CPEBgplVSf5OWA3jzjvuxKWXXaqdKlpF4Vhht9kRDPp5w3/++Wc0NDTkwA8hAhA4k6KJZCu9nXVcgNDbRuN8LwVMX2sQXIZMilGAMhdaEnJccnlQWuTkYjG5FjLRAMGiKyBzsH1RYY7/FwBCeuG35lZkewGEATVViEkwa27Aid6KE55AUQwEEEiD0L+MTAwGJ4sMHVeTDpISCbV34JCJk9Dc3AybRV64hOMcgxYNKNC/g4Eg3zrJ1k92fHKqo39HakkIwRdfKAk+LS3lssYLgxEdHonRGtXy8rcUtk5Cu7KyEqWlpWwTLy0rxdChw7DT8OFoHNCIuto6VFRW8M2agYHVBrfXi/z8POTbxe3abhWggWo1kJlaggp525Z/p725mjWZKjC4u3yoKBQ+MnHPgEl8wJ+HRQKtRI/HH4LdbkGefCeNtiMIJtL6F19+gQMPPBAkZwcNGoSflvyE/DyqASQa7nuAkIEQIOJ8++238f6s97B06TKUV1Zg7P4HoKTIiT//6U9su6EcCRdffHEOzAz/RwBCButmhuiJAVP1yL40MXT6g8ycKNVyDxNDlufJns2uLpRq1Rx/UQDBEMVAAIEq2OVCSBvpSGgQIqmW9XDmLO+b7FPPg0Bp3LOsnYh3PoQGoQWNNZWwZ8skpYMDIQ6FYxEJYw0gtHWiP4U5SoCQC3BAAj8UxE4jR2LVylWaYE5nQY2SSPeE0iUi3eKLi4vgdDpZsNMNvKKymgV8SWkJqiorUFJcDKfDybd0eocEO6vW8/JYvV5WXoaqyioBCEpKWFVPwj2KxoybZrQVaNqKDo+HNQaF+XlazZw44ZdmGGOKd+QWBcgRsyuAykJ73GJs3Iwx5WiqdsmZNAFAoD67fCHYbBbkm9VKpOjvgw8/wOTJkxkgjBwxEvPnz+e9yCFAyDD2NNWmSfokTZUVaHd3Y8HcbzHxkIkIh4PstPjmW2/mRIPgCanwhiwoz9+OGoQcMmCuxdCHPghJAYKBh6YiCTO/lwCBijVZt5sGoTdWz8SzZG9u8nnwhlGsOSnmVIhqPisEEKoctqhyyOkn8DKze2J+qRIlmWvJ3FuiFkMLGrIJEHp0LehBmhg4zLFc1GLI5f5t2rwJ/RsaeDSkTi7Iz2dTAkfFUVVbi4WFK2lk6W8S3iTI7Xl2lBSVoKKiQoutd6K6qgojdx6JHXfcEQMaB6C8opw1uiLCTjBrcqbzBf0IwsKXAaofEPeJKXhnbqfiv9Xu7uLxOvKERzn3mANnTAkQOFFSdwCVBQQQtP7iTTNBzol4s4gHEKQjNAEEexYBwuuvv45jph3DWqHRe47GV19+xftuBAh6HoRerCOnWqZESfoVJkcoWCKyNlc3flgwDwcfdDDCoQCjoLfeeisHfggiD4I3bBHFmvrAjt1XPgh8iEmDYKjFkEsGJZ0UUwKELIIETp7SKUI4E/Gn3jCk2G9jTQwWRauHkIPzYAQIpEHgGvHpXArTnLhkUr9kgECAZO2WFvSvrWSn1owjQQw+A7rHegzI130QNIDAl80c7t+PP/6IXUbtwgJ86tSpuP/++xkgsJqd1O8WEStP6n1h27exsGUnOK3yqk4yxrlIgRgzdlrLbp8fQYsVTnK+o7OQg3Mgx0Tdt3V5WCPhIL+DHK6l5J1kmOkkDYJDgKNcgBHZF03H4wshL4sA4ZVXX8Fxxx3HAGHMXmPw5Rdf8l4bAQLVYiDe2SsfBApzHGgACKQ+S2keSUBYKfkW3ZpcXXjmqadw/nnnct3vc84+B/fcc0/KT9N/4X8AIf01i/9FWgAhSyBBAAQPyrVqjtmaS6J2evggZDkE1tgv23e1REl9ARD4MsaJkoKo0ao59pmJoVSrFJvjDWSAsHUb+tdUISp3o5aorIeba4r9ZZu6gRHqiW60edANdEubG/XlRfxalFCL9Vvo5dzfe+89TDlsCrdywgkn4Llnn+tli8k/p7WkMMeQxcqZDW2JAEKCG3e6g+NaDJ4uji5w2q05Bwg0Poq16PQKE0MuAYKsFstOilYL8rJkYjBqEPbcczS+jqNByA5AaPepA7lmu8GFJQcIjpxcSB3+zAsv4Nyzz+bwjbw8GxbMX4ARI0akS1Mm3o+kWqZcLdJJ0QiEs31rExoEQy0G3Y3VxHDTfOX/rAYhzXkkE9gSIPCZypZdOU6HkiZkmCOVe7Zmq4hXvP40gLDNq6LELqo5ZpsWY7vtc4BAjlIdoppjygtHFmiGTAzrtjahoaY6tZOi8UqVIEGapAk9IzWjuogNn50U29zoV16UU3BAfPPZ557FKaecwrfDS/9yKf7xj39kYcUSNyEBQthiRSGVKOazl7tdZIDg7kJeQT6KYzUeOZopaRA6vFothhzIOzlsCRCo3DNVc7Szw2XvHzLLkzaJpPYeu++Bb77+poeJIUsAwasOLCFPzuwBBHKcoJwHnO+6o50zKT7y8GNYuXw51m7cwJ63tEikRbjjjjuSen9mvpTbCyC0oX9leSRRUo58EP6/AAguD8qdTi44Qk+uhKhUwVOiJMqDEAUQepth8/8AQJDzIw1CdZQPgqEmQ+YHLe6XZPbsa4Cwfus2NFRXsUBL9ahKEAHFDW+4DS5fK7zhToQo4Y0agt1aiKKCMtiUQtiQD6vigB0O2NR8CtDjs02Mf1ObqMWQ6wiphx95GGeddRY703366WfYf9y4VNPr1e8FQPAhbLHBYScNQu5U8DRQks+tpEHoM4CggiRQe3cQVVmqxZBowSVA6PSH4MgiQKBkg4cfcTg7Ke46ald8O+dbNtHIh6IYsgcQirUrtsxF1UtERYUjziYtQTAoMmKJHFI8dmIcNJFTfnMy7rjjNvZ6zdXjCYY5D0KZyDiZ80doEGJSLeegV8nw+9RJEQpcQVHu2UEov5c0kmpZWAXv8qCMwhxTvdzL38v1bNcAQrGuQehdSuVkw6LlYw1CHraPDwIPrm8AAoO7Xu5Rqs9J5b+xqQX9qskHIdpmTnUuAvCg3b8Za1sWY0P7AjR1r8Zm1zK0eTYgoHYjpHgBJQSLShE6Nv5jDefBohaiqLACjVVDMahkDHbpPwk1+TtCUQvR3OFGHZd7zo0zq5zztdddi7///e/cS9PWrRwxkMtHAgTVahNOin0AEFo8XcgvKEAxeST3wUMaoLauvgUITqrmmCUNwuzZszHp0EkMGkkDP3/efHZMNQKE+mKhveuNT4eytt2rDsgmQPiPxzTVWJg5c6aem5oGTQkvnM5iDNphMGZefwMOmzI550zDHQrDT1EMmpNirukunTwIugozTUErhRnNRQAEYafP1e1aiJFIsSaLtRcAITZpTLxBawsjfBC0ao45NC9ImqD+2r2iFgNpEMhJUa/s1VvCMc6T91uIFAkQONVymnSQzpDiOinKBjhsz1yK2rT6BLBeMzEID3mZp5bWNbtCgOZH6dc2NG1Dv+oqdqqjBQ2Gu9DsXYmV7Z/j859exBbPYvhtbsASBBgIhBGmSnns1Cj2noSjohIkFRsSUQBamNE6whUYPXgqxgw6A/nBQehfImo/5FIFf/oZp+PxJx5np0OqM+AojC7tm86+mHmX1sBDtRhIgyABQo7pc5u7GwWsQcgubcSbr3QSbtfCHM2sSabvyLNHJgapQRChsiLJlV6UKU1p+Nlnn2HCQRO4jWHDhmHh9wt7AAQq1kTN9hogNJaQ6kwwRJpQb4VNt7cbjzzyCJ599jnOZrX77rtjn33Goq6+FiVl5agoFbUKcv1IgBBb7jlX/caKcVoPAAAgAElEQVT1Qci0sxgBFTEBCnHdVwDBmFzFHQhwVrNCi8xjnunkknwnJAnPUQIESpTET7ZpJqY9MjFQJ6UEEHIwNR2MaFNp8aootkPkQcjxQ/QjTQyxuycBYDaHQCu5vtOHxlKtWJNxA7Nsz5YAYf2WJtTXViGgbMNPTe/hwyX/xGbvEvhVD8Ja1RqrStov8u63I6C6GVgooCRCkWuyqme7oxS4WsZCLSye6jxQW3mWUjQ69sEp+1yNOvvusJDnQ7bpU9uQA8cfiM8//5xDGCkVMv2d9bNg2HxaT5ffByg2OG3kj5N7ANvXAIH2vaPLj0pH7suRE+AiJ0XyQaCk0lQz4YEHHuC9JG06RSNQ7SJKo2x2X+d+Nxf77LsPa+hH7ToKc+fMFXShPTJRUu8BQptfbSzVco9pl6asEDrRVEx2KSY8Txfnv849SwS2D0CI8UHIRP0Y5/bKwE0rCynuOn2vQXAFApwKNdsAIUpAabc/qn7WSiaGYmfO48zlodKLNRUkLPacFRkqoxhauwVA0MMcc3wotnSJKAYGPxoQ40uBySI36UyefRAIIJB/k17FVpOguQIIzRvQFP4On626C6tavkbAHuC52dQCFFlrsEPVHqguHojV7d9hk3s5XL52BgcKleBlDYIVeWEnqp2D0Vi+KyoLB8OiKmjpXoWfmr9Gm38DVKuPy3LTTCjfZmHYgbGNp2DCDmehxjECCgGQLD40/lNPPRXPPPMMh7G1t7fDWeTMWVge4/BYgJBjbk399RVAWLpsKV559XUcf9IJqKxrREVBrg2Ycj1DyLdaMOvNNzHt2GMEXNadXsGm9nPPORfTr5qOwoJI+udEpETg4oADD+BU2ddfdz3OP//8KF8+PZNiLy/8nAfBCBCySNs9mqJD9dgTT+Ddt9/BrbfehoEDRPKPXD1GgJBbK6GYAWU2bGqPdVLMoqpaWyjdByHXeRA0/aoUILoPAmkQcuR8KTOkSIBAtRhI/csiO9sCNObGJ8s9l+X3DUBo86oooigGCtPoAwLd3BVErdOmZf4zpD7JAUBgDUKHDwPK8pNPLQu3bjoP3WE33lp2Oz5dfRf8igtUxLcARWh0jsKEnX6LX9VOBlCEe2f9BqtD76PbGoZFFTc60giUKJUYVLQvDtv9T2h07oFClAKa9wu15UML5m54GZ8texJbAj+hW3WL06gosKkKqi1D8dtxd2FI4X6wKpQNMDvESlUKb775Jlz51ythVazYsHED6urr+gwgkFpc1g/IFZ+mdps9fWNi2HfsvvhmzreAxYZ1W7aisTJSvyBX8yMSdwUEQEAwgAsuOB/r163nctXkzL9x0wb4vD7u/sYbb8Tll11uaijUbigY5OJQAnFEPpMAgZNB9gIk9ClACKkqZwRr2rIVxxwzDS+9+HyOIhjEQhFA8IUsqMy9FkkABHIiam1D/ypDFIOprU7/JaIFAiQeKvdc5OiVelPwMqFe53xquoNENNH1CUAwgKAWlxtlRUVa5fYceLrFCKcWclKECgEQspgmLkolR7ZHkYZ2WzeVe9Y0CFHxdIZFSJ804n5BW7rZE0SdBAjkjE8+ilqFvbSDr1L4aNDSrmv3YSClMY19sgEKWDgL+gwonXhuweX4fMsj7ENgVW0YVjoeU3e+AoNK94BddbIg71bcePSTc7Cyczb8ShjFtkoMLB2GXXeYjCHFB6DS0R82FLAmQW+cFkkqPkCJ19zY6F6INxbfjJ/aP4NqpWp6YdYq2JVynLDLX7F/w1mwqgXa4vYSKFiAxx97HGeeeSbfOJ999lmceOKJSVXR8vjq9RHk+psELVEaBLs1uhhVlugxtpltnm6ugJhrH4Syigr246Bn3vc/YI9f7ZyjGUWalSaG2DwItD9UI2P5iuU45phjWBtQVVWNrVu2iOqOiewN8c5PTM6O9W4/+hWTk238EPGEbceshkKJkiiToi4jcrRcRNz33v9PXHLxxSLMUVHw9ddfY8xeo3PUI+AOhuFVLajUTDO9PKopx0nJN7a0tqOhqiwS5pjoK+NgjBuub0SM3U8XMuJDBghZ0CBIcGD0NYh1uBK/E1EMthxHMbDaTbMBE0AoLSriYk0xeWtS7kXaL5BTpI+83wVAyJoPgmYyMY5HwBBgW1cYZKLnm4XmAyTSnkn1jAipy8YjAQJpEHQluEHwmQYIxpi+JAKHtnFtuxcDy0ngxjy9nBN/ri2RX/Hi3eUzMWvlnfBbuuFEOSYPvQgH73gO8lWKMJBXKFrKMHxKN9zBTWykK7RWIh/FsCh5UMJhcdPiocoRC8qXqmDWK3GIowXdigefrHwG3236Fza7FyNooeuBgrxwPo4YdgUm7XAxbCBVcS+5jgK88vIrOO7443hklA/hySeejHJwi6ItnW1IQ6Tx7NBYoscjtyJ2Kz1+HxlnUJRnFWehl3uWjIap6RbSIFBlRt3hyDzVG8eebLWpZDJViqTaFsRjPvr4E4zfP7cho1LbK30QKA+C8Wlta2MN0V133QWfz4ehQ4diyY9LRC2LDB7p9CgBguCbPetEmPXBVta0+9UBdI2hRsLCti3PSG9Imw+WQSu8bOky/OpXo7j2uHxOP/0MPPyvB3OmRXBTqmVVyS1A0OrD01qxk2KbSJRkBFy8prEHLGGyFhUUliVu8gbvPCloyP7J6BIIqoC7uwvlTkdGnqpyj4x0yCzEMFZdr0B2SXJStAgfhJ6sJj41J+IrERYc/R1DEe2XFOZY4jRUc+wNQcYbnhycJmxa/SIPQiZOipFbm358NFgVSYSugXm2XtNPW0iDkKdwoiSjHj4rPkAx86VbzBbKpOgUtRh4LDEAIaUMSMOXgOZHTooNJfmISnRlWPMoxp6y84hsE0KbBHUIS9vewwNfngKfxQM78vHbMf/EnlUnwAZy5KO8BkZKjeyAZNziaKrCEY9DskMc4qj2AHZaO1oOBIp8aG7zoKjMhye+OhNL298GFQCi7/PVQpw19l/YpfQEKIq1d9o9VcXyFSv0ZHJHHXUUXn311Yi+TzsTkt9IaGmcH80xlbgxLj/92+P1YvOmrbj+b9dgwfx5eOqpp7HrbqPi8mq5qpnSrQDLXSy8i7Qohlwc9YDfD2ehk/c7hDBeeeVVHH301GjebLLjRHOV6x6LoykPAidKkg7JYRWLFi/CxIkT0dTczKeVqjG+/sYbmDRpYu9oBsBGTwD9nFpdC0MtG3n9MIs9lNUdAbV/MeXxjmHUOrSMAZ1Gpqp9ohOIoQnJFqlZUnPcf+/9OO+Cc/V8CEy0Fis+/+JzjNlnjP6lFEhm+EWySVK/XcEwAqoFpXHCHPVpaBrEVP3xPGI7NEg5+p5u9C0uF+pKilnIJUWzSX4ZYWOJZ0jvBFiD0I3SosKMbthyrY29cOGZOGOjd7sCQVgUBfm2SB6EVOeJf294KfZ947obf0c16Tu6ulHkKBQK31QdmaV4+V6cfacwR7rbU5ij3l1vkVAM+pIMnDh8px8oVACqTyOBkQRoBv+ldGcW9306j03dIVQ7IgIrE+f0ePvQY2tUgGoJbe4Oo95hEXunZS7u0WeG+0oO0Nv8y3HHR4ejXVkPm2rHvg0XYOrOM+C0UFSW4UniBiRvUgIwCe1VFM1KEKW1IYFV0AK0dnhQUepEd7AVn6++B+8svxEhRUVYVVCqVOLCA99HnWNnXWOTisfE2zgaS8AXRGlJKYJBP/bYY3fM+fYbqBahhTLSk/GoGevzJCVhTWGnv681SI5v/5h5I/w+MqEoXGjopxUrMGDgwCj3CglMeqMooXm0urtRmJ8Phz3CZTMFHIYjHrWkrc0t6FdXJ7RACOOfD/wLZ/7xjKh3dICV4NTJtQwHQti6dStCfj8aBw6ELBgTj6dSUzLVMgEE8hu48vLL8dgjj6Kjs4P30ekswXPPP4dDJk2EVauWm4heUh0Z+o7NiQ4bCy19/zMgQGXJlk61NC8sinpIc1vE7JZy342D5YFoPyAGLwg2zOq7cfuOxfLly/S63mFS6QHYc8898cY7b8OWZ4eqsHgS6DjVKqRgm1RK2h9WEFItKLDQrUAMKFqVqi1dKiGgp2U3aFi4NaENoVsC2ZWDigIqW1rpJJ8AzTOaHdB67gwfyCgpFCHriPVbvhDzvaZZoFtOIEBOKmLvxNsxCM7wadSSKomtUFT0RT4RRqOIvBYUV0saDPb6jtOf8UeSHowd63QhehCCMWazNWnp8nrhdBRACSU6dimIIOWvowfWFRZ54AssBvYaf/tStpzoBVnXguiwO6jAblFBPJGXRQpS0+jA7IkX83QFgeI8LYmQLqlFPDZ3SZoruT+JEFkPuol3UIlWSIADNQViAXV6MUhfKeCYDgzNJJ6V8I8RxzWAWatvwJdb7uJvhxcfhClDH0d5XglsWvAiZZljDsSqTPoutmWRk0He+uioEm2zSlbjXbqnuRYCLjJGKGxm8Pj8cNhJV6GyBuPD1ddhzsZH4LeE+ft9as/ElB1vhDVMiZcEtcvKgdFnJz610GhpTCQoRwwfipbmFhQ6CrFy9WpY8/KIszK/FeRiPPc99yTCSUTiOkluEdansPbM5/XiT2f9EW+//RZrVIg/z5s3j9+/65578OtTTgYdRxkKGs2rtV5imLcUuskOTSBIMojyjwjVFs2Z5x7zkVmKlyvS3e1lO39xsRPLf1yCA8eNFQdNDeO6mTfij38+W+wM8TOLoJBkxQ9pPATNTvnNb/Dhu+/xWk6eMgXnnHsudt9zT9jsRA3slWJg8AprsvMRhl0JYd633+DoI49CIEBGaWDAwMF48MEHMXrMXixDBLdLLABTa4NUdAQoQWD0yvN/meYtGm9e3+ZX66UPgkZmemKFOHybiTbOTidaVGpi5YpV2GmnYYJRANh7rzFYvXo1mrc1M1qaO/c77Lrrrhkx3Xj9imQnQHcgjEBYQVGBWHRpS4td+sRbET0k3vgEL9OPycSwrd2F+jKya2pOYAkEjNk+ky0Kmxi6vChxCjuvmTZTHbB4bUjAwnkQyMRgtUbWM6NdS/0RjbO1swulxQ5TqXNTt9jzDeNaEE/jREmKitK8iA9CqvWSrZpZ+9gRtHSRtgKigEuGoeZmxieZeKsnhEqn0CD0EJUaM469tWUyL8mc13cEoEdIJdig2HGk7E+7yW8NLMKNsw5Bt7UVdrUIF4x7GQXeUaitrSLjAp8Fyad0U4rGF8TVJBqY8jvJgkkMtZuIB9DZ29rpQU2ZE5QbgXgmgYSbPjkAa7sXs4goDlXi0kmfos4+XBfI6dKpBFFXXDEdt958EywWBVu2NKGyqjyyh9pLVkOYeizgkutsXBNJF/J3HpcLQ3YYipaWFthtNvzlL5filFNOxi4778yC8N5778Ofz/lTj/sOzV0XRdoaxoMr8dTbcn7bPF5OlOTU6pKwxcckzcS+xjJQDePNt97FiSecgFA4jKunX4V99x6DKYdP0YhfxbXX34C/Tr8iaj7GdZK8XiY0MiYcGjliZyxftiyq6ymHH45HH30E1dVVunaHMnzSvnQGgnBarexP9e+nnsbpv/tdxLfFYoHFasPIkTtj3/32Y7l4xx13or6+NuqcRstduXLxF2lrpx81JVodFE1LZDzbieRYbGvK+laf2o9yEWs2yZQHNF0K/89RmXHNDFx//fX6l5MnT8Gf/nQWRzLQTZ/AAaFUdswww/EMY4i1tRkZNgEEXxgoKRDtGhe4t+or4zLwkBUBEJrbO1FfXiKQcC/qcCdbZrlEhD/dHi9Kiwpy5mmsbwfVT9cAAqVaNtrYMiCJlJ/Qvm7rFHkQuGSpwWae8uM0XjAyUgo7JIDAmRQ1KZfOeZB0wN1rC2f8Xv+9xsgZIFCqZb669j5BWaJp0xyJFLdpeRDSof2oOaWxB/SdBAja8UhjV+K/Ks96UPXigW9OxKL2t1kzMGHwHzBt+B3YtLUT/alYk+HmKeaqIhgM4aOPPsJ9990HulU6HYV48KGHUFNTHQWtWdlgggfR2Wvq6EBNeSmfPaaXMPDpxsfw9OJzqEdY1RD2rD0JZ4x+ArYw+TWk72wrx7Pox8UYNWoUL8zyFSsxZMhg1nZI5xUzY5Y3CJfLjSLKvmq4UtCUJ08+FB/Ono3i4lK2z4/dd19ccOEFeOihB7mU9GeffYr9xtINPLsP9S2iGApQTJsnFJVxH+lUnZQ/qsBV06fj1ttu127pYVSUV+Lqq2fgkosv0fJ+AJdedhluuHEm13rRyET0azAnPfb443jpxRdx9VVX8XrIdV7182r2Bbnn7nuwYcN6fTjlFeU49ZTTMHPmDSgsLNA1g53+IApsVj7rK5evwF5j9kJnZ6f+He+FuOLzz4YNG46FP/yAPEPyI9G5RpxJspHSGm1y+VFLUQya1kB4jaX/KOvafGr/Ui0cIv3vU35B6GvasdNA5SkFo1Bw2GGH4bXXX8POO++MFctXsGqHEljsOGTHlO3FeyHWQUz0o8ITUDkUkJ3OtJCujDpI8ZEOEMIEEDrQr6JU3NIMqTSz2a9E/iLVshflmgYhm33ItiROpTUmJ0UCcU7NSTEX/en9agChXAIEE0y7t+PhPAiKirK83OZBYB5E8+sSToqcKKm3g0/yvbwtNHeFUUM+Ab1dSxMu0AIgiEyKvZ6bEtKdOMmUt8L9Ce7+chq8YReKlTpcdOA7qHOMwsat29CPyj0bhLzH7cbjjz/OXuI///xzVF2YsfuNxaeffRpjdjS3EaLccydqK0pg0wWaim5LO275eArWdy8gN2KUWOtx+fjPUGMbYk7Fl6D71rZWVFdXM0+hNLv7jd1PmHNZqJhbYYoe+93pv8OLL76Iv13zN1xxxRVR5r3f/u63bBq69tprUV9fh5ZtrRi166/Q1taO/g398POqn2G3RbL1mVup1G/xWXBrYY52jT4T0agmJIOBIAvmhgEDYDNUgKT1eeSRR3HuuedxtBw9+++/P8aNG4fVP6/myphSxv7hD3/gjIa0hl6vFy+99DKqq2swaeIhvC6BcAhVVVVwdXTwz9evX4c8uyFmXtPEvfjSi7j2uuuwZMkSNtNQg4dOmYKH//UQ6uvrtcRTAiDYNR+XH5cswe2334YvvvgCGzZs4P4jZlsFh06ejDffeEOY/lmgGRYkxX4LgOBDbXG+dtHR8sik3ooebzBAaORyz7l5QuEQdthhB6xbty4CEA4/HG+8/jouuvgi3HPPPQya7rjjdlxw/gVZHIQKimLoE4CgnU8S2E10mCrKIvHlaRxgs5M3AoQuTzfKnIW9Z8KpQND/FwAhzJofAgi5fowAIT+RZ2gWB0EgodkTRrVTgOVcPxIgDNBSLWfcnyYQZLWILrUDN8yaiCZ8z4WV9q/7PY7f405On7xlayvq6yo4SoPmuG3bNhxxxJGYO3euriUgoWqxWkE1RaYedSSef+55HlqsbZb9YpLIXVHuuRP1ZSUR7R37ZyiY2/w8/jXvFPZDsqh5mDDgLBy3y+2wylsfA570Mi663C5UVlay0Hvsscdw2qmnpR39tWnzJr6UUR6AmtoarFuzTq8AGHuZcbndGDx4EFpbW7mf776bh9132y3jbUz2oQQIZGKgKAZ2gUposxa/uO2223H55Zfj5ZdfxtSpR+nNE3gaP34Cp8imy8zDDz+M3572W97LceP2x1dff6kDhKOOmorXXn+Vv73v3vtw7nnn8r+XL13O4YbrN6zHwIED9XVubmpGRUWF3pdR20T+YH/+09l4/NFHEAgGOVHXsKHD8NXXX6OivAJuSpRko1wZPS8D5CuzatUqPPfsc/j4k49xwgkncPXOTK8NdPY2enyoL4oAhEzbUta3+dSGXAEEii3f1oJ+/fvpDhlEbIcffjhee+01fPXVVzjwwAP5cF5w4YW4/bbbsyjoBEAgoc0q41xqEAwAobm1A/2qRJgjp5rO4oyMh4yIk8BPl6cLZb1MlGTm1BPRcR4ERSvWZOajXrwjTQykQch9MlRxCSMNAgUgljNAMHcry3SK2wsgVDktOTNHRdGnzKSYDYCgcWJiup+vfRj//ul8qGoQ9YXDcNn4j1GIas6GuG5rKxpqK9gHoaV5G0aP3pNvZyI4QcFBEybgL5deivLKcpSUlGKHwYPj34hNbL0ACO2oLyuLWk86Jx3hTbjuw/3Rqa7l1MtFwQpMn/w1Km2DxBKxM2h6IJQSolVUlMMf8OOaGdfwnx7OvSmIsa29DbvtthvWr1+PsvIyLF2yFDU1NXG/uuZv17BZmITXuLHj2DxjzPWfKd3H+84IEKj2QyrzLMEwEtwbN27kxFEnHH+Ctq5geUK3ctpzyrlz880360mHhg8fjpUrV+pD2GuvvfD119/AYlX4ckqXVVrT92a9h0MOOQSffPIJDj7kYOHECxU/Lv4RI0eMTDh1eu/999/DMUcfAy/VsgDQ0L8Bb7z5BnYcsQsDBMojk4i86DJ9ySWX4L333sPYfcfiX//6V0b5EBgguH3oV6xp73pRjC3nGoSrrroKM2+cqS+qESBQToRBgwZh8+bNrDKjkMd0fRASE2oEIJCJgW3mubo5aY457IPQ2oH+VZSmVYRhm+A1aZ81aYul/voKINAgO7cTQJB57dJeKJMfSI1dqy8MKyVKIs979ljLxe6JQQmAYCj3bHKsmb4mNQj/dQBBF6iA19KBO744GqvcX8EasuDona7BoUOu4DMWggVrNYDQtH4Dhg8fBioaRwC9X79+XDxu0qRD2fQotpUiIjJdTYBNDO09AQINJgg/Pll9H15YerkWMWDBySPvxPgBf444IaRJW16fF6WlpQwQjp12LF566aUetW7MzGbChAlsVnE6nZj77VzstNNOUZ+RkHvnnXcw9eipHLVEN+Zv53yLIUOGmGk+o3fSAggKcO+99+KCCy5gwDJnzrfYVfPNeObZZ3DaaaexQCcNAPm1OR1OHlNXVxdrTehv+ZSXl6OpqYkd5Qlk0JqSfJr94WyMnzAe11wjQJIECC+9+DKOnTYt5Rx/WPQDKF8Fac0JWOy+6x54+bXXMKB/f47USPSQT8Kuu+2KNWvXcElvMr+XlaWfClpqEPoVZQEgrG73qYOKc2NiIEQ0oHEANm/ZzBOVKS6lBoEcX677zwZcc80MLlVJv4+y8aTcimQvCB8EEqISIPSquWQfxwKEylIZSZN7gNDVhTIOq8zZ7PSGOdXydtAgsJNiDucnkuIoaPORSjiMMnZqTe+Gl87qS5+V5i6KmNBSLafTQAbvEkBo8oRQ4xShnLl+2MTQ6UVjSUwmxQxuzyKVURhL3e/j7i+Ogx8+lIT74frD58Cp1DDaCqsWrGlqRf/qctyh1S4gcNDY0IhVq1fBZonooaRs7g1NJQIIlOSM5h5QmjD9/X3QFtoAchAbXnYwLtr7dSgKMe30NQg+v48BAv09aOAgrF6zGmqoZ4a8pBxRVTHp0EmYPXs2Ox1+9PHH2H/cuChNBKnHBw8aBDJH0ENpnqlYVLrainToyyxAICoIBAPYddSuWLZsGfo39Acl4HM4HAyWaG6k6aCH/AmOmXa0bqowlkeWY6M5eTweFBQW4Nhpx+G1115lMPDuO+/i0EMPxdHTjsYbr78hNBCqirPPPhv33nOvqamtXbcOI0eORHe3ACS7/OpX+Oqrr1HkSFKqWwEuuugiPPDAg+zEf8ftd5jqK/YlOuub3F7UFxXoPgiZarKVXAIEUmUNGDSAUfyee+yJ7xd+z5kUCV298sorTKRr1q1hp8XDphyGW265JYsqeRVdBifF3jCDlLuUECD0gYmhy4MypzOnAlTOv68BQosxiiGXQo1sxyoBBBVWhFHKsfu5BQjEFPUohhw7KdL+SYBQ6xS275yeB83XugdAMOHc2POsCc9tn+LGHZ9Pw0o3CQA7jhk5HZMHTedqi5RxlCzTa5taUVtZikH19djWso1vmN98/Q2Xm8/2k1iDQABBhR9BPDf/XHzZ9AhrN5zhYlx5yEdcGprj/GlAaWgRSHPAAMHnQ5GzCJ2uzow0CFMOm4L333+fl2PWrFmYeMhEfWlICJ5x5hl48kmRyplKEJPmhUoSZ0+zG2eHyT+GEiXJWgxJfBCobgFFvdE6XHjhhbjttttYZpATJ5kQKESTtCPkkEgOhvIh7QKlqY59mpqaUVVZydEaZGKgh9ohXw1S9ROAkOCI1u6tN94yRUp06Zj17ixMnTpVd5b8MwOMe1LKOL/fD3selT/ITINpBAgi+itzOZRTgECmgx133JEPzM033cxOiQIgTMUrr7zMACF3jwAI0gdBR425EDTbAyDwLYWiGH75AKGvfBAYIKhhlBQY01xnn0KlBqGvTQxNHlHNUUam5BIkcLnnLEUx0K18tWcObvl8CvzohMNSgcv2m41G5y4grxHWIFBxqKZWzglSV1mOYMDPatqm5qZI8bEsbmUygCAAmYJF297DA3OOhN+isJ/CxH4X4LhRN0WyNaYJEEgLS97udGOmcr+ZCO0jjzqKkyCR0KPbMWlz5UMq8SE7DNFNC8uXL0d5WTn/mvj20mXL0NHRjn332Tcj23ii5RcahC4UFIhUywmdFP+jBaNb/D8f+CdsNhs2rt+o+1CsW7+OzSBkFtl5512wcOH3unzhZEaTJ+ODDz7oMQSKbjn7z2fj/Q/e54urLAVgLIEuAQJFJKxZswY2q3mORACGKnGScym1+cF7H7B/Q6qHfD8ylY8MEFxe1Bdr+XH+rwIEGT5CSIi0CSNGjuhzgEAJTYrzI2lJc8IUDQChqbUDDbqJIXPkloqA2EmRbGt9BBBkmGOfOSmSo5lL5EEwfxxTrVri39P82MQAqsWQW4AgL486QLCIjHi5fLh2gCeIcnuY4//PO/fcnGoRiEltaBdhjhzi3QtgHlJ8eHLRRfh8wwNcJ2FE4f648IC3YaOyylp2EwpoW9PUgpryElSWFCHo96OstIxvlJky2mT7kRQgUNZFVYHX2o4Z7+yFbSutGVoAACAASURBVJZVfBcckb8/Lj7gfViVOBUuU2w+aRB6DRAU4LjjjmPtLQm9f//73zjpxJO4Z9IYvPr6qzj+uOP53wcddBAe+OcDLNieeOIJ3HPvPWy/p++++eYb7DV6r6yRqxEgJHRStADebi+Ki4tZhhCweeONN/U79ltvv42jjjqSx/TXv/4VlCpaPhTpcMKJJ/C8KGzQ6SxCR2cnO0PW1tbixx+XoKysFM8+8yxEqKeWBZdKedtsuoM9tUeaCXKQNPPIyJgjjzwS77z7Dn8yatdRmD9vfk5oUo5JAoT+RQIgGMGOmXEb38mpBsHYEamGSG1DlbSOnno0h6fk4uBG+hQahO0GELScF7ni+/8DCOmSeur3yUnRQpkUf2kAQUuURBqEGocVLpcLpcUlqRekF29kEyCs7/4eN318EDyWdhSoxbjogJcwzHlwVE5XEthrtmxDY10Vxo4ejQXz5/Po7777bpx7jghfy+YjAEIH6stEoiQj35ECN2QN4YUfL8Ls9Q8wm66yD8KM/b+D0yZu5ek8bGIoK4XP6xMaBJc7nc/1dy+86EJeExL05IB35ZVX6in2P/3kE0w4+KCIYjuSx1n/noTN0089jZN/c3JG/cf7SAAED2sQnDZr/CgGQ9lrul3/7Zq/45oZM/Tmpk+fjhv/cSP/NwGaU085lQHBV19/xXl4KESRnr///e9YvXotHnviCfYiHzJ4MGsbyGxDz/KVy/HDwkUMhggc7LrrKNY+UMQEPc8//wKOP05U1jT7LF68GGP23hdeL/kjqJg5cyaHaGZqQkjVbyxASPV+st/3GUCgxBC02OS4SGEgL7/0ck4dX2gjjCaGnKpV42kQ/gcQekOXrD0lDUJpsZPD1vriIRODolAJ5r7SIMhESSKBWK4eGfXS5Amg1mnv1W3e7BhlNUfOg2BIU2z2e+N7by2/Hq//fA3CFmBY6ThctO+7yAsXxAUIA2qr8PJzz7L9nJ4BAwaw09lOI0ZkdYVTAQTu/D8h3XNbnsBD3/2BM8YWKqWYceACVBcMENNLQ6tiBAhkYyeP97RpxgLcf9/9OJe0R4rC2oTnn38+kpwPKs444ww899xz8Pr8ou4KJwOim7SF8zBQ9cH7779fF6iZ7GfsNz0AglwcownmP2GllBuAQv/oWTB/AXv8yzWkcMeTTxF7ftjhh+O3p53GzpgPPvSgvk6Uj+eLz78A2fj/8Kdz0Ny8BeedczZHPnCm3QQllvccvScWLKDEVwJgXD3j6vSy5Koqbr/rHvzlL5cAaoidTBd8/z1KS3ID0iVA6CedFHuxSX0GEBb+sBCj9xzNAOHoo4UGIW0CT2eiioouf8QHgc5izry3DQCByj03Vmhhjr1kjKmm6+9DH4TtZWIoKXYiNzE2PVeXAALFqJdxWGzuBDbLhqhMirkHCNTn1q4Aqh02WHM8Nyn71lEUQ2lBxueOHL2Cig/3fXM0fmr7kAuiHTP0Okze8RLOL2AMIpYahIG1VQj7fBzS1ulycTpiugk+8fgTOOnXJ6UllBOdP2LABIC2UFp1Y6KkqA/E4V/Y+hrunnsilHAQeUoRrtz/KzSw70R6/MgIEIqKijjiKxP++fY77+DIo47gbykz4+ZNm6Mvahago92Fjz/5BJubmlBUWIjhQ4dh5M47sbMiZVLMJKJBYCGVM+oWFBRi8pRDdSFL5Njk8cCRnw+nzaZ73lNBKN00ZQHqa+u5TgEJcvLBMDpPbm3eyoKXnBd7ABCQKaEGy5etQElJMdMAeQS43V3sc0S5DihL5DHTpuEf/7gRlRWVUU1MOGgCPv30U/7Z6b87nR03033WrNvAWSndne1Mt8/8+xmcdJIw72T7Idrc5Pahvji/1zlPlLXtPnVAjsIcjRNf8P0CUGIKsu+QZyfbwbKK6XuShYcSJYVzHOaohchxaBMVcGlrR2NFWSTMMSPPbXMk84sGCFqqZdIg/A8gmKOHVG9t6faj2mH/7wAIVDaZmDg24qpZY+HBZhSECnHJ+PcxxEHl4aOTWZGPxeot2zCotop9VrY2NWHSpIlYtHgxcxkSavvttx+m/3U6O4klui2mWkP6fUKAEJMOl2awqO1N3Pnt8Swc7aoDV+//Bfo5fyXGZKYz7R269VJyI45i0ACCJnPTaAWYv2A+Ru81WvBeRYHf64uk89V8EWitun0+hK1WFNptAuAJY3avHtJ61NTVcJbDZUuXcgi8BJPNXW4U5pOJQQAEzj2gUIVJ0a1IqncAyw+6xVN+HdZMac479HMKmb/++ut0R0Nqm8zYZ/7+97jiyis4fJPCIWneRC+uLi9WLPoB4/Yfx6ZvWhOiiyOPOBKTp0zGwQcdzJEwlKZ5w8YN3BclVLr99tvTWgcaf5c/gOuuvR4333gtLyb5PhAoKSwsTKstsy9ToqS6bACENe1edWBx+k4zZgcq3yMVDRWo6HOAQHkQKLd+L4k76XyTmRj+BxDSJRXBNLYDQGj1kzI1jHLKfZzjW3ZfahDkBvz3AAQSDioXbV7W9gHu/uZYhCxeVCiDcfWkL1EMLXzNEIpKDH/t1hYMqKlkgEDru3nTJg5t+4Ruf1o2PFoLSopDjmwUTx/34QqswsE4KgWx9nOvzwfFZkOLqwt15VqqZWMhHSZgcndVsbD9Vdw35yQEEUIBinHVvl+gqmAYy1sbCV+TkVwEENgHwedDSUkJ2tvpJpqm0FaAjRs2onFgoyharSh8Ey/IJ3NN9NPl9yFktbFPACeZy+gUR39Evi/1/erZvk8ZDz+a/VEkjbEnAhCE64MRIKhgR7933mEBTmaCffbdp2eYpwJ8/PHHeOjBh1jgU4Ksyy69DP379xcXNq1OAtEGObW6ur3IDwZx3PHH4/0P3osCQEYtiXQ2pJ99+OFsTBg/3vxqaNV8qRIuQZ/GfnVobW3h7ylnw/gD02jLfK+cSfG/CiDMnz8fY/Ye8z+AkMYmp3qVohg8fZVqWavF0GdRDNsTIOSllyc/1T7F+32fAgRNJU4mhlqHPWOVfzrzJDyeqYlB1WoVqAjghfmXY3bT3czg96idhj/u/m9YYe2Rp4JMDOubtqE/FWti/b0QnuSF/+3cb3HopENZMElmTze3L7/8irPwxarM3531Ls45+xwcf8LxuHrGDBQ5nSyMKEnPXy75C556+mkcNe0Y/OO2O1AjTQxRAEFk4QwqYczZ9iAe+e4cke65uxgfX5WP9q0EPlT87rencXp5Mw8BhJKyEvh9ftTV1WPT5o3p2cGpEy0SwEGJ1TTwQ0CjJMZhlZbP4/dDJY9/uwYQsnDBcnlcqK8TAIFu5m6PG3arncFciwZUSIMQG+ZIUQvkQ7Jy1QrO7PjDwh+E0I8zJgJlRs1C1NoS7tc0EgIg+FBZkM80cvY55+BfDz+UVKtNmgQu7pXm5YGG2RkMotBqwam/OQUvvvAcD+viiy/Grbfcamb7037nvxsgcB4EEWqTu0cFmxh+yRqEXzxAcLOTolbVPHekorUsqjlSLYZfFkAgfkZ2ya1dQdQ7bLnVpmlrSUxxbacXA3rhg8D+Bx/+Fj8GXmJpP2X4RZg65CYu0hT7GAGCnYSxMdkO1dlobeUiR1SpkG6yLC+tFrzw/IuYNu0YFiqk3SQv/wcffFCEtinAkMFD2Cv+7bffxqOPPiryKihWXDdzJk7/w1moiqrmaMhApQI+1Y3bZx+L5aEPYFMt8KwvwQsXtCPko/GHWUh2tnew936qx8cahBLWIAxoGIC169ZmpPInHzDqj+ZK0QDkg1BXWxfVvQQIZGKQAKFX/luaeaLT3YnqqmpeW5o77QNlziXabPO4eVwOa0+AQPkZRu02Cp0dndhhyA6ccE+mUE61bvrvKYMno0YKYbRwDhlXdwCVBcIFmtaCEkc99dRTeO3V1zhjpXwsFiuOPuZozLzhBi7AlO5jBAhPPPoozvrjH7mJ0aNHcxrrXDz/dQBh3vx52HvvvSMahJdzDxCoWBOFOebGxCD1buK6wmlAVYWrOTaQD4KMYsilieH/A4BATopZKBhs6gwSQCAnxYo+Awh9U4tBlnumVMuUSTGn5rasAARRLyGIAO567yQsD73B/330LpdjcuP1XC+DE0doNzk6gQQQNmgaBAEQSOLTYLRLiKZipps4ha1JpzPKTkgFnUjgPPDgA5yIhx4qEUzleymPAiXGIZU1PaS2pjC1X59yKrZ1dKKqvBS2eCp4Su7Uugi3fT4enrx25Ks2eJb0w9cP2VCQV8gCknIN3HbrbaZo0wgQBg8azKWrM/EJIEHocDgRCJD+EVi+fAV2iFNnQWoQCjUNQiYAYcuWLVj842KOGiAtgMft4UgDmY+Aah+w46M9D/WDBnF+gXgaBAIEY8aM4Zs+ZVGkypLWBBEHcRdT1+5oAAEKAlCiAILxO9JwUJ/bmrexvNr/gP05YRQBykzW3AgQmrdswYDGRmG6sihcUrusVDi1Z/P57wMI8+Zh7300gNBHGgRXUEUoZwDBsJ3bywfhFwwQSKi1dLqRE4CQALT1vQZBAwh9kCjJmGq5bwCCijWdPgxMV4Ng2JswArj/o1Pxg/8lBCwKDhl8Bk4a9iCs5J1g0CLQ3MhfYUNTGxqqy9kHoQdAkMdVAecSOGTiIez4Rs8N19+ASy+7lMP4yCZ/7bXX4bLLLuWENvuN2093eiO1NplKyfufLh7NbR2oqogGCLr2WVXx5k+34q110xFUg8gP5+P3ez2OYc7DYLNYWcDZ7fmmtah0o6VESaRBGDZsGJYuXSpmlKbqnwACOTlSO6KM83fYbdeeZZwlQHCYMTHEOGeKYak8Tso8KC5LYqAkcPWt0DTIZHCpbWjE8mVLUZSfr5uHNP9vfPjhh5g0aRJ/dvnlV2DmzBvSc3A3AgQ1zM6P5JLY2RVEZWHu07AZAYJNUbDTTsOxcsVKXqN335mFyYcemhIbSLoye3YJINQW5zN47c2j5MJJkSZOiNFK6iJtdEYNAqW0fPWVV00fjswmqGL7AIRONFSK+Fa+6GQ2eFNf/fJ9EHJlYpBu2dHLLAFCWR6V18ndQ71znofuvtEgMGPWijX1XS0GFWs7femZGCQj15wPKQrg9cXX4Z0NNyCkhDGoYG9cPn428lRyqhY7JLUjJHY2NrWgX3WlyJuRwuueUutOmTJFzxpI9Qmoeh8J/z+e9UcU5BVwvQO6sa5duxZkt+fqhyOo+iEVhxIAobqiVJSS18iFGDlNI6j4cds3R2B5x8dQw2HUWAbj4v0+Ql64BD+vWsWhdAMHDjIt4I0AYa+9xmDOnG8yBgjk5Njd3c389/PPP+fUybEPAYSQ1YoiO/l7iPnFF05GCWQ4NQpAqYmpWqJ09JRVEWOj17gFixUbtmxGv8oqVgwZ+7v11ltx+RWXi2yPr76KqUdNjXYeNXVUtTOvFdOi+hgEECr6GCDYFQv++Mc/cKgkrf/FF12MW269JSkdyDwmvEwmBT6FOdYYAUK6mmxts7MGEEiNtGz5cq6yddttt3Lt7DvuvANnnnEmbx+V3pQaBPJIJTuPKR+EZJApqbNINEDobbKWpDRozIPQ2onGXyJAIKeePiz3TOvd7HJzqmUqWxL3kbSRptNQvLbo3MlESTkHCJrw2qYDhNzmQZCCtLlLmBiYVUYucsnZq0bbLHNNMicGx9JJsUSrKGeGiRv3k6s+KljV9Rlu/fQwBC0+OIJVuGLSR6jPGykAuNYmfUYahE1N21BbXYE8ckBIARC+/OpL9qSnG+0B+x/AHuXG0EcSRqt+XoVddt6FSyxTWfoVK1ZwSCAB/6AaxnfzFmLt6tWY882XuOTii9DQv0Ebl4qmwEJcO3s8upVOHunKN5z4+tEgQgE/F8+hMLeFCxcxIDHz0I2fwhyJzx577LF44fkXUs4xLp2rKhd98nR5+NfvvvsuJk0Ut3Pj4/b7OcxRAoSEwimJ4KH6CPfccy+WLVuKYCCIjz/5WM9TUFNTI8pXUz9UZfKww3HnXXfDYdOKicnBKGAgR3UUaK8WL1rMVRKjokvMLKDenqi2SdU/O7p9qHCIRF5MSxQ5of3R6YdCLUnTwf/L/NrQwU6KVtgVBU8++QROP/10ln8HHnAgZn/0UcYt87h1dBr5ZzRAIIRHk0yj9pHGIJQ17T51YC/yIHR1d+Gmm27CE088ia1bt8DvD+hHlxJQvD9LVA4jVda+++7LiZIy0iDE405mAELYwiV1M99aE9S3vRIlaSaG0iKHaWRpYjZxXyFCjKrm2Mv8+qnGIU0MyQGCQcqlQ/wJOicNgoUSJfWBDwINobkPAQIdla1dIdRRNUepwtDLNiVYEM25MfHtMfEuSoAwILbcc6qN135PBZro8aAZ188ahzasgyVswZFDp2PK0MuhqPao0dPbf/vbdXjrrTfx7DNPY/jwYXqoYrwuP/jwA/ZFIIFw8MEH6xUOmd+SCjoQxK9GjWLhRg8BhLlz5yIYCGHud9/h79deiyU//cS1UCgigUsB33ePloSnC3d/cAKWBN6jQHxYQ/l4+bIutPwk5kTrac/Lw6IfFpl2eqMiTRTmSGDlogsuErH4GeQmIO0umSrIQZDmSc7idCOPfQggkAahxC4AUdTNNd3bqGZyINMGaS7oefrpp7lfkgfUvi8chrO4BE6y8xsfBRg6dBhWrVrJP6UCgLU1tSapKPo1afcniBD0B7G5pQVrli/Dc88+xxfYru5u3TdDmkQoDJW0R1TpkfJopGvSkSPoCIQ4isFuVfDhBx9waWoCHCNGjsSiH36IycvRUysTD5tLE0zUmDSa2OD2o644T5gYjPuV5qVKWdPmUweWpJmKRgEnebj2umtBjibk1GF8yAFnjz33wIyrZ2DK5Cn8KzpcY8eOzRwgxN2ZZGJfBTspbi+AQMw1LEvJZETP+kdSbSl/IFVOZAd1e7pQXuRI63aXyWhkJkW6ZTmtEbVjJm2Z+YboehtrEIrip1qOE1Zmpt1k7xg1CL1ty8z3ZGIoygMIjyS6nUgMLI0i6dzijWPoARD42pQcNht/nW6/AiD4MKCkdy6mYcWP53+4CLM3PQwFIVRbB+PCA19HjV1oEcQTQqeri2/YNCfyhj/t1NNw2mmnYu+9x0QlAqK3u73dzJc++/wz/vquO+/CeeedxwXlzvz9mewQ98MPP3DkghQU9J7QHqi6HZ0rSQJsw581621NcKlY0fEp7vx6KrqVLgrIRKN1HDo+GY1wdxiBgA9Wi4Ixe++NX5/4G9MJm4jHlpaXsqMeVca99C+XZgQQyAehrKwcbrcACK+99honBop9GCDYrSixklNrjLqJCcP8lYvWjC6SVGiJHwVYumQphg4dymOg5lpdLhQUODjvQtSjiHTZ5EhKT3tHO0qK0k9R7HK7WUv05Zdf4LsFC/DtN9/A6/NCDYm50bqI5FExK6ElY8rPz0fLtpaMExvpAMGmYP53mjY9FMaw4cOwaOEidlo185g5k3T2Nnr8qC/KS5BJMb6JNV7/yto2vzqgxNzgqAFCoJTmk9RclJSCHhIapDIaPHgwjjjiCJx/3vmMuoxM77t532Gfffbhw0XvvP7a6+ZMDGZWLe7MVLgDKkJhCwj/JIUS0tE5DRVqLBHTpyKTopZqOUcAQYIDGrJfBTxdXSintc507CbXVwIEq6IBBJPfZfoa5wnoTAQQNJUZE2QaarMUgxEaBBVledlrM1mX27wqiu0EEOLDA6PtUeOrGe2zbIfCHOtkmGMGt08xFwoTS7GQ7HymZAUgUMKkNa45uP3TqfDaWlkNPCBvL5w7/nmUW7SaBkoI/qCKffbdDwvnz49oDhRg8OCBfLvfY489OOVyMBjC3665Bp9/8Tm/R46HdNmh3828cSauvvpqfXIkvEgNTu8Rz5P8T2bcq6mrx4QJB+Hhhx5EYWEB3y59Sgfu+/I3+KnzA64dUaA4cfG4tzCwYD9YOaxC0yJYCGRHc6VEzJ9+3uX2MAAi367HH3scp552akYqb7qxE0DweNzMf6lOhXQANO6qy++Dareh2AAQhFiJRI+YPdu0fq1trbo5hW7lmzZvQk11jVjTZACB0iTX1aK5WRRbIkHvKCyMmnvsBUqOi0DVosWL8Nijj+HJp55kYMj5HwwDTwVzaI2Ki4pxySWXiBoMqWg/zqLQJ50GDcI80qbvI7Tpw4cPZzBKKawjj+b0odkP0hmvoFFgozuA+mLKmmp2l+K/lxQgxHpOUl+hUBCHH3Y4e5Y2NDbgwgsvxMSJh6Curg7lZRU90LrcPAoZolKXBBDIpvTWm29BsRoMnL2cSI/pKSo8ASAYVpICBOkQEzfphtH+msQGK9eJAEJTWyf6V5RwFJZRg5CuF6o8OCwYDGtjFBpkzCENQkWWAEKigybH4qJsYKRyIw1Cjh+pQSgtLkor1XIUGaUB/Og7yqRIFvpSrsXQc4LSIY5+l4qxJFse2XSzTwVh83zdxikOt9HhLV3mYPS1kd9K2iMTQ63DqqevpZ9L1bF8tzfzMs6Z2lvfoZV71oRAlKlCO1uJLIdCK6qNSg3g040P4PlFV3LoI5QQGmx74OzxT6HaSnHpKsKKBavWbMLdd96G++69y2BGESyTGD3fVqWNWbvYvPDCC5h2zDT++aOPPcoFgcipkJ7q6hpQ0iRKzvPcM8/ixZdf4lC8KVMOw157743i4hIMGjRAEzk0uxBeX/p3zPr5FnaqJHrZrXQi/rz3S7AZSzzzIouVFjNMxvyEQPO4XKisrGKA8OYbb+Kww8jBMhofR+71Bu1QzAKHgmGUlJaiu1tofT/++BMceMABwjHQMAwXhUHabCjicEJOPwRLCo1TUppXVYzdbyy+mfMtdt55JL7/fiGH+SlhkbGyxePh2znxFipsJUo60l8KysvLdYBGieEK8iPRH/JM8rs0Tm0Ojz7yMGbeeCPWrV2LkB45IalbggSVo0mcDgdsdjuGDBnC9YIGDxnMES3UL4W1NjY0snwjDZLZxzguWjx3IIQCqwU2i4KPP5qNQyZOZAoYMXIEaxDokm08+7IffcnN8hyF1kDBRncQ9cUiSCCeY6NZeaSsbQuojSW2KEcHSSx6IxoN03+/+vLL+M2vf8MxoUt+XIJBQwZHnIWSkPqa1asZLYWCQc6FTkkplJhFiTom0nPWxI5EbYb2PhG7qOaosA9C5EhGGoxd/Fjh0oM5az/QL19SAGnzZg1CawcaKkt1xxed4epcP1q4xDJx43SjGKr2Cw1U8ppLgEAahEweHpJBMuj/jAawwoRFYCQQ4ANVKNWARu9tTQgkG0ciLYdRKBnXo5mqORY5kRdHasUTZPGEqX7opKwx7FmsQGsnDYIECHJtEmDYqLWTDSWSrgnWqYU0CDahQdDD9eW7Wr/JREe6e97UHUJNoYjQkOuir7cBmMSbm5EXmNFWkYjdoAGEWD7Cl1DDOTUun5H3CBsrWYxVeMJteHbeX/Bd87MIWwL8s/r8kTh86HTs2XAULGoRtrRQVEEJPvv4Y/z738/guWf/zQlvZNZA43rV1tbh5ptvwsknnyKc0DTTw6233IJly5ZjxE474YILL4SzqIj3RqReFjdoWYuhtbUDFRWlmiLAj0VNb+LJeWehS22lRMooVupx4YRX0JC/u5DkZjZToyEdOBCwoSRXm7egkeLnw2G2l4/abTfhbGegZ7FvYpyS48WSZDAUYlW/j6o1QsWXX3yJfcbuE7UftBxuf4CdFIsNsf8634tlpga+GCXYYn5O2puly5ahoaGBkz7xrzV6p3LPpIUh3mIcMzl0Sp8J3qNuL/JIHa8BiAgLE6Du/fc+wIwZMzB/3ryokEqiq/z8Aq6rsMsuu3A1xYsvvAjjx49HoaMQVosVFmObWqqNGBap76GBnfc4hj1wlAq4AmEUWBUGCE89/jjOOPMMhjQTJkzA7A8/0PeRlzaB9S+eK4FxK/TLo0rFmoKoL9IAggToGh9PpqmKnYyypiOg9qeG5KGNgTERVAp43G4MGjgQHW1tOOvPZ+Oee+/lw2GQMdx+PCS0adNmDBk8CMFAAAdNmID33n8flKHKQMtGZ8zIz6WwSsR8E4ASI0CQJgZuwjBe0YkRbWvdxk5Ip/oetKAzdkKuJLCbO1yoLy0WTNhAZFFEb+gmFSiXzNoINKRFkEwM7q5ulDtJ5ZbmkwKRGpkB/Zv69ASCzEzJ0ziKWcSCg0SMMIFUjwUI9DmtC+W6LylywE433TiElUpQ8drGQw0JlqqDMimCintFqsjxWFLc8YzNpdwHKQBUoMUnAEK+BhDiMQb9Eh3LlNPZbm0NtnjDqC60sOMSrY2kI+OYY28bEpAau0tlgKFvKP/Ipk4/GkpEHkxJ58ajRXMzgvuo/TQMin5OaYr8Siuenn8B5m19FpSOWYEV+SEnxg4+FQfscD58HVXoX1PBdn9SrZIj3ltvv4NHH38Mrk4Xj4MA7okn/Rqnn/47OEnzpuXK5/lpfcp1YXkRh5bpRzSe1tZOVFaWIAQ/lm19D098+zt02joYZFrVQhz3qztwYMMf4idSkguaimC0/j/79FMcdPBBPN6NGzeiuqZODM1w82dezMxX3KQtUVBBTC8UojwITuFMrij4ds4c9hcz7jOttycQQFixosgmWpFLkYxfyaJOsedFatx08Cf5sIweUIA2lwcFhYXsyEd9yUSYlrDKN/lOt8h+KU0MRjOX5BdffPEFJh48EeEg1WoUzJdMRDsM3REXX3QJjjx6KhwFeTjyiKMw69130K9/Pyz9aRkDBHEJEpKLNWuGtMz/j73vgI+i3N5+ZrZmd7PpCSE0aSJIB0HACnYRUCwg9nrVKzZQQK+9XbHhtVfs6L2Kgl2vikoRBAUBAaWXJARSN8m2mc9z3pnZ2c0m2ZSN/v3u+EPIZnbmred9TnuOsTRMB5thedP3c337UZOzFQQQrBLsVGb7tFM59gOwYMZNN+Guu+80wF5jyyHea8wyQp+nnb4QCtxWlAHEhQAAIABJREFU3guUklvvAVHPGjeW58pdPtXjkBk98UBHDRQFbiiwqGFmL/vsow9w6XlUO1tBQUFnDBw6DDNvuwO57Qs0n5CBew0BxJuSglTKyjGod08GCEOGDcO8996HYiG/S0TcmIti8HnQpNGK3KwvyJBKVbssrKGpahiyQslQ4tJJ1gxhYIAAWqBxjgR2vUW2HC0mo71c+ETmZ1b5apBGWgdfdI8SE0xEh5B4jtiUkTGLlUa8CbjIjLbztYnmdtB8STIH2qTYiF9fLO9EtJTGxjXWhK5vQOofIW0RtKS3m0ar7kTVgwWMcal7cuvfEOKIxs0fCsFpd4BH1mQalnjMInOk63bxNk9kjM3jrA+7eCfBHfrPR+ZORUUKHdimSzDnR6/HOOeGdsaI39Ttf+RoFP+SEVBlyKrCkc28HnSEr31fjET8fMTo95t/ivxbbwnXPZRklPlDcDsdsIXDULR88NgxqxOtHvGaR/WvPnkolqBYE76aANJcBBDoZ7E+9X2jHzr6SjKvIWpvtACmuwjR0Gjsw3d7HsaSHY8jLPlhUxzsinBZM9HBcQqOO3g6nMiEBDd/rm8/CkIjMCK8OZq809axDiTNc2YOToydzzBVA6Q9HFJgsfmwYudTWLpzDqpBBZRIxtgwpN25OKrzPbCrTn5fQysiaj/ygRIzu2oIzz/zNO7V4iM2bNmCFJcXIUW4Voy7zR0wtpO2ClRa52FI4Rp0bV8AhU8N4Mtvv0O3nr24P0QgRDKF7GgBQngWK1vvaOwiAktfVZF1Xheoi5eb+xW1+1QisNN3gcgaCYTCsNuc7JcnWUZ73iIrcEpAn14HYn9JCW/5dRs3wp2WyXUi6HTSoiL4fXOfexa3zZjG55PT5cY/br8NR4w+Bvn5BbBYbVDUMPejZ+cuCHKap4z3P/oY/QYPhsK1QzWpwkqkJteYs1u4p/R1oA9ttEQRO8KYAp5HXb6oqFEtsCMEaziA/r17oKysFBSksvCTjzFw8CAEJYa1PPb6RQXIjHca3CD6Z6L35neK40Is8vJACBkOO1QlrPWMskUEQ2ldxYA6LEcBSr0N0rayoNqBfBUmJBElbjTrJ80nBYqMOfporFu/zmABstrsGDf+VNx0040YMEBUR+OGR+Qh/0wMZblZ2Zymc8jQoVj07beRyM1YadskYFC/qPJpLgY9SaMh33HkuBHPi6cl6dYSc/+0+WDhThp9UWkl2mekMnKrD7WZN1RzuqpvPGFBqEamiwJCE7/qO9yMRRHzKLqfhKsvEAIxgTnJxaBbxRt5mF48pfHW1e3BvmofUt1ucHFFU1yiJn74kZHXNzQC9R/n5h1GFgQKUvRSkGKcr0Rpu9EvN3ZqvDcZ60Vrog5T99eKGAQOUtS+SH/pJUoam1P+Sty9YwYVuslMQlGNglyXWNl8APLLIhY/FrdxOsB7wxBWiWWD0/07ywPoqG0+3iem9kYdxtpe0WCAEPv6eHD7ROlnOmh5Lap+LN/9Oj7cNBt7azaxKCeqZbojAx0wqOAU9M45Dj3yhsIhpcLKUSymN5r+GdFEdQlAoE1Mpz4UGkQ3tEv6OYAQVu9chCWFT+KXvR8jLAX4wKKaC0NyT8LkQXPhkFxxhS531+TGM4lKVFVWYuo1U5mgaerUqcZcnXLKOCz8YCH7wcvLypHCQeBaGyNTKZ5r7l/Mxvvqyy8x+pgxPKEEGnft3om8vNzIMtIawxYESPDaNLI70/mgPzL2nNBFXn1rKKopMTEoFIPgcKTAY9OUJ5OFs1u3btisMTJu27pVuFpiNgf9SNYRshhRTAGlJKakOLR1JB6mz7DXk8o8ELSe3vnPOxg3fpwYS9OBHNXHmD0RDRCiBzh2z+rvJBeD3Sph1fff47ARREwlM33zzt07QRkS5kvblsZH5qGvs29iZbW2zwqrQsj1CJZIYacXndD3mPmAjnZKRRY+t2NLmchiMJvT+Be06Ex2HH3wlHAYa9aswd13382pi7t372Zfj9vtwbKly3AQM42ZBlsbXCLEyEj3cp3x/gMGsGnLZm1iemXMYDT2o2BSlOCl8W+QDayxJyX2e/LqFZZWoGOmxqSofU0XBqzBJBps0sAr9cB9vwJOMW2LLAZqe2UgBIskiRKwiQ1Js++i9UZpjqkeD2sx9R1ezX6B6Ys68KvyKyxcUwmRJEok1NQG0KO1MgGlfgWpVgkOCtYynmM+Lpr68Prvp6cWawBBMHxq5YzNAKEx5NiE5tCj9CDFFq8VCvjjCRGHlbBgyShXtuON5TdjbflC1KISFJlgUYjYBrApChxSPrp7R2H0wZPgtXVFhrM97HIqJNXK2jLrhsapIDov/h8BbKLLwv6hygpqQiXYU/sbPl/9FNbufw81Fp+2pyn404LDOp6FM/s9CqvS9FQ8ehNRE3fv0R0eTypK9u7lktBUSbJ9QQHzzLhcLq4P4bBHDhWzK7OxKTrxxBPx8Scf8/jRWidNlqL0I2hDjEFVMMBWhTR7cot76dabEgYITqTGIUoaNWIkFi9dwl2j1FM9dV4/Z6i9iTIM0ncow454Jeh68KGHcO3Ua8Sw6Vqhfqo3NpgJ/F4XIxSkaLPKuOWmGXiImBMhYSxl8y2YL1wA2qX3Iyr4sgn7kr+nAnuqAsgncM6uJm1hN4PXRNpS5lc7ptkFyohqSMN50gQeiIp06ZKlmDRpEsorynHWWWfhtVdfiztsVOyEUiFLy0rRp3cf/PDDSjjsSQQIkooK5kGQkO4QUrApiyiBuY++RVIRUCUDIJi1pSY/q5Ev8KYiTnmF0hx9yHS7m5X+1pR20TsrAiJIkXgQWiz0E+gjMSl62xAgVBBAgAqvQ+tfEzZmomOpgxESHKW1ClLtEmcx8Hia6Q1bMX1T39ocpOjSmOqS0DfzGOgAoVNatHaU6Dgldh9ZDoLYVb0Wn/82B99v/zfCsqAQpggFSKLAEh3cBAzSHXnIlDsi034gDmjXHwfk9WLQkCJ5IMHOgpq3Fs8HrQSKLqhGdbgCa3cuxdpdn6K49icU1+xAQCI2f4IsQeb1T0UezhhyMwZnTeZ3RdTRxvkmzH0tKSlBj549OGqfArmJ5ZDM7tnZ2fwZRdpv2LgBlCrIZm8zntRVzXrmljIgDh1xKJPW8bhIMqf+cYqdSU2lNco8CG0AEPS1ubfKx/wV3lgeBACzH5yN6dOnc5uvuvIqzJkzJ6HlQaCOxpOKRvXo3gMOp4Mt2RT0qCu/l11+GZ588kkGYVEw3aQcJ8T4W0+LdKxRHRAAoWfX7ti+YxsP9wsvPIfzzz8/IbdwQh3WbiLZEhcgNOUh2r0RgKD3hBdK06gZ777nbs4fprri+/bvYz917EWLs2u3rkxG0rlLZ86ASHGmNKPJCX4lBiCw5p5MoagBBOJB6JCZFu1mSbDJid72P4CQ6Eglfh+NaTlbEMjFkDyAoGsGtBT31yhIdRBA0P2VCUTkJt6lqDvZglAdRo7Hwjgk6QBPsyAkGyDoBgC/GsTawm+xpfxzrCv8FIW+3xCUa6BIIRAro9j7FLtD7iPyc0tQFStkiYJgXRwrYFHpZzp4hXYdUmoRRA1qUIYAagQrIj1DJa2aHEUK7IoTvfKOx7EHXodu3qEMRiJWCW0KGgv6Mc0UESFR9cBly5aBMi02b/6NrQUerwe1NbVM4rT4u8XRBEuawhAvdMq8CEhrHjJ0CNauW8uHIRWs0plu/8wAgTgrKNuADvWDD+6LVStXNppySNM9bdoNePTRR9nCTWb8M888E2eeeRbIiqKblI8+8mh8/sXnAiDoxaNiiD6aCxDMQY8+fxAPzX4Et98yg61Rad5UbN2ylcFKa1/U992aBUFmE0as0yLxNxoAgR4ktJimAQSKFB512CjmyD72+OPw0YcfxvffqgpP7vpf1iHNm8ZAgU1byboYIAgehHSHUM6SKhTbGiCA6s3/z4LQmstnf1DhMCGil03GWolNx2WAQEyKshb8SkF1dczbrdNDOqP2+sLI9lgghEZyr/pdDM0XVnFbrOV9U0DX7sJitMvLgSLVYJ//Z3yz4SX8WrIMpcou+ILlzKGgyIIxTw/J4iRKDoqL5PlTEKIhVjn+hcihFFgkKwfjEEhIkTOQa+uFs0bcjY7OoZCZ7zMEWfP4igc0YxX9rr3fcMMNBpXyBws/YL5+T6oIfCZ6aDKzG9puE8ziBD6GDR+OVatW8rOoYBDVBDDOD02B+rNZENauXYvBQwdzHQeKPyDeAKKdbiggmwog3XTTTVFucupz/3798dPqn7j/dPATN8PXX33NwFCYj6Lin5u9SYSlUGUgSvt+3aZNGDboEFT7KmD5nYztkYcewVVXX93s5zf0RXr37soACsjFwHtduOSac9UDEOI8ihB1KMx5uDa7jSdn2/ZtGDd+vMElvWDBAhx/3PFx20GbUBBlLGXWsp07djabUzuhjhJACBK7oQYQ2sjFEGtB4OCsVrZcRLQmARCyPO7k+cy1wf4ruxj09aQDhFQbHQHNvOLlKpoepS8FGs9YgKBIwszZ2uuFRQTFdFSHkO22Jh8sazJ2R0UtOpprMZgjD5s5vEKyU1aLFmypncGkz+8oKkJBXq4o90xQSw0hqARQEdiH3TU/YfP+ZVi762vsq94Bv+qHogYRkquhcOYBCXMRPqpoTJA8G+RuoAhvxQab6kLnjH4Y1fNMFHhGwhLMRp43x8hRaK15oz1N7liqW0DBihRI1617N27LuHHj+GcxDqbYywRBH1kmTjzpRE4dXLJ4CbJzsiMUw39GgECWvfJyLtBEdRiIkpjKcPfp06feFVRRUcFuGnIv0DlF55XuNqLy3V988YXx3WHDhuHbb74VNNra/qNfcjVizRKuF4YKhoIIBoNs+W6KVYGyQMaOH4+PFn7I67JL5074YeWqpFgPqO06QGhPKcZtBRDITEPVzzb9ugmXXXoZNm7aiPfff98ovjFx4kQuwGG31R9XcMkll+D5F59n8xjVw+5C5U6TdWkAgVIdyQ1Km7ctYhD+BxBaZ0JZ422jGIRogACk2ki/bO6la8hm53DdZ5EwIqplzmLgIMVmaJtNaCIBhL3VIeQQQEi2u80ACH50NNdiaAQ8Nd6duq5PHYCTBWFnYRHatyOAwLl5mo9eS//VHy6p8KuVqA7vR6V/D4rLt2J/5R7UKJWgug8k53QLM9kZnDYvslM7oyCjJ7yO9nDJWbCodtbJ9lWWIyvNy1piawfR3nzLzbjnnnu4D7NmzsJdd9/FcpMo7ue9Oa/5AXWs6FHUhBRtpv8TxyDQHB8zZgzXUqDZvP+++zF9mohJiL3oYCe+COJEYAwlScz6O3ToULYSUCnv116LxMkRBffiJYtht9r5LHvl1Vcwd+5cbNywEbl5uZgxY4Zgr1ywgJ/jr/Vzdsl9993X+HLV7qCaRbfddjv/RHQCc198CWdPmZLw95t6owAIQeRT8kEkbaFZsQ5sQehESMPE4BbPdEPpiWTe0Tmx9cGnnTFu7Dj8+z//FmaaBq4XX3oJF110IU/aqlWr0K9fv2Y1OqEBk1RUahaEPxIgJNTWJt70PwtCEwcswduFBQHw2lpyYJvMeXqkaqypWYtbK/Er8GpZDEnGB2xBKK4OIbeNAAKNgs6kyLIiwTlo8DZWh7STzBTEScPL7yssRvt2OQwQEg4S1vhDmDNBY/QQcky8hwIVRaKYoGnWC/rQ+0rKK5GZnsqkTK0KECRg5aqVGDpkKL/TbrdzWWSSmwQabrzpRjFMrRht/2eOQaC2fbPoGxx5lIhDICsCWRWcDmf0cpGADz/8ECedfLLBjnnJxZfgyaeeNAI6Bw0ZhB9X/Wh8r3fvPli+/HsEA0GOySCWSvNVhw9DknDBBRfiuWefbXRFE9gk8EHMwTR/dJ1++umYN2+eSGUy56M2+rTEb4gHEFgqNcOSnTBAoEmaNWsWIycmzgCQlZGFOY/Nwfjx4+FKaZzulxb94CGDeZN9+smnPHBJuzSAQJkFHIPwB1kQktG//wGExkeVGNcowKvXgb3gSBE1342rno2iA4Q0om40R4g3/jo9L5gPEjJREwES5LApmZ693IZQIC31jwAIeS6RG91a5vD6hoYAyc4yrRZDa7rZohoesdZQxP2OwmIUJAoQYtwUOjiIkBRFII0ebEbBh9QvJpyBhP0aQNDhRGuOKR0u+e3zoxQyGutNmzaxu6FVwYGO4P6MLgatbTTiHQo6sJuBLsqWO2vSpGjgKQHnnXceF2aiq3PHztiwYYPBM0BjSrELPh+RJInrgC4H4IeVP3Bsx/fff89AYszoMVyOedbNsxBgSmphiSCXw4yZM9iCkJmRGXfpUzsJbNgddnZlnDz2ZARqAww1rRYrNm74BV26HJA0cECNojW6J8aCQLE2zamlkThA0Pwyy1csx9KlSzFkyBAMHjwYTvLHJCJACXHvK+HKXMTi9cxTT4NcDkm7zADBLixyrbmB67S7niDF/8UgNG+GdRcDsVLyed2E+aPNOGrkKCxeupgDYQnAEuf5cccfh/x2+fWa8/cFFFglFWk2wSrXnIOU51upQnDvh5DKlwDhaqgWO2RrKlSLC3D1gTXzGKgWD4prgXSrCkdDrFrNG74639ItCP/nAQJPSl0uODKak4shv10umLuxIW1Jt0QkGkRout8MEErLK5GRntrqMQj65H362ad8cNFFa5r85BXlFcyF0FCAXrOWzJ/YxSA2IjjVcfbs2XxY07gsXLgwai9TOmhOTg7KyojRErjwQtL0nzPG74brb8DDjzwcNTyURcCBj2vWcLGo22+/nQsQ0jVw4EBQgCRdVPHyqaee4mJdDbkD31/wPqcujh07Fu+8844BRlxuD9cxIitFst2J5G4rqgyincnFQDwicjNSp5sEEPSR1YM2mroQKeeWqmTV1NZi6tVX45GHH2nqIxK//38AIfGxSuDOPyZIsRJpntSmAwRVxaTJk5jvXDftkYCl+JgJEybgwdkPIjcvDzabNUrQ7guEOcI43UYBS80DCCy4a5ajZvkkpIQLBam7ERktISSlIJh1Mpy970RRKB8ZXKxJTECiQDuB6frDAQINw/YKYUFojmmz/j7GpIJqmR/kCGCAkJfLfPf1AgQjDiJONgV/yYwsTKcmn9JyxIIgCQtCllZ3pSkANtH5I84YqhdAfm+6KAbsv19+mbj7JNEX6Yvvz2pB0Jg/yXpycN+DRQyFJDFR36CBg4xefv311zhq9FHGFFLMwNFHHc0bq3S/NpZ+MZb6pVf5pMD5e++9D9dcO5UP8GpfNfoP6I/ffvuNb6UYBKpi3NhFFvIff/zRyJ4QlgMLbrz5dtx28wzmkUnmPqf2EatoUWUI+V4RkEwvJC7SZgMEIkqKTnOMjhRubFAS/X0gGEROTjYTLA0fNpyjaJN2/X8EEP5qREkEQGv9flDJ2TSvlz3AZn7+RNYMxcyQVkC14J959hkWKvopTL7Lk08eiyefeAJZ2VmGQCkJhGGVgPTmWBC0E4lp6/0/w7fqYqT41wlXA8fVUy9IAgcYJIQPnIOKjMmiWJOw+gsc0ZrmeNNAtbUFQQCEWnRMc7YyQKg7+/QuPUgxPzdXC/qMJX5LZNXEgoM47zKonyXsK6tAdrrXSCZoVQsll4tXMGH8BCxYuIAPxLfeeQfjx53CbKZ8tWYMgqmrf7Y0R/MsXHb55Xj22WfYokLugZUrVyI9TXAJkPn/vvvvMzR0ipcjhZQuOvxnzZpZZ0IJGLz88stMQDVwwEB2C1DmCFW87NuvL7Zt28bfOemkk/Duu/P5sKeLOCUoaJTiQ8wXuTAo9V9Mj1hPt/7jNlx900x47FZem8bVjJiARFaxcDGIcs8Ezs0pl4l833xP/WmOLY44rtsUil2g9B0iU0r3pjNlKA1yci4VVSHiCpCQTi6GVqA4bqydgmpZECW1rtYU/ebYGIS/GkCYdfPNePChh/HQnDm4+JKLBDhoZpAN7cGtW7fggX8+gPnvvYeioiJRtAUSg1WyJkyePJn9iyUBynUngEC/bcK6ZJgeBJQaKP7dCJcuhWXbM5Bq1oM4/QRA0APswvBLmbD2fRJ7PSci3QAIQuv9H0BobJfFP7TZglBUhPY5ubDp1NVJEMC6sCU2haQCBOqmROWNa3Dvvfei/8CBOHLMMUhL9Rj7Qa+n0ZSUu0RG988MEHbv2cMH+d6SYgZNt956K5P0kdZP/77zrjuNLtJe93q9eGzOY5g5a6ahJFCQIykMzH8hy9i+fTtyc3Jx7nnn4q233sLf//539OjRE9dcMzWiWAA455xzce+99/Bnw4cPZ14GcrcTS6N+HX7E4UYGhcfj4dLTU6deSzRbSLESW0ay7QciBmF3ZQjtowBCC4IU41oQEllJTb1HAiO1LVu3cC4pmX1iC1U09ZEN3U+1GChIMcPeOjUQGmubXouhQyalPjV2d/N/Hw0QqpFJhVuS+D5Gw21ItXzMscfiy/9+iWEjR+KrRV/xlmouQNBHmYSBr7oaM2fMwLPPPcuuBwKsJFj++c9/4rrrrsP+IBggpDGgJNdAI3TjHBsRghosQrDwXfh3vgN77Xo4pGqNl0JX8aj1IYSkDFQqnSF3nAgpdzJKbRnII63CKtwQyTBT6/1vLIuhtYFJW1oQqG8Ev5gHoa0AgiRhX2kSLQgx4iFI9Me+GqS6U1q8FxqTPH9mgEBa+W233Ya77rrLMOOTr5/4IchaePElFxvdo2DA4qIiVNdUG59RHMeMm2bgnnvvYQsN7f/tO7ZzbEfvg3ub4gNi3EvaEwhcdOrYCb9tFq6HV155BWeffbZhhaRnnXDCCQwi3njjTQwaNJDvqwiG4bTI7P5K5qWfDbtMAEEnaGvOmSQsCF57RMOOPy6t1ifKO1310yoGCCV7S0TATZKuvzRAMGox/PUAwsTTJ7I5D7IFb7/1NsZPOCVyeP4eqbxlyxbccceduPnmWejWtVuTVg+BAkqxJba6r77+mg2BlIHz7LPP4rjTJkGWFKTZKQuhAYDAEfC1CFasQGjn67Du/xKWUAlkshaoVOlSlFY1yoarVvhlN9b6JuL86/6NbbvLIFmd6NKpEw7t0Q1nXPk3jBp9NKxJZPsUACGMXDdRASc5YFezfreZi4Fy+zULAgEEq6zZf5oEmuPEJMRZWYYFoQ0BAs0dWUh8OkBIsjX0zwwQaEooGPGM08/A/Pfm8z5r3749Pv30U3To0IEDDnUTf93pk/DEE48z6dLoo0fzc+jasX0HbHY78vPb1WFe7NKlCxciXLv257hy5rHHHsOVV1wZ+Z3mGuLaP7p1nMieCCDIMhdmS9Yl1qawFOysEhYEuuIpHokqBM0KUmxuBwn99evbj7nAGSCUlHDkaHIuFZUhjUmxjSwIQVVFyf4i5GdnA1QxLkmBZ4wS/6IAgTY80b8SYQmlAh50UG98v3wZ3HoarQTmV7/22msxYsQI/PeL/9bxAza6nriKXRkuOP8CvL/wfSofz9XyvliyHLm52UizU8lfLRhAg+QU5COpNVCqN0Ep+wbBwg9h9a2BTamByi4LsjbQQrMibMuCROxt1VtEDIKkImg9HL9WnI2//30Wdu3azS6HYz1pmFzQAV/m5GLaF5/AkmhUfaMdrHvDHwEQtlXUolMbxSBQYBZZEDo0ByAw4GPR2uiO/aMAAlkQqn018LpSmHchmZcOEFRVhpcCZJL9PgANFWuK19fNW7ZwZtKOHdtZFmZlZmHB+wuw/IfluPaaa9k6wIejprH37Hkgpk+fxmmQ3333HY4++mgmQKKL4gw6duiIhx95BDNnzuD4J1mS0LNHTzz08EM4/PDDMXPGTLz+xuvsFtcvSZZYgTl1wqlRACGqvXRoK2RBCMFpsSQVINA46HwHO6uCaJ9K9N8xrgXNKkryIBGLQpsCBJq0goICFBYXwuP2sIuBgkSSc7UdQBAUnYBavR57189GRu4w2PLHAFIKIOdBpeIv1MlWOgD+ygCBBooOfwIBtPPtdhuTl/Q+qDcvE3/AjzfffJNTmOh69plncdFFFzVrCVGUOAUk7dy5m/OSX5//Ho4/7hh4bTYtAkGFIoUhh0oR3v8VfL8+i5TAaliVICTUAipZv8JQpTDCchbC6cPh6DwJ8HSA78cb4KpcAUm1ATUydj2kIL0oCxbFwtou1QSwU708NYxVeQdg2Befm4qhNKs7DX6p7QGCiq0VfnROCkCoW9SKAML2wlIU5GbAxh4bolrWtTU1OivFxIFgpExqm6oxzeqPBAhkQUhrK4Dgp9z9Py9AIEVi85bNHI9A1NQCDQCvv/o6c+1cdNHFWLNmNQ49dATLk6OOOlLQKQMcIzD6qNGgCsOEfsgi2blTZ/7+nt17mKQqP789+vXry9wF+rPLy8px+x134PkXnkc4FMZpp57K9SwaPMOovLsCVIXCcJAFgaKg9StBeuymSgPa64WVAbSjQi8Me+u6Sv+UAIGQWVZ2Jmqqa7imNxUdSd4VAQjCp5yMNDLdVqsA1T+hds31sPlWAnI2QnY3AkiBq+tlsOSdCZVLykY45FvSbyHLVPgVif3qf6kYBAn412P/YjISnaCGcornz38X69atx5gxozknmXx/tNm7dOqMn9euhVt3VTXRRfbc88/hsssuZwXyqBNOxPx3/wM3WRCU/QjvXYJQ8XxYKn6AFNgDWQ0K8jNmQQsjhBSEnN1h63gu5KzRkJwdAGUfatdcC3vp5+yugJKC6o8cUD+xwUb0v7QEGOmTlUIIrKLuPdBp/gIN0ifHBCkAgoJcN1UjbAsXQysDhJg6DgTK+UzQeJFDkoxtRXvRISdbpDmyUKQbSEsMsksIqh9QA1BqyyCpAeFvtnkBe5YA86DS1CKVsT7tqj6AkIg21tw9T+2ho6yipgYZKY1YEJq4/uO1iS0IGkDwOJi4OqkxTjRNugUhVSv3nMguIPlAtSUodZkCEslaQIc1pYOSC/HII47gBAAAAAAgAElEQVSE1U5gX3uaRnK1bNn3OOKwIxAIhyBLKjZu3NgkVyWl6xNAcHnckWfXM7ksq1WgUgcISXQxGLhDAwh5qcQIwiuawV5z4tSkLWW1aifiS9fs4ULTbe5Sbvh7S5YuxciRI/gmYsKaNGlScl7ET20LgEDCXuHDo+rHi+DyrYCskLaiBa8hjJAlDfKBD8HSbqJWYEY3ZTa/6ywc2cXw1wQI7777Lqi2B88i+fIliQUB+Rh79+mDmupqtiSQj4/KtBJ9Ka0livgm32RTMmP2luxFu3b5HLDYvUdX/LR4HuxVXyK4+z9w+DdBVoKCZpc3ugJFskGx50NJGwxr3gmwZIyBYs0UGmuoAlWrp8JdRkVZwuSUwHefObHtHSA9ZEO6KmNgSgrsCol7wvViLVRf8TekX3V10lxSPI6UG93GAGFbhb91XAx1wIFmPta1fi3NcXfxXrTPtEMOFEHxb4fk3wm17CcEK9dDChTDGiqHRa3kcs90hSUZIarNaMuF6hkCS8EEWDOPBKT6q8z+EQCB3kkrpjwRgNB8sRJRbCXAxwyCMtx/BEAgi2yi1lYJbGG89LLLOLbIKKQBID8/n8tj9+3bFy6XG06nE+PHj0NGRibGjz8Vi75dhCMPPxzvv/8e3C53K4xc/EfQLq8MheCQk+xi0F4vLAh+5KU6NKdZCwFCZw0giIMtMYBAApVyQROtbEWDREiPJoNSyjZs2oCuXbombVLaBCBIdHgAoS0PQd7yT2HK0YS+CCsSpp1aez6cg54HXIdGkt1b0PO/MkDYtXsXRo8Zg40bNggN8fdUJgIJxE72/HPPY9q0acyGlp2djZNOOhlz574UFVi0cuUqDOjfP+HRLSsvR35OFrrny3hsVi+M6rUH1jDNK+U7C+1TlSwISGkIpfaC64ArIaWPgSoLgSIEmYaugztQvuQMpAZ/hiSn4KNVaTh9xmaqOY5Ov1O/vtizK4aw9UDUG5QRRKUlBa6nnoZ91MhmIfxEO9r2FoQk8SBIXKAZkkLBoIL/QCI3UKAIxRufh6NsIeyBrXCofq7AyNYDInlh4ab90XnwSZsjC4RKh6GEgOyB0v5KOLvdBMjCf2vMrf6TzoMQE6SYTAsCvZpiEMqra5DlSknqOqF30VqpIQuCKsPlbBsLQkmVD06nAx4iL4tyDyW2wimegDgSXnzxhTqBhuYnEFPiLTffwju7sKQEBRQvlsRLFw9VoRDsFIOQ5CwGff6KKvzI9TpEvArvmRZYEHSAkOg40WRQVbFPPv2Eo7+nnN14ZSr6Ttdu3bBz5w5kZmZi82+bmYwieZfgQaA0x6S5GCQV4YpvEFx1CZzhYigWN1QlBItKWa98fAjtkyKQ3f3hHvgaJFv7RgOhGhsTARAk+BUq9/zXcTHs3LkTo8eMxqZNvxooNc2bhvKKcqZMXrlqFTp37oR169ax1k+1FkaOHGkIhL59+2HJ4sWRzJh60xSFi0BVylG5ZT5++mgmhhwow2Gp0kAeBWZJUGQX1LSBQO5pkDNHQnIWABIViCEzdKSCXygYxJPPPY1PF7yLsh3fo28XO3aUBLB0VTX62VNxUUYmjnRZkSUT4akFGwNBtLfZkYEgdmTmosvChUBGVlIFf1sDBE47rAiAUqiTYqKmuVXKESz8Aih+B6haDimwG1bVwgccAzDNWEcFlyIaqW68poBE3YlFrRVFtqqcPeEeMB9wFWgpb9H+W1HSSYUqyygprUBWujfpaYc6QKiorkFmUwFCrMvBhGd1OaMXoeLR4ANFQnWtH5JsQYpdAISo9P1IaIeBn4xCVo0JL/bQiZgt45nESllZyRq+y2bjZybiYoh9FbV/08ZNWPjBQrz/3vtcKEm3QGZn5+CEE07EDTdcj169ejGwrCDZmUANoQS6VO8teoqhLxCEw2KBvTHen9iON9War2Uy7K2sRXaqICkjZZ5cInsK9+D7Zd9z7YmCgg645JKL4bCTW63+S9pcVqt20V0MCYwE5Y/rhBKUE0oln4879rhGv0nkSJSOQvW0qY7Dd4u/4wCQ5PFSq/AFAT8EUZJRrbLRliZygz5rNfD/eCEcpZ8CUgjB9uMQ3LMCLmWXFhGt5zEQxa4V6DUb1nYEphqPlm6sFYRM/WpyAYJu5dPP2fJgEBZJhsdiadYGbqhPlJo0ctQo/PzzGthsdoTDIY5EHjv2FHz40Qe8wEePHo1jxhwD4qgnMLFz106mRKWLIo2pjGv7/PZG5HJNTS0DUipuQ1HJQuyEAaUU4bJvEd72AiwViyGFFUiEsgk0gFwIXYDsI2FrfypU91BIMm0i0kJZt2FFNBAKY/myZbz+n3/+OewvLRXaqCQhRZUw2OXA5bk5ONHhRArrK0DA7oJv+Ei8tmIpLvQH4Q4HUDJ8JPKff4Y11ub4CBtbJ/rvGSD4FOR62iYGgYmLKoLoRKxTzYh5MDKAKIaAOeTNp1IQStUqBLc+AkvJZ7CSlYD4KNipQ5q/OPz18472pjjJRIonP4vSUWlO+QM9v9QKvyUT1j6PQMo4ArCkACpR20Som9ngQIEkkozisipkZXhga2mwmU7x3ABXPlsQfNWwhcP4ftlSbhMdqFR7gP520B+7nfPvybJL7jaqeEiFiYKBAJP6MDtpVSX279vPZHX0O/qcigsFQyH4/bXMDxJWwHT49O9QIMh7Jy3dC683FUT+k+pNBQF3IhfKzMpkQE6MguT/J+swtYeUP7fHzRZm0T6HkPdxfPA0AxVVlVyd0WHVLTf1r2wmiGJrt1gTsURRDOBUIpmqRiAg4oa8qV7IJLe0SP+QoqCqtgYZTlfU92OKg2tqXnPgimi/DhCqA0HYyMVgiSZgM5//Arvp61bbAVqMDR3yNB8U/+DzVaOysgKVFZWorakFMRSHQkH+Pf1cun8/ft2+HXt3F3J8xd6SIuzfvx8VFRXcJh00EbEUETk1FFIgbS7zq529WrQjt6lhcpiPPvoIY085Baqi4KDeB+GHFT8kRHa0YsUKDDt0GO/F40+oW2gjUUGX+H3RWQysTURxrZsmPVF/l/HysDDbFM+FsnYmLKhGDfKRMuQxVK64EamqoOfU/AnauRSGz3MC3EOfASweToNsyZVsgBAbqEXvqwgEmUvc3RKAYNZgtN1Bm4ICVolWNqSEMGXyFPznnf/wZpj74lwucbtx0yZt+2jBaSaIkp6ewRHLBEB1oUGAo/fBB2PPnkIsXLAAxx93LKWZQKlcjOpfbkNKzXoRdKiSY4gsAlZUW/Jh73YFHAVnAPBQeRzNxSGsQExbqqr45PNPcP4FF6C4sEjjO4jMds7vNohbO3fHZCf4qLIoMoIWCfvadUTBfXfBOqQ/tv3jZuS8swBkT7DOmAH7lHMpZLEly6HR7+pZDDkuS6Npco1F8jf6Ms050xSAoL+Tj2uJZoS2DYEyciWIssvklFHVGoR3zIW05QFYQnvFwU+uPtUZqcBp+EnpH5RuTFknIlxLXBoo0AACwQrivaA3WFQLwrId1c4DYcubAGeHcYAtD4ATikTv1x4hA3tLa5CT3sK0wwTAAb2RAEKZrxoTjj8Bixd/YxxcdCCb8+2pn5ziJ0kMslkKaeuWRoCMzTqnpz6PeiyP6Jo4mCjzSvwo7ua5MMs0k/sv9oCmn+mZep0DbsPvpaqpwiEBC729/D0+D0Wckfl++pwOReoLKQecwhdWmLuA4o7ostqssFltXP6Z/hBA0f+2WK38M4EmAisFzJHQgV2TObm5SM/IgCPFiY757Rk8WKxir+ttjV3j5j5qekCUK4PaREUIqY2hoB+hcBgBOrTp8A6HUVVFQI3kDRAMBRDWgBwVMKTMCSIPJEbHsrJy+GtrWZGu9QugR39IntGzhEtMjI2oKqqdMnopcm2B0g6ysD1U4Wgo0S9tSnn4VBx33HFcHrshJT2S5mgYw+tPx9uwcQNTTBLrFL3tkosvZmrLnOycRmXGhx99yBWu6JoyZQpefPFFsSBaXRfVm1I3zVEPsDC0CKPV+q5PACnybgOU6lUILj8HDmUHwhT9fOA9sLQ7HBXfnAGPulkrrcmha2KDKSqqbR3gOuRdwNndFKvQ6NDVuUHHM8m2IJhf3FoAgTSWL/77BQ4bdViUi+nQQw/Fsu+XoWfPnnjooYcxduzJvAGIa53+Jr70gw46iNMf1/+y3kC9ffr0AYFWSp+lDUhZCXm5uXjn3Xfw+ptvwiLb8P4787B11TyceUQF0rEaFqVSg/Yywoodi9fbsbqkFyZf9yJsKdnw2O26pdV4T3FxEb+bTJcbNm1kxC4RgIAEK8LobbfhvOxMjPN6wPUiVRm1VhnhYYPhOPtcOIeNhORKgbKvEBUTJ8FduBM17nSkvDYX9p6UwpnA2jNNiBnTJmJ5aAggtAYgiF2kZEHYVRFER82CoB9U8Va7IeT4Jv0Y0vekUFhEMPAu1K6bAdv+j0XcgcE/YQO53ULEQ2F1Q7Gmw+LpBtnbHbBkISR7IEs0V2GowTKo/p2QqncgWLERVmW/cAmaLEyUmkoHIr0zLGcDru4IpQ+HPXsMkDEQYXgYbOwvrUR2RmqjgKvxHW7YS+LeylkMFHhWsg9d8wughETMhGbPavTx2rFnKIoRW4w4YPRS1/qDzLYaMSUkxxKxdde/hqNc73EeRX2MtfIm9s5Gu2/cwPFM2k8R224kyiQCXAjcCKKjKPDDbRRjwYcz/6EzWwAZIwSN1454l37CGX2J0/fW7qfoosjdMKwSxuSKmC5qLNWXIO6Ihi5pa6lfJT+hvoHjuUD0Yb3qqr/jiSef4HsJqRHKIZpaKqNJV6y5xPzieW+9hUmTzuIBf/qppzl3PTL4DX0z8QUQfWc0QNBlj5H+ZBJGovGJC2gSHMFfb4Z9x9NcfMfvPQKOAS+zhlq1+GR4wr+y9hm0toPsHczpVXLpl/BJLqQOeR/wEP0mrazmaY3RAKEGme7kBy5x6pNmQXBRKlIi8iLO1BHxyA3TbsCt/7iV/9BFaJhiDMhiQBkJ1dXVbFGgaGOq/261Wth0OnfuXFw99Wqjuh19l2IRfvvtVzZj3nrrbbj77rsMqEum0QnHDsYlY504uudGWIkCmfeOhJqAA6s2WvD4W5X4ZV8BPvxyERzedPoVvHZh5gyrCtavW8cplRRrQ+ierdPE4Q6AwhQHuFJwTmYaJrgzkKGGGa37LXYEe/aA65KL4RwzGordydktFD1f/vQTcM55gqtG7uo9EJ1ffh6qy91EeBC9XBsDCEIrB/b5wshyR1sQIodD3fXf8LHV8L40AEJaxGTcWDsNdUgXRsaeVKEGN6P2p6lwVHzH5n1egNYsKO6urOErKQfAJx+AtIJhkG35gIVmh9wIQkQqakRgipaTQC+FWr0WgeIlkCqWA77NkIK7YVVqDR85689MeqZAkWUorgGwdpiIcOoRqApnIy09W1MGmiuntO8ZmRqGJDfEErWBfOZr1v+CoQf31VI7VciSzHtHv0QcgA6ydKQlwW6zgcoak4uAiOnIHUDavJX5Pkjb1xj3TFp8WDtE9Bx/NRzmQ1Bo8QqCQTJ317K2S9pxRYVwZ9A9Qsk1zIN1AEhDoqPuKkxcLptnoOETJXIk60/XzyLDQhRHwEXvB7Ps1qyahkXEmBETKIuFXZHW6jBNTJ24rz7QoEU+adYAkVXAVhKvFx63GykuFxwpLtjsTqQ4nbDbrHA5nRg8eCCGHTIMD8x+AF98/gU/n+II33rr7QZlj7R1v1/tmK4FEomWGZfuP6EPAv4A2ufno6yslIU5+Z6Igapdu3bYtXOXMMVqARKxW4VMs/fcex9uvvlmbszKlT+gX/9+BnkJy2xDia87tbpJTLdOG+ivwUMqOs1RsI8JX3DsQqq32Ens83nuyCcaQmDDdFh3v4KQJRv2wS8D7kOhKpWoWjoBqf6VnOdekzYGKQOegxwogW/THYA1A+6es6BYshIyKJvHP574IT3CV12LDFcTKuaZ95s2X4ZFthEZV+0PQZZJ4FhYCERvkciSFp/HsQ1JFCtwBL759ltenG+/NU8YkhWVq66VV5QymQn9TKj8rElT8Orrr3Aq+5133sF/yMTodnlw1JFH4oMPiUdDwtNPP4n27Qow4dQJOLBXL9TWBrBtyyaM7g28dEcBclMrtQ1FYt6CQEpP3PWygsdeWYPDjxqNF156CZmZWSjz+2GlGAubDb6KClx00YVY+MH78AdEtorYHjJny/ezyri3WxeMoKgFKgMMBUEZKHF5kTNzBlJOPBmSQ5i9eb2qQO1PK1B5/vlwhwLwWV2wPfU8HIcMZAKVuFBR2IRbfEUAQgi5LqsmwGmFRhZDJINJ0ykNTZ4WiSa0TH7fxhpFO213ZRAdvSIGod4rarsbQoAXl372ScoeVH9/AVzV37AriMG391A4+zwAOLqKuBGLjJ2F5Wifl87lwcU7I4On/4vHWUuPjBYEtK+roFSsQnDbXKB0CWzqPo4tIsuDxI0hYEwuDwmqnIIK50FIO+g2gJQAXhXGixO3CHGhr3iXGHeuM6GlOX6xaBFOPuIo1ufp4F696ieEQwpqA35UUWxB6X44UxzwetPgdqfA40lFaqoHrhQ3rDY7LJaI2Z9iAWJTCXmdaj762kAQYUmCyyHKC/G4McgV7dE1aGIBIlBAAD4S/1DLfnL6Q8ChuHgv9u4txq5dO7CvZB/HO4hQz8hzaoMBXo/kwmTp8fuZYbc7WRElmUD91asnsmZPUSfBIHxVPpSW7UcJx1Xsx77S/cySShY+Wuj6O+jfBKjYFaDSHxGYylq2Zt4Q4IDikcTByy4tzniheae/6XfkZoqwNOpWBB43ru2i11WhNkoIaym1YoYlVkDYIsMMq7qFQnsfuWY08EtEgmQV7dipE5+xRANNad55eTlc8DAtPZ3JBj0eNxwOJ48PW+Qp9VuWUF5Vi4w0F9s4OWJMMyccfviR+OabRfzj2WdPYcusYd3RMZ3pHJe2lAXVAq81IqDoJj3Gx7R5N2/eigN7UNUqBffcfTdeevFFbPp1E1JTvfh10ya89BKlmwFXX3sNk1OwUFIBismgLKOzJ0/BvHnzWBvcvmMrctvlsvmdMa/pPbpZJGrLmA+1WPxg+lksBiHGaYER1TJnMdgiYYH1ySodeUcQJCua2qGgxzwJaEIEOGrNevh3fwhHam9IucdAlewIqUEEl50Bj+9rnvygezCsg99B2OqiJCrN302lAtm73ZiMbVCmkkbhD1MwkR/pKY46T4vNpon2PzX91TSXvkAIFllCisXCY8PjbZowQzzGDLIWU8Rf6NyhM/YU7sY555zDLGQctPQ7Vepjcx7Hddddrc2fhLz8dpj37jsYNGAA7rr1Njz84GwWQLRpHnzwQVRVVeHiiy/h+ejWtQs6deqEbdu344033sBDt1yAs0ZV4oTh1bDLBKOEKPA7esHS+XJIOWMRgIeLuFC1N0kSgKfCH8ba1T/ixaeexAfvv4fS0v2ijrom7ukIOLZ9e5zjdONIpw2eMHl0gYBFQmDQANhPOwOOI4+A5E0Xfl8toJHeT+Ch/N/vwvmPO2BXg/CdcQYwfSZSHBTZLNYCKyAxEdyarKozYcJMaL7iryeeE22uSqrDyE6hIEUx5gYoqP+Iisyx9rp4bzFaYjrfwypQ5AuhvdtqvMfQ1kxNj/WHC3iik0kBFtUPZcM02He/JDzhkgOBnPFQetwFiy3XYLykw6yopAp5WR7DbqBnNbKxjuMYxBjTfJI7aunS71FVXc3EW+YKyhTwKAX2QilfB6XyO6h7P4fFtxEWiciWVKHM6KhadkPxDISSfyqk9mcgBK92uGhwwTRgROpEfYiXEmk8MmYu+DDWYgeeePJZXHfllUx8Y3c6UVFRCQsV+tIufVj1Zxmv1j4wMnLrm2+TvKupDYLIp2h96uuf1xKb1M2uIM07ox8upt+ZloOhUOhyludEnJn8d0VlFex2B5yOiMXJvMQND5Bp6I1+688yfUAggPaIogjLRzhMQCasAZkwamoD8NVU8wkUDgaZdtnIroDKcQP8GVtNVP6ecDtQrITMoIXiFmhxUwloAjY0F1aLjWUa/2cMnIzaQBg2px12K42nxCW7KX5ExE1YYbNY+Zn8bKt4nhHQaRpIlhGaoNVCMcTa1edY++e+qgCydCZFTabQbYcMHY4ffljBK+qCCy7Ec889R443o4qsRjEmoC5978c9PjXdQT5XUQKXzXGakZZYpmhR04Lc9utGHH7ooVDCIeTmZHOELEVNChOHg7UsQkVvLViAQ4aP5DQgErw0RlZVwZijj8D6NWsYyf6yZRucKW4OCiJBIvofEZLiiI/2ytZ3sJsj7XV/j26tC1LgkQTYWQvQkKm+CXQgoeu62grUYkC0pab53rQ26hq9pMUhSGoQKpygv8knSgY7zy8XwO37hCN//a6eKO+5EDXwQtEI1EWgmz7WDYOE6FgJMQK6sGd/mWxBba0fTg6wid71dQ4Q8wAaaEj7UgPNMCyfsgS/qnC/bIRUGVlHao2LSSSUbppL0yjyXlEVdOvYAYFqH6bPnIWrr5vG0oX8vYHqSsx5+EGs/flnpjmdduN0pGZn4sv//hcXnT2F192BBx7IUdSrVv3IZlKKUiaxT4FK9997F8qKf8P+X17D7ZdkIdNdqmnuFoQtWQhknYyadpehxtqFtVAWIKQRkL/w9/oP2zZvwXNPPYF/v/Eqan1VsMDCVgHiOsxxOjEsMxNTu3TBwPJyuEPE1S7D50hBoO9AWKaciaqB/RG2ehFi3gaFWRJJELAGSGWcLBLSyksRePM/sDossE44BUWpWXBJ9A49IEykgNHOZCFjOrWizJCmMa4r62N3ijiU6D9ic0slZjkSfIY9jQLz9KA0Xa8TkEqfSSOOxpAOjb+VpGN5jbBukRam+z31LkXWqwZW9P2vCTMKr6JKmc7SBUjdOh12yjyhMc88Gf7OD6JGThdaoESMlCrCkgWVvgBSXZSGqpnaNf+wLtOo1ZT18sV78/HA/Xdj9y4KJlYx9ZrrMW3m7QjL5CKyCZZL9jfTDIZhU6vg9v8A67734axajlDNVtjUGm6f2DpEn21BueNABDvOQiD1MCgSWWWFA0c4pAx1yIhLahzg0VySlKT1pOLqv12O+f9+mzWvE08+Gc+//LJYxzR/Mq1UMWrmywBculFFk/yRu+Jb+oJhFQodYLwOTBJaE7j698nXzmqe+bXaya9bGqg9gslWyz7gPSJaqdsdawIBLpgkkir1XxpvYUFjbAcTkOFn6K6VeoCP+Fgn+bEIGapSzArg5NcJq4EmYYUc09GL9kyePUMYarKPmFG1//T+iEBLzRJDsQlaRGOQLQukGGpjQe/VZGik2ZEYCUMDMzahpj3QOc3vIBNbBBKKloiL1m9FSEEqM8JS2j39lj5VcdSIkfh143ru/3kXXoR7/jmbU7aFnOKZ0oZLO4+3l4XUDmlCg4pdWNw2bcNSRwcPGYKffvxRy+yPXd4SKHJ03bq16Na1O5SogGEV3YkDYcdONoeUlZfBqiFfsxm9TpBKPS6L+tYBH7662Zw03qBKejvSHKIfscidQgDqKGLaw2PbEmXul/zsl5SIKpcrrQk4E1SB0MrzkVL2ASzEopjaA5ZBXwBWCmoyL4Nmu/CjYokpSLGmxo90V10LQrwxMu9h0zbUt0/9lmBtbfiCRE0qwWUTJDW0vjWrY2RpxZ5PJgxS6/MhLc3LB+jsBx9hOmU9WFqTFqD0Iz4YLRJKKqvw/LPP45Zp0zD+lLGYMWMGRh02ilOX9K1AryNhft05w3HLeRZ4wmshy8KVpMKOgGcgHL1mwp86EjaJzHBUaVFYuHgzhRTceuvteGzOI/D5qrTPyb6jwA0FZ/Tojr9npKNbVSVsijgQwpIVpV17IfeOm2Dt3ReKLYXbzFYV7q+2Xc1joSNeQzACJX4FXqsEm5mfvb7F3Qqfl1aHkemwCIupaKbQ1jUw3ryImLoNo+eRsCmsCqOd28KhNtqwiLWmW58McWRuhXaQ0OEcLIT/hwlw1K7TLEDdkDL4Tai2HppgEquYRpsUgcKiUrTLyeCS3XX2ugQs+345Jk48DUWFxVBCtGtFTP8ts27BbXfeYRxN9FQ+CyhIUTsAhNVAAcI+qBXLEdj8IOQKckNQzQIyw5Mfn2py2OHPm4SUXrdDleqWfeeeNqQXxLju9NGl1lJxom+/+ZZb9K/HH8dlf7uUJ0/fyyJewrAma4JeTK55n8bGghiWK61d9Jzq2gBgscCrUR/rmr6+pGO7ENWnWBmgdyLmS8Z5S/ExxIPgcMBto5x07Qv1PCdWGTKsEY3sET4ftHgOUkzLawPITdHeF7M/4wlFI3shjgNJ/x29gMZalwU6J5eQnRakWETKrNkiogujxlzKvC61dOtoB68my7RDnp5fVB1Artsesf5oY9mte09s3boVihrC1ddci0ceflDIStP5SHuJ5Sq9b0dZQC0gP2GMMmkgItOh+/OaNZjz6KOYP38+51XSRWaRo448CsOGD+OqVgMGigA8wYAnGk5+mA4FHbC3eC8O6HwAuybMaFBfB/WZ3ox5jwMYYg9yTe5xd6pCKrsYiAeBBVOM+Tbe+mtk7xrrRn+P/gE920/m5hXnwFP5CTO4KZ7ukAd/CZXSGnWhE2dxNVX26yAoQCDIV40Mt4s5xRu+zL9v+lFA364MBNlHT0GK+n7SfVtilUXAf522SCr2lexHu7xcRtUPPvQQpl5NACE+CqRFupeEhs2OHZt+RY8e3XHHHbfj/vvv50dTkaXVP/6EgV0duGGyFyeOkuGxklZHODnMXAZq5/NhzT1TpKkZSEToLBQI+dILL+Gxxx7Hr79u0jQZ4jhUcYDNgdOzczAhPQ29SDdUyWdKTHsuSCMOhXTWOHhGjALsbo6jYYsSTzD1X7cG1CdKxa30271+BWlWCXYSGnEmr7EZTWjdmIaXXAy5KQLcieWNFCYAACAASURBVEbU08aG1lKCwbwcg0BZDKYgRaPj5oabAL1BBMEWjRqENz8Iy9YHWSiGZC/kfo9CyqDS37pWLrRCPbKosHg/8nIyQXjL6AJX7izn4Na3336bg+p0ywxZoWg9UblemaxwjQ04Ww7FO0NqLSp3fwdv1XtA0QeQQvs0kEAR7FYE00bAftADkFK6apwLugDQ08gbkjR1Z5b89kQdrMvdBQsW4KQTT4weUhPqb9rTo99HB1VVbQCqxQKPzRJVx6ZegGB6RH1LJN74siJNAKGqSgMIjRAladp5bGxOY1NnbE/tfXRwl9cEkZUiYiwEzIw/ajo3gTBCmA5K82DEAxjaSxlwBULsXicmxfrmJiGAEHfPRhqi/6uwqha5GlGS+X1EkFRYtIetb7fecituu/02QwzEaxcDhA6pNoPQQUfPsalP5p+rqquQl5vH+ZmTJ0/Gq6+8GrXC9LxWHRkFggHk5eUxUcOY0aPxyaefNl+FTkgqipvIgqATJfFc1WHoMo65Jjw1zq3ayicw4l8xBamVH7I2oXh6MkBQNIAQoWKOBH4158U6QKilGlE11chyUYxDzNUICm/qe/UsBjKtu8mCYN4cumBqaJdKKgcrUaArmbf++cADuO6664SwjvM92ix7KyqRnpoKB525CnDiSSfi448/glWWMHbMIIw4YA8uGeeCx16smS8tUOQ0BLKOQUrXqYCrjybQI9welFu8dMlSXHfdtVjz02qjJoJDUnCww4Ep2Vk4My0dGWHKWVYR4mDTdIQP7oe0Sy+AbfAgwEJCTOD5RFaQ2Q2mjzt9T7cgOEjlTeKl+7EpiyHXrc2d6TBJxqs5i6FcpDlGx1XUFcR6NVTNJySM8ZVLEVg1GfZgmYjnyRwLa78nYaGiSvpBrTWcw80kYFdxMdrn5LCZWh/RpcuWYty48Rwkp1/etDScMvYUPPzwQ1wmuEmXpv5R/4goKTvNA1vNagQ2/RPyvs9gVYl7QNB0B1KHwnbwY5BSupnsNBq3Q73HRPzWMGNqZgZnjtGeIaIwCl7jnrbyXNJYUi0GAgikDND2SyaVNO2Pvb4qOO1OpBLVcjOZFBOZR9ZhNItKRU0QmSmacpwIwkjkBXHkMK1PXyDMJEk2jk9I/rWnqhZ5GkAwvy07JxulpaUsgwkc33DDNJMLqW7LpO0aQNADlhpF0QCWr1iO4cOGM+p6ee7LzGtgvmIBAmlr6RnpHPTBnPovPN8q0dkND7OKao1JUcvirLvIYwRNi6ZNEtaK2hVnwssAwYKwpw8sgz8CZJE3bdaQWvIuHSCQxYIqY2bEo19NBkAIkictDkCgziSwwUpKSpDXLo8tCPfdey+mT59eL0BgDbuiEmlpqXCwmgGcddZZ+GLhPNx6cWecd6wfrhQfa+9crUxy4Le97dDtpBcgpZAVy2EE3vBYS+BqkFQPfvXqnzgCWjghgKFOK27s2AWHy1Y4yagsEbWOBZWeTKScOxEpEybAklcAiYCBFmMgfIARc3Ei+yZ6jwD7ahWk2iQkGyDQexlwkQXBbREVjs2ae0sWYz3fpfnbUeZHxwxHnYyX+l+nm6D8qPllJpxFL0BSZPhtHWA/5G1I9l7iqxxwGGE3pI/I4rSrqBj5uRGA8Nbbb+HCiy402DbpPqJ5X7ToG/Ts2SNSyreJ/ecDRgKK9lciNyNVi/CvgVT1NcKrr4c1sFuAR1VFtXcw3IPe5AqvhpLJ5eGblua8YcMGJqaj48Wb5uXqhRThz8NRD8huYreM2xkgBPyAbGWAQNsv+QDBB6fdAa+1ZQRyjfVZF1O0BcpqQshKSe779L1XFQzDJcus3IjLRC/azHT3hvq62+dHvruu65lYMOk8JgsCVc294oorGwQsDBDYxdCERUB57A899BDn0X77zTc4ZOghDQKEXbt2oWOnjrxppk+fhvvuu88Yo8YmtPm/J4BAFgSZazHolpGo57UWQNAipIOqhJrlE5FW9TElIiGcejCsg3SA0Hq4UQcIxK5GNeLbAiDQAFYRQNBcDFEWhATAAY07ZR4wUPw9LermWbNw5x131qv9UB/3lVchNc0DOxmRqzdj7Vd3Ic33GQqyazRlUxXBYOnDUOkejyrLYBR07ScUKka8Aq1v2LgRDz/8MF5//TXO2aYDJkUFhrncuDgzC2M8bmRwwBtQSwh/8FDIp46Fc8RhkLmYi3CpsDA28dAJq1rz5pWe19YAobg6jLzWAgiNaK0MEMr96JguAAIHbsVdJxEbjPhXGAjvQO3S8XAEt0JVbAh3uRS2rndG2P1M7joxKSGEYcFOslBpFoSvvvoSZ555JgiU0kXxUf+4+RZcd/31cKWImJHmXhx3RNTVGkCwamH9HNNQuQyhddNg922EIlEQswyl3Vmw9boPqkzsnFw2p2m8K6qKx594nGN26OrYsSM2b95sVDOVyALVCumw+njoAIGKlKUQfbKkoqRoL6jKKpHlUYA6keMR+OrZo2dzh9H4nrAgtA1A0F9KFqCy2hCynMkFCLqsZoBgkWE1onRNE9bKAIH20W5fAO3dgr5Av2jtORwOVtQJvD7z9DO4+OKLG5w/AyA0BSGSFeDlV15Gx46dsPqnn5CWltYgQKBynEMPGcr3EG3uTTfe1Opmsbq9FACBgxTt0dqGcW9rAQTNbBUiDvMVp8Jb9RlbDEKe/gIgMGlL611mCwJFZWe6XXWFbytbEGilUQwCZU+4zURJTXhPKBxi9kTihL/8ssvwxBNP1Kv9kAAurSxFqr0K1j3/QWjHk7AH93BkuSJRQR474O4LFJwLa/7pUGVCy3oOlhDDJXtL8ORTz+D+f97PJaIpQJG2TG+HA1fm5mGCywsXBZlJYYRTXCjr0QeeCy9G6tFHMG+7hjTieydbuHb+zwMEgZbEFefgp492agBBt7TUZ2WJuC/pWwrCu1+AupE4U/zwIxXOwfMgpx7CVTWjABnPgQgepCwC3cWwZ+cu9OjeDeTaJEBLsQavvPwKTpt4moh5aeFhqlsQiksrkJvu1ZgU9QwQCWrVDwiuOge28C5eq6pqh9Trn7DknavFllF2WNPigF586UWDXI7y4bdu2cp9oQyR1gYI7E6sJQuCBcHaGrzx2quYPu0G5vnXs6MIYHXu3BlUPTU9Rv43VdL9lQGCPhaVwTCcVpkzwJJqPSDzoCobAIHNhUwnrzIwIIIs3cnx/Asv4Pxzz2t9gEDsdnfceQfOPvtsjBo5qs4LYl0MxKs/8fSJLFEefeQRXP33q9sAIADVQYUBglcDCHX99CYbcVNXdcz9rFUoKvzLT4W76nNWmUKeQbAO+hCwuFr49OivGwBBFcF2bQIQKFeZijXFAwiaCyCRTg4ePBgrf1zF62bRoq/jAwSJ8perULttLhy7n4LMJluKJyfLgB0BRzfYD7wRSB8NyUIVQXV1VvhjKd/5xRfmYsbMmRzURS4N8gr3tEq4qUMnHOeQkU5KnKIiLFvhG3gIvNOvR/UBPSHZ7PA6KXUuujc6YY1VO1xiY3QS6bv5nj8KIFBWgW4E4bM1QetPvf2rx5JAw7QrEYCgH/I62ghXoXLFafDULGNB6ksZBs+wd6CqelEdbRdzw0XjKYGL3re7qBjtc3Pw+GOP4/rrruEcdhKIX3/1NQ455JBWo3XXAcLe0grkcDVH0Q5Bw0tXGGrlVwiunAKbWglZtaHW2R3O4R8DcqaW40ELMHGQsGTpEt4zJFspWJFiEDgQPBkAgXzm/loOwD36iMPxw4oVhluK+0lpcVq2EaUc9+vbt6nLP+r+PwtAoLT9a669BkVFxXjllZfhasVKjwQQUogngU1pOkKt35KkB03S3xQz8OqrrzLvxcgRI3DY4YexeyxuYKUGCPZUBZHvIc8AvUukEZEFl9xTnFiuqnjj9ddx1plnNQwQdpQG1PZpopJc841uMQeYlsWgaxZEx3zjjBu5YU89/TQuJYKbVg6siddLAggUpKhbEFqrf/HexQeIoqD2+1Ph8QmAEEg9BPZBCwC5dQECK21kDteqOWbFsyDoGl5LDwBTZ+MChCaKhvMvOB8vv/wKvKmp2LxlM/uEIxooAbYaKPv/i/D2J2ApXw5JDXGwoCKTy2YIpIIpsGSNgWTNNRa+3gSyUHz4wYeYPftBLvtMJl/i4OjncODirAyckupFNmWvS0C1zQZ12DC4Jk2Cc8QISLYU7A+IfOE0SgWMl8qkvag11tEfARAoBiHPlYQgxTiWhEYBgibIxJBqQoyOVt9qqD+cBItSTnRAkPvNgZR1lrZGxKzo8VIif0F8RpUxyILQMTcHh40YhWXLlrKfdeJpE5mgTTDUtc7FygDFyJQJC4JgZ4yCqXwIBH65Ebbdz4pAWElCsNM1cHSbqfEiNM09tbdkLwclkgZPtMkcg0CEdGHNghDBS63SyXUb1nN5ZCogROmH5517LsaPG4++ffvisssuA9XWoWvNmjXo07tPi975hwAEslBWh5BtikGgMvJDhg7hCpezH5iNa6+9tkX9Mn85LkBoACAGQgE8+vCjeP2N17Hm5zVMca1fXbp0wb333IszzjwjDugVeykCEDQXngSu4pmdSxKQAIKC/7z9H5x66qmNAQS/2j7N3qpBKLEWhGnTp2H2g7O5Ic+/9BIuOPc8AUZa8fD6IwGCnp6iKmHULCPt5wsWWv7UQ+AY9H5SAAL1t4aplqtRH0CIeHdbZ503BhBIeFF8AVO61gM3X3/9dZxz7rlMTkKZDNdff70wW5Kp3/8rQlvmwLL3fVhCtSCOZUVyIejqBVvnSyDnjgMkSi0UTAN0cYKDouC3zZvxj1tuAdX8IO3fDgWdbTb8LScHU9K88FCMAWWZOO3wdesB75VXwHXUEVBMhEZlfiJICSPdEd8vSfPcFFdcQ6P+RwOEllpA4vbNBPqbBhC0pykhhErfgvzTlZxHHrTnw3rIR5CsFL8kKFl1uiFda+dvqgL07SguRqfcHIwYdiiWL1/OAmbK2VO4hkdLYg5i+2oABHIxZJBGFh3jJOQfkZRsQs2KM5AS3MoQKOA8AM6hn0O1UVxL4tYbyvII1AaQlp7G5HSUWl5cVIyMrIwIQNBxVitsdSoX3W9Af2zatAnt8vO5sN7xxxzLT6asEOJjoEOU2Et//PFHpKelt+itDBCqfFwzgErJt8VF66UsBiCsXr2aLU3kmrr8ssvZBdoaF6eNBsJIscnMmKGb/Rt69p7CQnTu3IkZHEnZdDodDHIpc5DkJSlWW7Zs4bIH8a7dmgXBrMxs3rIF3bt30ygIVHyw8AOccMIJfzxAmHrNVMx5bA5vozfefgtnnjaxDQCCCp/Gg5BsC4KRv6qGUbX4VHj9/9UAwjA4Bs0XAIFNqa2nxSQGEOrP7W3Owm8IINBCvvPOO7HihxUYOWIkrrrqKjZnxYLA7Tu2o1u37lCUILp2647vvvsGuZkqAtufgbT7ZcihveIQDjvgtxXA1uMGWHJOEWRTHH8QaTkNaXlZOW68cTrmzXsD5ZWVDBgOsEi4Ia8dTvN44JGI24A0OBnl/foj9fpr4OjbF5KD0uUoE0GrFEimvFrK0VCQ5jQxCZmBTpTW25wRjHzn/3uAUOfUpQ/8CP96M7DzBeYm9HtHwDHo34Ckl3KmeWREEBN8RZyGwM6iInTKzcOsm2bg/gfuEwG1Lhf+9a9/MbV3a1kRGgMIkTTMAELbH4a0+S4mVoNsh9T/CUgZpyWsHOnuRPIf9zrwQJCQJ/j99ddfMWkYuxiieaJbtjABfP755zjmuGNhdziwfv16jjUgm1phYSEGDx3M5Ynp+sc//oFbb721xa4b6mOxBhBSW1AILpGO6zHFtF7KzQBBAlatWsUAgcaaisbNe5NqxbTs0uVVFEBI4JEEwG75xy28fo8++mgGYyRL3/7327jpppvYAjDn0Tn4+1V/r/s0VQQp5nuigxQfnfOoZhWhAl0SfvvtN3Tu1LlhgLC9zK8WeO1JdTFc/rfL8fQzVPlQwoeff4bjjh4toppbGCzU8DirTJREmQVpDqIGjuNCaWGgmfn9tBAoArvyu/Hw1n7FqM/vPRSOQe8CMtG/Ni1yOYE1lIAFoW0AAi3mSZMnY/78d41mUyDVNVOvwRVXXMGVFvWLzP433HADHn3kUXhsCs4b2wUzL/Ii27mVi2BxMRxbPsL5k1CTdiY82Qdx/EDsRUVann32OTz+xL/w2xYqr62ig82CSWkZuCA9FZ2solKdX7YgNLA/7OdMgWvUoZBS6LChXGtD7zPSIUv9RHsMeHWAEOUG023IAqG0VANvS4CgHzIlbcyDsLvBGATzeOq2rhJUL5sMR81ypoetyT4DKX3/JeaLi6RRWWfC2ibTowYYycVAAKFjbh7W/bwGgwcNYrOsbs289NJLcfdddwuXVguveAAh2rIUMesqlYuhrhoLCxUoklRUpx0F98C3fw/X1tjbGmlLBBCrOP74E/D5Z58xwdVzzz7HWQRRRBytZJGlA/LTzz/DsOHDkcbWAUEPeNhho7B06VJu8bBhw/DVl19xVHxLr2QDBKZi1kCUvhcIIFTEWBAWL1mMww47jDX00aNH47NPKdi8ZZc4FygeLgSbRYa9ha4ucqOSbC0qLsKJJ5yEDxYujNvAPVUBtIsBCP6An5MENvyyAZMmT8K4U8Y12jlJBwitZTpl4RkTgzDlnCl47fXX+NBctHQpRg49pA0BApDmoAI1cUx6RkJ4y73Kwi8aQOW345HqX8TaaXXaYXAN/LcACDp0bXRKEr+hcRdDcgGCVv4GxcVF6NPnYJTu3w+3x81mMBIytDOuu+Za3HvffVwvQRysKsKqH1ecdSTOOKQQRw0ogyyR8LRCkZ0IZhyBlK7TEfYMxL7yamSmeWA1+Vfp2Yu+XoTLr7gcO7ZvZ80mQ1Yx1uvGjXkd0JmD1EMIW2yoad8JzssuhGvCWK6/wI4PnigzWIs4Yvb7KTlViQCERqaiJSChrQECdWWvGSAkvsyadSdloewmHoR0h8EXER0Qac4DFxWUVP8m1C4ZC2doD2vb6HYLpI6kITVsedMP7F2FRShol8dg8YMFC3He+edz9Vm+KOq+UycuI35Qr4Na5HKIjUEg6RFXftIvwqWo+v4UuP1rIClh1Mq5cAz/DJKja8LjKnjyVVxw0UV49aW5DJDIP05+cr3yoNhcCT+y0RuriQdBsnC54KDfj9FHH2WAA6oi+PXXX2Mgs+a2/EoWQKCD/tfffsXVV1/NdVwo1VmvrioAQhDZRJSkXfPemodJkybxTwMGDMDKlSvFb1o6riqw9IcfsLewCEcecThSvWQNbd64kfwjygAKvib3GVVjjL3o0YVxAII5ljvR9ycfIEjgQIh358/njb58zWoM6tM7Pi9B88asnm/pFoQ2BAhqlQAIQULZMqrSxsAz6HUAEQ26NbvYGEBozXfRs8jFQGba3Vu2YMGC9zBkyBAMH34oiooLOR86EAzh/nvvR25eDq6ZejUqKyo4LXLmjJm47Y47uDgSgnsQ2vQIUPQOrOp+qFIQChXI8fSHrcctkFKHAVY3FFVCSXkVMoipjrwziopvFy3CNddei3Xr1yEU8sOlAqempeP63Dx0taisdYZlC6rbtYfnqothH3005NQs4UrQiY0aCMZtKkBoyfi2JUDQ20k8CAaTYksan8B3CSDsKQ+gA5GQxBWGOjDTfkmgrfwLhFZNhFUJIShlwjbkZcBzRAJvE7wEO4qK0CEvT1icfi9o9P3y7zFx4unYuWuHRs+swuNOZd/yOedMabaQjrUgaHXY6mlnADXrZsGx92nICvFp2BHuPxfWzOMT6hd3RSOC+nrRNzj2yKP4k5ycHDb5J4OXj2aEAALzINit+PSjTzB27Ekc60PkTOSC0DXt1nh/LEAgK2NT00DjDeYrr77CFkyfz4ehQ4diyeIlgjtCAgKUtu2LBgjTb7wRs2dTrJyK3n16Y83qNa1CQvXL+vUYNHQIK07Dhw3Dxx99XIcaIJHFQAoZZQA+/uQTbEWiargXnH9BfIDgC6BdDA8C39jE5ICkAwTq1EknnoSPPqH6BBLWbPoVvbt1aUOAoLkYkm5BUCEppQwQPKFVXBOgMu1EpA5+CVDJnNg6pmnzamhzgBAIMl328IEDsHv3Lm5K/379OZp21qxZ3MePP/oExxwzBt98uwgnHHscagO1yErPxOrlXyPHvhTqrhdgqd0ASSEML0GxdQA6XQo5/3TAmqd1T+ZiX/srfVwp9NvP/4tnnnoCH3y4gLUnryRhjDcVl2V4MSzFDYeigHgRa9p3hDxxAjwTx0HObq+NObEsanU+Od4gfnAYfV5WK1gZKYsh2df/AIJWx4+tOZTCakGw8G1Yf7mE5zhgbQ/boQshWbto1MUNzwgBhG0Ug6ABBLZWkBVjzx7cftvteOmlF5mmmC465G655RbceONNXGo3UW1Kb0HDACE2NFgB9n2C0M9nMw2zqsrwd78Xjo5/SzhrjJ4Y+H/sfQdgVFX2/vfetMwkk4RUktB7k6IiKgpiA1FBQVSwoNjbrl1R7LK76KqIbdW1C7oqTbBhl6IgXUA6hISQRkibXt7/d859b/JmMklmUvC/5f6KwLxy363fPec736H5UFGJzu1z4Pd5OE1wraMWZmNsrgp96zndTmz5bQu6deuGjHRBmNQXep/D6+VsjpRcqEfX7igooMyXYG7R448/jr179qL8cDlOH3U616UlpbUBAlkOXn7lZdx5513w+UTGYUr6RhFUmuikV5I4+2cGJWtSC3E6Vq1axX8j1UqK0CBWkpZxUv+N8QCjQ4eK0KtXb04vTYNt/PnjsWDhgrjB3dN/fxr33XcfgxaKaNm9ezesCdZ/f4BArFdCv3T6/D2/AD06tA+FBrVkYDV+r6akqIY5RmMNt5SDoEq+inoQQChFzYoLYQ9sZYRX0+4i2AcTE5b8dC13Y0R+71EHCD4fdvy+HScNGUJ567g/w9NKS9i2bTt69xLZ9j79dBGmTrkYJ3Q34dWHe6BTehEMkuAZBOVk+DPHw9zrHsCQp35a3eLq8rjw04pVeOihx7BxzRooig8JUhDHJVjwQE4HjDBRZkYfC9G47akInncu0m+9AUq7dIAzbYo+0RKyir+pADoKSCAzbtV/MEAQoWRH0YIA4FC1Bx0olWos5lQKPS14DQm77+U02wFDZ1iGf8cSxbHMHQ0gdM5SLQhq71O/04JKVoN77r2XdUNocSeSFoVfk/mZN7hY6qiNUjXMkYWS2iULFxi/SMtdXxf3yWMu+Du8y8+AWalkZUhv17th6f5wbIJNapZfD8exO9A1rwNqayphkA2sEqmJ1MWzYVGsPxHWKPqAzOhdu3QNBwhaLgbJiAN7dmJg/2M4ARr1Q4cOeSgqKmKLHi1pzz7zbEjhsblreWsDhM2/bWaOBHGjqI4vv/QKC7Npp+c6C0I4QOjeoztHBlDp07cPftv0G0eMaMmaNKDAKZ116zmtgaVlpWwhIJVLuidyPP31b09hxkMPgiLd+vTpg7Vr18ass0DPf+TRR/Dkk0+GmphCTYlPkGxPhhwlauyQakGgbw1zf8VrQSg4opIUm9u7Ue7TcxCIbXniiSfi17XrYDaZseNAITpmpwszYByTsjnVC9NBiCOsKJ53adQC3pCChahdMQFJge38iJr0K2Af+KxKSFJ3pXi4CE0AmD8CIPi8PuSmpcHn97Ky26effoqysrJQk5WWliODiGCkTli7A5sWTEKf9kVIMJJ7woQg5UjIOBVyl3sgkRKiTNEEWjy7zGFclC2UJsOunTvh8/rJAYHh1gTck5WBYVYLrJyiXoLHmgT/pHNhv+oqGHI6cTrVusT0ImqESUKshyXgAVMTdeNO3x1HPOSmCCJZ1UGIZxzEe+3RtiAwQHAGkKlJLasV1khwrclBokezcFF1Yy4GXYup+2ntvmdg3fc490/A1Bmm4cuhGFJiinjyy0BBsYhiiGb/oTXp66+/xoUXXsgLuSCtSXj33XdY8E2/FtG1tAnm5eWFogTo3w4cKEBOTntWZiT7Vz2A0NAgCOyEb9UZMPoOQ5KM8Ha+GeYef4sNIKjLJAEEp9OFESeehK1bNvFIXr16DYYOPT48kiGGgTh79mzcdbcIL77xRjWcL2JO1HhIhdIIV3UlcnOzEfBrOTPDXzBixAj88MMPLVrLWxMgHK44jL59+zJ4ojZ65R+vYNq0aQyoQkRF1SJT4/TBLgU5yiXJnoTbb79dgAoAvfv0ZhfDB/M+wMJFC9mdQy4WiyUB3bp2xYUTLsT5487n76aNevbzsxl8Ll2ylLMbR5aDZWU4dtBglJUcYjfHo488ihkzZsTQWySn70C37t3C1tmkpCQm3Hbt2hV33H4Hxo0bF/asEocXmUlR5Av+fwQIRPjYsmULs9l3FBQhNz31PwoghDQdgvvhWDEBiYHd3Fm1mdfCNuAvkEMWhNBRI6aBEZm1LvKmPwIgULrnwX37YffeXRhz9mg88uijmDhpEooOHuSFvLTsENpZyqEUz4VS/AGMPkoLTpYGGcHk/kDedZCzL4JEUsmq5i2peuXnH8AnnyxkdS+KRyadhCQJONlmw9R2aTgz0YZEtgcY4LEnQT7tNFiumAJT/wEqATG8dTRXgtgAVTtCA8BAw2FH3KS4+J8HEDQQFAkQNEZ3a4ODOoDQmAUh8nQgoXrXE7AXPgVJMSCQ0APyySsQlBJUKePGp4zGQaAohqgOIhWEkGn93PPPQ+GBAj4ZEgggU7IWy086HhTxQEp6xJ2aO3cubyzXXHMt5s59H/3798eva9dSnvuYAAJnqvQVwvfzKTD5y3is+jpMg6XnszGHPVNLaQDhhquvxvyPP2I88+UXX2D0mNFCCyGO3BJ0aCPJcwJK558/DosXLwoHSOSfVwGCzSzj+eee43BGzfpCEs+9e/dBr549Wca8R/cesa1nDVzVmgCB9HY4CRwknHf+eVi8UZF9xgAAIABJREFUeLGqs6ImtVIBl08mTYf1mHHX7VixagWTqDUXFFWzZ6+e2LxpM44ZcAwTHTVbJG3ugaCwng4ffgpsNiuWLVvG/ZGZkYFNGzex0qW+sMvG58PKH1fiwvFjQToT1F/ERTjrrLOabDsCLcceeyx+3/571GvJirRz5y5+v1aKVYBQjx/TLICQIsIcW6voLQgUlkFKWzt372STyo7CYuRqGdBa8Z3R6k4WBDdkpDaUrKm1Plhr9OAuOFZMRGJgP5PiHNm3wNaP4oTJhKnmLG6CkR1Plf4QgAAZ0++8Ay++/CJPwo0b1qHGUYMzTj8T7Wx+bP12OpJq58LgLwULHCsGKKbOkDtNhZQ3DZDt3DZBSYHf68HBggP466xZfJLz+UQuBasEDDAZ8Uhee4w0WyFLQSjkljAnwDV4IJLvuxfm/gMEvoh0+UY0IBMjtegF9Tft1BxpTSALAnkckynqJZ6OaMa1R92CAKDEFUBIalnN8NgW4KAOILjRIYUieKI1kEoKCpkwAqje+RDshc/xfPFbBsJ48nJ2IcVSRwIIB1QdhEYZJDIw/5P5uPjii0PuMcoSOvd9AQTIVDxo0GCUlBSzuZiyKFJJTk6Gz08bA/D779vRrVfPmAAC3xzYC/+qUTD6DwuCXM40mHo9JzQ4KARPlhrVaKDmc0uAy+HE1MlT8NnST/mxPy1fjlNOGR4XQNDM5BmZmRx1RDwE8mWHWVAIILi9kGUjrGaSHVc4ZDT/QD5bT4ggSf+Nx63R2BRpLYBAJ/wOHTuwyiSZ+Qn4UfRCtPF3uLISJPt+YP8+3vyzs7JRWlqXEpxO7LTZk6Q1WUmpjciClL9/Pw4fPgyyVFDfscYbiPyahKVLl2DkiHBSrQbCaznM0YCbr70G77z9NjdHnz59Wcbaaq3PI4hsr8KDhbjnnnuwcuUqOF0OeD1etixQHchFtm/vPga7WilyepFjC9dB4N/aDCCoD46q/xy5KOvCHElAp3OXzkwWstns2HnwEHJSSFe9rXUQRC6GNgMInC+AJrbOZu3fidqVFyEpkM+boCv3Dlh7PcjhQiLW6+gKJTVj32r0FopiMMoyNq5eg5EjKF44gGuunoaXXpqJ5fOuQveU9ejUjjgGAZ6TXlMKDHnXwZh7OWAlNTyRFdHt8eL9d9/Dm2++ga1btqDW6WCASurip9iScHdme5xkkWBl8QoZHoMVysgRsF43DYY+/SCbRBpTVjZstMaKSkoU5MQQI6EBYPqfDBCorSiKQQ8QWnt86J8nXAzRAUI9oiivLQHU7p6JpMJnWPPAa+wN83DSE4muFBdZ95gBAufzUJh7QBkSqZAQ0MYNG9mfT7K2dFqjMN0ePXqwUBBdT785XW5OCHb5FVfgzXfeaRogELCl4NrADvhWkouhhhfouctz8Oo3mWyypveQqZgASrt27aJ2CaswkovB4cT5o8fg51UrGMxs3LgJxwwcEBdA0DYJAgb5+fn8HHoubfhaIatHjdsHSTYiyaQDy3rU3IqHu9YACDS3586dh6lXXckulyuvuBKU4IolsCOsK+UV5Tj1lBHYsUO4gmnjpc1Wr5xIoYQEMMjHH0pQpabwrjhSgYEDB6G4+BD/RtLHZKkY0H9AvXeFhJJ8AVgMMspLijF44EAGGVTGjx+Pjz/6OCaiJ30jWROIKE7uj7HnjmWrx6OPPooZD85g18UfAhAqq6qwbt1aFsUYevzQJsUx9BYE+oCc3Bwc5hj5ZOwqLEb7ZBKr+TcHCDoKXCiTiW8HaldejKQgWRAkuPPuRkLP6aCtryl3QXMW66NtQajx+ZncZTXImH7vvfji4zm4fXI3TD0/GbJ7NyTFB0gm+E2ZQNZYyB2uhmztxy4GciNs3LSJlcDmzZ0LSgHOejcKBTkqGGy14ob0NJzHqZc5cS58Njv8p5wCyyUXI2HoUIAZ5+J8SBsCTYeGLF+aQInmPtB4CI2lZz7iJallvQWhCfNEczpNvedoWhC4mVUOQigXQwvqHsut0QGCaM8QQFDzQKv/Cuf+F2Dd/xCfTL2GPJiHLwNkikbRjj4Nv1m4GCgXQ1Z0F4P+Vgn45ZfVGDlyBC+wFNVAQKBb125Yt34dq+lR6dmzJ0iff9vWbRg8ZDAnY6M9Mj09HfsKD6DG6WWSYsiMqw3GEDFJNXFVL4dv/USYggI4P/a2GU+8X8bglzYYej+x54879rjoAIFkpxWg1unEsEGDsXfvbm6jgsIC5OblNgsgEPfgtdcoT4TCyojZ2VoEkZCdqPHQXDYgyRhhTWsDkNAaAIHM/mPPGYuvv/kakizj00WLce5550a1Htx1992YPfs5bnsi0JM2xqkjRvBpXivtc9rzJkx9HclPIY7UxIkTQ8fx0aNH4/PPP49iUaF09EQSlFDtC8BsJKEkCQvnz8eUy6bw2KM99bPPPud6xGK11PbWr776CueeK0JP//ynP+O52WSRqhs+rWZBKFRJitFGJqXlfeWVl5kwRqiJygXjLgAJStCgbsjEpAcIHq8X7dtno7K6GnZ7CnYVliCLskz9BwCEUJtpmeV8u1G74iIkKWRBkODqcCesPSj8r23C5o4mQCDjh8Prg0HxwerZB2/+q5DLFsAYpJwJwowfMFnhShmFpB7TAWsfinOAL+BH/p49uG/6dFb9IouSGDdGPo1lyAHclZmN29qlcR4E+sWfYEDNgONgvuMWWAcez2lS6443qoqh5l1o4CTDnFEJMfmvtWcf8VJeQCDZrC2K/yEAQV15jmYUQz2AoNs89RYEjSFOpzxP0bsw77oNUtAAn5wO0/ClUEw9VJJi43OIAUJxGTq0z6yLKmgAT4gMeZXo3btX6CRHuRvI5Ez8l2OPO5ZPoWT6JR2F7777lk3NgsmiwGgy4YflK9C1Z+/6AIHHo9rgPC+8UHbNQqDgGTomUPowPDo3E68urVTdYxImTpiA559/ntfUyKKBO68C1NQ60COvA2pqq/i0WFlVCSKrxctBoOotXLCQM+zSJvnRRx/xhhdazzWAIBuQxAz5ti00HsprHcxRI6nl5uggkMmfAF1lZRUSE20cjUCbe+QeReRFckMQGTorMws7du7gbIkUwcCRGWpJbZeKzRs387Xaxktt5fa4ce+99+Hll14KhT+ed+55+JTcPpHKwDqSeY0/wEqKFklCwO/HyNNG4ueff+axQvsjcQiSEhNja2iKMql1YOzYsdi1exe++OILDjfXF+IgZEfVQYgvg7FEAIGSNUWexAiZkBzjggULOAGPTB8WDCDBkoA1a9YweaOhogcIRMigmM3q2lpkZbfH5j37kZlg5FNELL7F2Fos+lUiikEGabVE+ptb8tyo91ID+nbCsWISEkExwzI8He6Bpcd9LQMIobS29aWaBUBwIT3R2nockshTEE0DAnP+KriLF0Eufgcm53ZIAQef/mnRDBjtCLS/CKbcqyAn9ucwQ38wyIqHM2fOZFIXpRoV/k+RyCnDYsANXbricj/Q2UiuGsrYKMM7aiSsxDruNwiHvV6kJiXB1Aanlmh9qAGEFLMGSP7/Bgh6bBS+iIf/EiIpOoLISiTJwlYf/fUeGLOLQaKgRup/Cb6SpZC3TmVHVAB2GIZ9AMV2olC/bGKbigcgUGVpg+jarSsodT2Ny8WLFmPc+eNQWVmJQYMHoaCgMERujYyDp+ab/cJLuOSyy0Q2x4ZAqhSEFKiG49eLYHOtEdEZSERw0AL4rLSgS+xqjRbLrjWoHiDQIatTdnv4vC7WByGzuIE21DhJitSUu3fvQZ8+vfkESrLCy75apqoyivDFGo8f0AOEeiGcrTiGCCBU1cCWaIOtmcmalq9YgVGnncY5CiiPwocffBiVuHnf/fexAiU1POk5PDB9OsacMwbLvv6ax6DmTiAOA4FFiogoOFAgoqp278bh8nLs2buHCZtaIb7CX2b+hU/0Wopo4pVoTk26jrI5mlWAQL/s27+P1Rpramq4nk888SSm339/XGRT4vf5fX4kkHx8xBikKIasaAAhzm6TCnS5GPT3UkOR2WL58uWsQkUfc/755/MHfP/d95woJBYLgtPlZIBQ63Bi4KDBWLbyl1CKzaMBELyQkWxuezDCPeTbDsfKi2HDARZK8nS6D5Zu97QOQNDxFzTii4fTPUcDCM3c2ELJiDRvPWVYzEewbAmUog8gOXeywhmRBkmxEAldoKSNgaH9JZCS+rNJ0ul04KuvluGVV/6Bb8ncpy7sNClkowHH9h+ICzt3xAS3B7kFe2EIBhA0JMA38BgkXDMV5lNHASYLux/Ka2uQkmSHua2PMOrAP/oAQYHdBFgMLfnApvta22TKjzJAOFTtRl6DJEW10ZmASnulDKl2HXxrx8JAMfdBM5Q+f4Wce4VqQWicbSI4COXomJ3BVqOmWjQSICz5dAnoJEgbzAsvvMCJcmprakNLIp1u09MzcPAgWRKArJw8bNy8CdnpZPmqv+oyqKazsGsn/GvGwBys4CWiytcZiw5cAdmSA4NR5g2F/NCNRSEQ2CKJp9+2bMHQwUM4Z8mwocPwyxqRFyFugCCD3QqUAIgOf6kpKRxCR6GAXAggeH2spGgnF0O9Q0Ocu0wjl9NK8/gTT7AP/7nZz2PkKafE/XDaq4gX8sEH8xjs/fLzLxh2wrCozyH11/UbNvK69OvaX2GzJrBLiUSnsrKyuI+IqEpl+U/LMXz4cPQf0F9wUdRduKF9LzExETk5uTAaDWzhIVXGs8cIxUwCCMRBSCBESENZAYdV0lij+ufm5mL9uvXIyhZ1aGlpRYDgVfKSTVFPoCFyhiyxn+OFF19gdigl7CAiT6wAgfxblJb43PPG4Y0PP0F6AsWktv2mTRYEDSC0mgVBZ2ohOWAVKIr+9G6F4+dLYA0e4Anv6/wQzF0pp3jruhg0E61mQchItIYPqhYIQNFCa1ACgOcQlIJXgaJ3IPlroHCqXfL5G+FP7Aljl5sgZV0ChcMV/fC4PPhm2be45ZZbcJCzvQnTJJ0PjSYjunTIxaszZ6Lfhi2wL/4MBnqeFESt1QrTbTfAPpUkQ01klOA2JfdARU0NUu326CbjRiwrzZ1cFV6RrKnOghD+JJH6h+pHOR2a+xZxn+AgRAAELXtZTGRW3vbVk3VT26Foz6MJEGgcFVfFABDUZuQx7SuE4+ezkRAoZr+tO+tKWAY8DZl5J7pvVAXK9PsW6RIcLDmMDlnpkJQgDI0lxSEwceAABg0ahKqqKn705k2/YUD//qJvFIVNz08//TQTwugUSaGPdM8pp5wi1m9JwqIlS3D+2LFRAYLGgfFXfA5suAEmuQaKIuH9zwKY9lwt/Gx7k5nTs2vnLo5nb6gQQKDvmzlrFh5/cAYDhPvvux9//dtfmw0Qig4eQteuXdgPTiGexODXFBHp+6q9XiiyESmRHISWDfvwu4lb4fMxEdDt9bAF4Juvvwkj28XyOuqvzl26oLCwgPuy6kgVh3FGFpq95DqoqXaw1WZ//j7WxVi1aiXP7PPPO5+1JsilRGX+/Pm44IILMHXqVHz88cdMKKX9j1xB119/A7p07oyHH3mYxxBHNOh2dgqDJIvUfDWBHXEQEjSAoFaMIhO6desOv18ofJ555pnMZTAaWqZMSc8ioSRyMbSUFi8VVAqAwGO+gUUv/8AB1t0/fLicQykoB3h6WnqDfad3MdTU1rAFweV2Y9q06/CX519AutV09AGC7lRRj0UdyyiMuIZP8YrYzLRmkzxb4Pr5EiQEC3mgejs/AkvXPzcKEJpTF81k7GYLghPpibaWb1gS+f9lwLkHvvwXIVUshewpF4sfgR3ZjmDaOZA7TIExZRAkQwq3CDGhZ8+eg6VLl2L//n0IBmjpowGuwGyScMmll+LWy6eg66bfYF76BRJKD0EixrrZBky4AParr4KhYycR6aE2JBvnJOBwjbAg1PfMNqPDGrlFO2FTFANFUjQEEFrrrdp4qQ8Q1E0/ZoDQNDDQ6kxPLnMFkWWLz8UQ4tvFCYhELgZdFEMTp1D6ZCVQA8/aK2Gp+R6SFITPPhym4+dD4lwmlE9DtA8xRSIBv2ZB+HzhAixeuACnn3E6rpk2DZnpGXXJ41RkRq5S0ugnLXsysdPJj06IHfI6RN1UtIMQmXTppFdWXs7XUfKkf77+ej2AENKXCLrh2z0dcsF7DIgDihln3XQEP+0myWXxLbQZ7N67Dx071H+3VhkCG34FnEhowccfsxT1a6+9imuvuVYkuYrXxcAWhGIGCGRJSU5OAckBa64OBgg+LydQiwYQeEzEYKWJZb6QxYYiRGodDg5J3LRxI7tPYi4EfMvKmQjvp8iT7t2xc+fO+odXFYzYbIkIBIKYdNEkzoi4fPmP/C3kblr761rc9qfbWPuCCgHEO++8k0Widu3aBbKGUzgjERipzjR2SktK2cq++NPF/N+ig0Uctkpumzlz5qB7z578LLIgEEAgkiI3n5ph8rXXX8dNN93Ifyf3/Y8//ciBAC0tmpKitkIIsmT8T40pF8NDDz+Mv/xlJn8E5acmdwOZRyZOmBjVNBYJEMiC4HF78Oc778L9T8xEekLbAYTQZk2d4g/CFxS5GDTGe3M25GjNqk2SMFumexPcP18Kq1Ik4p27PA5LF5GNLnJSaYuIOtfCFjx9P0bbAvQuBmI2M0CIQSlSW+z13yPWbQWK5wCUorkIFL0Pk6+Yowj4f00dEGw/Foacyzn0TJENCPi9WPPzL3j//XlYsGgBqqqJcCUY3tTOaRmZOHfsaNw67Wr0LS2F9933YN21Bwr88JsT4B18LBL/TyrUfCJl9aQtWZRQW6gRoeVkQWgQIGgn6LCvieiq2DZQ7f0UxUD+7xQTbUYNTybt3B7/dBN3aOqO9QFCHc+pOZO5qfqUOuPjILTkOzmbY7UbHSliSdfDwgpVl9xUFbjkqtPWj/xZkPY8xbangKULcPxXkMzZbK6vU8ITnaM/0PglYMvOPTh16FA4aqr4AJKWnsaLLR1uyHxMjHHyJy9cvBBbt2wNjThazOnkpmUc1bdjWFj3/4UakggPmY7pO0ghduWqVWELL/WtsDJRPO9OeH85B5YAKY1K8Js64WDWGzhQ5kFJcSmOVB5hq8WJJ53UIMCnZ9EzKYJizOgx+P7bbzlfyMLFxJk4n8cpkevi0iSQgeJDBBC6ctgcER0pjp4Z++pE1CwIdgNlI6groXVLB+abGneN/i6BXR1EAqX+KTpUhHYp0cM9oz5HAr755lucfbYQHKLQPzqs1CcMggWK6FuDKplQc50QQFy0cBGDSnJPnHX2WcwxeP2113H1tKvD21ZbpBr4KHoH8UKYcEpZstV1xOELwmSQYJKlMOI0jYEThp6Avfv28v46ZswYkLuL5ZrjKJF7v0ZSbLEFIb/Sq7S3iQ1bewlvpnxwVBAIgn00GzdqISCihYyykSVxR48dwyp52oqqPSegrt/Omirk5ebA5/HivukP4LbpM5BBGzZn2KOkazT1yc9Vt0mEdgt1aWkM+DREX6KnOvyAR5GQaBZsdlpQGt0y1Beph2ah1RBxQyRRlRc2VYLd4F4P7+rJsAZLeIXwdPkrTJ2uByiDWATNKnJ7i9aR+mu0xVD/fhIFdbrdSLE0JEZTN8L4W0JLoiAX0iyijchY/hkCO+6GIUihVyT+oSBoTIQ340pYuv4JQWN7PsHUOl348Yfvcc/dd2Hfnj18LZ1mRP8p7M+bOvVqVle0b9uC6oceQnJ5KaSgCJmqTc2GfN89SDyPZEGj94T+m6scDiQl2mA0CJN+Y2b95m6o3OU8Dsk/rDAhMtkkyGO0yGj8OD7wqUUPtNRIPTF/4kHo/+eDrPQCiUbArFoUw56hH6sx7tTRxmaoz4NAuQfIsIjEls0tsUEusT4XOnzISxRrS0OFf1LnD22ChiOLYdh6HaSgF0HJChw3H96Ek1nAih5U56unsad2HpngJWDH3n046fghcBHLnyGFrs/CRpz4hf6/NTERRcUlfPCJLBp/Xxt3NMbf/OcbuO6G63jTMFksqKypYQEcFj0KVYclwuDd8xQSDjwh9D8UC5zpY2Ad9CZHMmji4tqz9bRYngMa0FA/gszbJKxTuG8/QSfk789Hboc8lR+guv/orVpjNzoWFRYT6t27J5w1tTBZrGwV7t6jp6rrIrHyH30FKSlq3dfwjI3Wuw11utb2dSBvQP+B2L59GwORXVu3o3Pv7qHTglinwkv4QUfBvPfnYerUK3hPmTx5Ct555526cRI2dxR06NQZxZRLgvtKYkvA18u+xnHHDVbHhIQNGzdh0+bNmDJlMkxGAw9mkhggFxGtjQz+wlxeon6hJte/U/3HmkAAJlmGkUSx1Lu1Pn/99Tdw8003QVH8XO8VK1fihAY4FPrJ1FAX05gqdfmRaTVyvUPrlg7URc6NBufn7gqPkkE7KKtCiS9jeVBe9smYpyB/7z7Mfu4Zjl0vKynFho0bWVlrwID+/DGy2cKEFm42/UIKCdWVVejWuTP8Xj8effxRXHX7HUg1GkTzqr7mcO9NCGrUe15si1rdgHL7FfgkCVYjmVeESl/kcAuZUFXfsr4xOepFB1zEEqB7gu43VrRyb4C0/jJYUcybhbvLXxDIu54nmpo+QCx0ahGtrIuw0B6tmwGhq+vNE4kXGafbA3tCQyl1IycWxfmLLSMoBSF7iiHvegTWqiUwKC7uPJ8pC4a8q+DLuAQ+cycEYERhYQmen/0MvvxyCS9QSpB452q9ZQUnHHscbvnzXTj+pGGwb90G0/vvIHH7dhh9Hv7umqwcWK6eBsPZZ8OfnsYLZGTRgzcNJNS4PLDaSGqXTo/h0yHa8kNs91ATqousnpwROaH019KdtT4h5ZRoCu+Xuu1ErTWN28hFqwF0EF7Pur/RMx0+gCz+tGhoE4ffpVVUBzqiWX9imw/MlefxWO0JIMVCFptghOVPa3ExKUO1bKDBmgIJdBu1T5nTh6xEStakby11Y9C9iX23Ktg0uX6DedNYSEE3EwadWdOAns+ouTTCmqbODMG6GArKKsqwbsUKPD5jBnbu3BGaW8I3HH7GploMHjwEz7zwPIYMPUEFzJFfppqD1YY2BIP4dfUvOGPUSMEzM8g4VFYOmzWJ79fmM7vXlGoYNk2CxbkeCAbglVOgDHoTXuso+GVSTxTAWnga9KGEoraivzUQBPi9PnRq3x4+txOJtiTsLyyAkcSNiHkfqrb4Q9i6ot+41F9pXa+pqsIJrBhZAslowlfffoPjh54QWt7cftoVDUjgw02UdVM/+PQIMGwe6AdQeNsKi6pYk0efdTbWrFrJa9P8JYsx6swzQlMgGkAIP+gp+Gju+7jhumncFpdOnoJX33hLBWBae4jKUp6VdWvW4J+vvYq9+/bh7NFjMPHii9GxaxcRqcWKq+rGxKhVCLWJZmP7lupbEScKXiU0IaZQG9QfQ/RkB+ldSGRBUA8S2t5B+67Pj5OOPx67dm7n75485TK8+AZpVNSfadxsEZAt/MBCY0bCEbcf7axmXjfZDa6qPopNtf6TdUtO2LIiFVR5lRy7KWRG4hNR5AlDgHfuz7179nBUA4UDUdwpiUnQQNVvtPQR2pJA1+VkZyHgC+Dvz87GlOtvRJbqYtBvt5pmfl3t6haSWBfCsOvIPx9Q4AmQi6FOcS90GlCHfcj0r7N1hiFBjQrWyKpIp2g+2TjXwr16ChIgFLb8PZ6BqeN1QhBFTylTX6B3MzR2Otb4DvrOpb7wqmGOaTZr45YR4UQQiwk9hE70VSsR2PUETI6fyY+AgCEZStoZMHS7C7AOgDfgx5o1v+Ldt9/BvLnvM4dEj5ZSU+wYddoIzpI2avhweFavhWvue0hY/QssFP4oGeBNz0DwvHOQdOXlkLJyIFGyJnUvbGqToQ8qr3YhJdEKJvmrrnPtvrD7xayJq+iBmbYmHPHSIqLAbq4jn2rX1Vvq1Hc2DOAarw7dd9ilgOg/JmPdaVcDXhpOaOqzItuxwZA75iAoSE+IYoyO0hmNAZIm+05L1lTjQ562tuj6qG4DVK16utVJCtagdu1EJDnWcKc6TV1hHbYEMJESZwQXVzW/85CGEErKy8xCwOXC0iVLsOyrr7B95w4cLj8Ml9vFGhypqano2qULxo0bz+l/iZhHPuNYrD80R4uKDnFsvJYEmEzj7XNzQ/NbrL8B4MgyKJuugaw4eEH3p54M8+D5UCBkdZnwqs7HyOVW377ausHRSqnt2B+ek52DgsL9kAy01WvW3sjDWfj4i4xSrK6sxoBjBnJUBp28ly37CqPOGCWglJqLAZIRVtIgUSvUmDBZLJOPnkucB+JwEHfK5XQi6Pdj5pN/4YRI9KLrrr0WN950A1LapaJL5y71XNiRY4/67d2338bV15ArAGzBfOMtstJEWH9VixzNDzHfFVRWihBDimA4cqQCVZWVHHZYeeQIj5mS8lLs35+Pg4VFTESksFIiFBIXhZLWeX0++Px+1ssg7sNVV03lxF96VUqtvrVqmCMfBvRbv1qvp2b9HQ8+8ACv0+mZmcjP38u6EJElpvVAAQ45fcgmz4DuXQ3NW20+RltGpYNVXqU9TWL9Sqh/ku4uarwLLrgQ33//HX/IiFNH4IcffxBWDzY1CxQtioAIRw4fZpJiMKDgpX+8homXT0WmNTrtTNswtUZprtlYu9/pU+AOAikJEn9f2MTjE4sG41Q4E0kOi5ypEb2lTabQPzvXwrN6CiwSAQQJgZ7PwthhGp8QIrkP+m/lTmyi56Nl3SPxlFq3G+1sCY36MOuqTeFjVVDyX0Sw4BUY/Q7+yWPMgrHXk5DbX8TEm9W/rMO1114jdOgpb4Ju9bTYbLj5+uvw5MzHOUTLsfJHHH7sSWQdPMDkQ/qMgNEK1/njkDHjASiWRDHJ1VQUos3I9qHHrLT7i8bWfLh0y+FqB1ISEyGrg1Mb7LG0V1MLVuRYo9oQB8FIsrpqLga0AhB4AAAgAElEQVQaFS0dg/p6RL6zwhWA3SSxwppojdBy31T14/pda69SVxDpVpnN3yGlybCtTV26WmKuUGtGHISD1R7kpVhU1x5ZnepredT/kACUoncQ3HEPDFIAQZih9J0DKetSsc7oU3Wrfyd3Jrs0SkrQMTubh1qo3zQgp41hPnGLk3lcfnv1OcT2J5KaVkiv/5iBx3C0TuigEKiEY8142Jy/Iaj6nH19n4Up+2oEZSIDG0JzKiwiJhpQU19UXVWFdmnteNpQkqDlP/3EoIZvibhPD8AaGr+VVTUYPHgQR2ZQITXBMZT4SXWr1qq5GDSRsqY84pFjO9oApQ32mGOOQf5+kVJZX+r6QrPaKFync8ac0+hYJyvTm2++jeuuv46vu/aaaXj99dfrLE6htYusAxJWrfoZL855AWs3bGA9A7LuMO2VTsUaeFCbNFz/oq6RI11mGoijDrl/+nTWftEX6gMSSqIwRyIphoq2BMrAvn356NWjp3DvIogPP/wAF0+6OK55rn9ukcuHHBUgRO49jT00sh+lwiqPkmunpA66Yy0POoXDOjZv/o2Z6itWrOBY1T3kewaYzbtu3XpkU9ymtshQxj71OQIoKaxUlp3Vni/551tv4/yLJyPdQtLDzfv2eO4iYohPkWDXkRS5Vqp/r26j0dsy9P3XOPlHkDF1M1QDCEoR+9zJgmDseE2YKTSe+jd1LQEEh8uFVBJKCnNdUPeJBlYNloDiQ7DoTQ5blGt38fW0UPranQ5Tjxmo8XfF+++/h3fffRcbN2+Bx0sMB7EC0+Q59rjjcN1NN+OMM0eiQ5IJzkVLYfj8K0g7t8PkdcEAA7zJGQheOB7mieNh6t6dtdxpIRZWA2HXokW0fgkfDNqEO1xTixR7Eli3KJqDvakGivN3AggSgkg1G0LkotYECPqxR3+ucPs5zpwAgjBgxadyFufncbrn9MTYkh+Fr966PosRPHAUQ6UHeankYiBQqCN0NFhxujAIBPPh/XkszN4SnjuBrItg6PeKGsmgGyvqHxmUsgWhBJTNkdae1u43rco//PgjTj9dpPOlWHcimSUmJtW5A8j6fHg+5C3XQ1IoWsGAWkMe7Cd9Dpg7qyulSPIjJMNiKBJAkWRk+aBCadaJQBey9tJDYpwfGnu+ukYABDohU/n008WsA8GFdRA8kGQDbEbhDtS7RhvrvsYW9ldffRU33XxTmBuQWkBjREU+9+6778asWU813kYS8Oo/XsONN9/EtzNAoLbRHWy1FVpETKTC4RAiR+xqi6H547mEAcKTAiDon81CSUahpBit0Dp92siRvM/SeO7Xrx82rN8QVV2zyfqQpcvhRW6SqhDYlNkhygNDVoUwgBA6USvsZ77gwglYsmRJvduJ2PHCnBdw2eWXNT7EJQXFxSUiy5QCzPvwXzj9vAuRYRNJe1rjJNhYY9X4KLQIsFsEE1cfaaWxk5s6uTf2fM03J9pfguRaB8/qybAoh/jk7e/xdxUgtIAV1kgFBEBwIzUxQQcQCBFTyxrEZuw/DP+RL4H9r8JQu41jqOlXX0J7BHKvQLE8AYvmf8kaF5SpjO6jaUPflpJix8knD8dtt96CM049Be5d2+H95gdIn34Oe3kJJMkJyqTgS8uD/8yRsE6dDGPXXhTdLd7Nk7RuQkSHYdE/kNa7EEBocka0zgUVlItBBxDaYnzqEXqFOwC7UVgQWjIOm/p6bX0odfqRlShAW1sXoaQoLAi0eTFA0Aye+oGgDY+QQYlAkhve7bfDXDyXc294TekwDXkbUuLwBkOGiaR4oLQEnTKyYdAiIlv5I+lkd/edd2P287P5SxLtdlRUHIaRSYpiu5EDh+FZNwEWx3qV65MAqfejkHJuEZuSmjRMcIFiKOrSQcmkSHuGyowZM1gFUMsEGSs44Per7tBaZy0Gc16HvfxMIpxT3L62s9XSAUE2wkZ8sUhyd1P+0GgbjqKgqroKV155JWdG9Hrd8Hr9fAilw0jFYSHlT4WSH1Fa7X/+85+cZbHRIgPvvPUOrppGOioKLr/scrz37nvq2hN+J337hIkT2C1e63DBG/Cy+9JkMMFgMnJ4pdlkgsls4iiCLVu2sFuKovYo0oIAIf0fWUTJNUXRChaTBdZEK9dzyJAhHIUQTcegKYBANf3u++9w9tlncx+RjgOlm6b3NqccqvUiJxpAiABOTT1bOlDlVdhPGLloSAr++tdZePDBB1QFcnEBhcJQvGef3n2aejb/TuEblBWNjtoLFyzGiWeOQSZRt9scICio8SkMECh9b+T3CTNjjJO0gS/ViDYCwEuQPBvh/oWEkoqFdkD3p2DqeK0a/BdTc8V1ESspulxop3EQtEVYsx4c+QHe7XfD5N4DWaXtBIgHkHIq/J0fxgOPv42XX3oZfoUyMAprAQEDGuAXTZqIZ599BunpqfBsXouaWbPRbuvvkBWvGA9SAqotZihXXorM669H0JoiXAlq+lP6/pac4v4IgKC3IMRjloun08IBQhB2Iykptg2A1OqluadKHV60twm+UFuDBFotCjWAwHohOutI2OlAy3KqLkAqoQoV38C/5TKYAj6mSjtTz4Zt8OuQpCTmDIhYtbp2I4tFfhsABO0g4fP7cMMNN+Kdd94OkbnHnn8+Fi1exMRWEc0TgDd/Dsx7nxQJ2uCDP3EQTMctgWJIbt5pVV2iKA6fUxcDuPvue/DUU7NaBBAcLgcDBM0iHAkQHBpAMKiE8ngGeUPXamQ5Xc4DuvSnn35i3QDNpE+8NXuSXZV+boJfpKbvvmjSJL7wgvEXYOHChQ1ykgRZT+HEulUOF1Ip1XLENkDji9qF8hu4XC5MvnRySBuh3qfFsOHS/Kv1Cqlls6qaGm1tLCkrRb9+fXGk4ggDlG+++aZe+uhYuyGkgxBZvxjqq39HwwCBNj0lyPHBhDJdTheGHDuEY39J+SrWsnXrVvbR0Ybx5VdfY9CJI5CZdJQAgl+BPygh1dJy5bvI79UWWc2KwADBuxnuny9WAQLg6/43QVKkU3ms5LxYG5YIP2roYSoBBDXyhAiI/opvgMLXIB35hfLiCclXyQQ5fSzKjWMw+61VeHfeIo45phBVLcY8KyublRAnTrgAPTLsqP34Yxi//QHBXTthCQQQIP+tbITv2CEwT5oA09DhMGRmMKrm71d9eMzPbqHa4B8JEFIs4tTUFkXvHz7sDiL5qAIEHyik+WgU+k6NgyDM6TqzQT1Tkv4fREyTFKyCf9udMJZ/wuDVa2gH4+A3IScL835kom+yIBBJsVNmliC1xlkqjhxhv35ehzzOG1JVWYXikmKsW7cOB/IPcOpf+rumLksnyHkffYIJF44T0VHEaldK4Fs9Hkb3LmHAlixAr5mQc6cJEbIWlOKSEuTm5vATLr10MubNm9sigEACdqQkuZ+thuBNdfy48aKGlAyIAIKkWhBaUO9Ybp2/YAEmTboodCltyqSJwPoOWnx2A/ORxsqGjRtY74L2q1OIn7FieaMuF3pUUAaqHV6kMmG+/oAhsaWBgwYyqZLI+L9v+z1uhUftg2jtr/GoHASjGrIdpWFIQ+H4oUOxbdtWrtPs2c/jtttujZuATY8+KgAh7BtU9Bej1yx0K6VPpagHGnXf/7QcfYacwGZOzeDYklNm44NPQa1PYQ4CCSW1hbmY3s9Lm4bKfFvhWkUAgaSGg/D1+CuMnUSYY6u/XwUIxG5OYZJiFYLV66Dkvw6l8kcYAsQhCEIyJCCQfBIc7a7A/O8q8PCjj+JQIWmNk9dWZvNo3969Of3obRTfvX8/nJ8tARZ/hkQnCc4EYFQMcKZlwn3sEFgmT0LiCSdANlhYwyI0f1XLAYcKxbIqNHHNfypAoM/WTvQEECgXA4WStWXR3lfiEMSlo1E0gNAhhcZJxHbehK9JMNAVKLUrEFx/KQz+Gq6yL/kkmAe9CRhy1FNfuAWhoKQcHTIzYIxzABJDnQ4/mj+eA8k4cY+Y4SGBJpU/Q6bl52bPwcWTJyMjLVWY4INOuLdPh4XcIgIuw5s6HObBcwGpvuxvPH1Am2BNdQ2TFAmgnDjsRKz6eVWLAAKd0vv174fi4mIGZJ8u+pRz7dQBBC/zqNjFEE9lm3EtZbK8406SpBeFRPWiZbaM+mgZHHGQmZnFnIJOHTuzomtjqxB1q58yVjr9SCXrchRhkC1bt2DQ4MHsau/YsSOrM8al8KirLM0/h2pBILGkxvY8soQsWDCfxxxF2ixcuOCPBghuJc9uaZE5uLExQQN5+Cmn8Aev/Hk1uvUfzABBbE9tRyaiViWA4FVUC0IMkQLNGNt1AIFmkXcnXCsugjV4UGgK9JgJQ6cb+EtbAoSimoTVHPEOhwvJ2AnXjnuQULuJ0zHziowAPAk9YOn3JH7d2Q4TJl7CIVqEskUkrYyOuR3w6uuvYdTIkaj96TvUPvV3ZJeWwRQks26AH+NKbQflqsthv+RyOBMSGVCQZCgTDlXkreEjemv4d7LzuVkkzf8GgFDhVkCZzxPU0KfmjL9Y7qkDCH60P0ocBNp0yILQISWBGfvhkf7RqGwi7I/GraQIjpICN5ybbkHSEWFFoDHh73QTzN1FDgKtBIlQDQlFxeXIy4ofIGz+bTML03i87pA7VT1SCBqNegigzZlkiecvmI8Rp43CkcoapKUlCyBR+Q2kjZM41p5q6pdskAfOg5x2Rixd1Og19F4KxUtLS2OfPblsacNqCQeB0h736t2Lw9WpENfs3LHnhgBCjdcL+SgBhGeffRZ33XM3Wx0p4o1CR+M5ZtBYS0tLR1VVJQ+swgOFTKJvqFB3+Rgg+FjVt16RgS8+/4KzM1KhqBWS4k6xC3n5eEsIIDRCUtSe+fDDD+PJmU/y2pqZmckALt4QbnpWK1oQdACB7aqaTzDeZoh+PflRzhp9NqO0NWvXoUOv/kcRIAThVWThYmgzgFB3woBvL1wrLoQ1SElDFAS6z4TU+UbIMWnrR2+/aOCAFyzFD9+RVfDlvwJzzU8wBJxMBGNRJvtAKHk3osjVHw8/8jQWLFrIWufaSaBz5y64/757MaZfHyT+tAIJy5dDLjwAo5q+2WOxwTdsCEwXjIN16ImQ22Uy6bLW5+Oc5gkGUoZTqZmsbqeKf2h6EOrJqyWhKn8oQDC37alJY1gf9hw9gEBTu9h59AACbdrEQWCpZRYo05NVI6ODNJOCdmwQ2zJf5d0F97pLkeDeyWNbke1Ajxlstmd9EdYSIOUBCQdVCwK5GOI59VL43RlnnoHVa9ZEuU9CamoKjjvuOEyadAnGjB6NDp07shWorKIaWWnJMHgPwrPxCliqNwIcmmmAP3cqzL1mARJtQPHUpv46QHON8gCQhgMBhNycXBRQYiJ6MvMxYl+rNZIiuUsoUZDb7YIkyfj8888w+uzRYQBBpHtu+7lQ43Dg6mnXcPbMl198Ad0bSVzV0JfecusteOUVinQB7r//fk6/3GyA8H/j57HHHgsRQclys+W3LchpL1w88Raa72RBMMUAED76+CNceimF9Iq4NKfDwTka4i2tChA62C0qC16dqC0k7+k/ZulnS3H+uHHsv9mwcTPad+2NjERVdbGNNm3xfgUU5uhRDKBIq7YACCGSojb/ffvgWnEBrMoBBgjB7rMgdaJwp9YwIYu+oXwGqF4Pb8HrMJR/AWOwiglRRD5EUi8oudNwRDoZc+ctxCOPP4HqWjoViZLeLhmTx47Bk1dMhfeTJTCtXAFL0A0j/AgaTHBl5UIZfhJMl16MxD4DmMUsVPCIlCjkV0mcJZEAgli+Vf0LOv2JsC2Ni9CyJVGseUc7ikFPUox3QsZ7PfXmfzpAKKj2oFNMAIGGWID1QiI3U4K8/uK5kEkKXHEySICcAvT5G+SMCwHZjKAkVEUPllQgNyuNk3vFM/5oLPv9ATz33LPYt28fKKGP3Z6ElOQUnDriVAwYMIB94hypxJkkRfrl8spaZCfLCGy/B6bi90h8mc3cXmtvmIctgSRltUroKm3qbo+bZYGJVU8ny0OHDvEm0myAUFyMbt27cX4C2SDj++++x6mnnBpSCqRcDBTmeDQAAs31quoaFhyymESUTTz9R3OPNA0o6ya1D0UAkF5FQy4Btq8SSbEhC4IEnDbyNPy0/Cee1iTDvX7DevTq0Sveaa6KMgG1HjXMsQlr4abNmzgagvqWLG8lxcXIyiQpgfhKca0X2UmkpBi/iJz+TdKBKrfCAKEhUlYLrQof/utDTJ4yBQZZxpZtvyMtr9vRAQiSAqc3CHdbAASVkR0GEOgvvh1wr7wQFqUQCvm1es+BnHuZCM1qBumN0iHT5KHtmF0Dzl0I7JkJQ8W3kIIkYyyzS8Gb0B3GPg8haB+Ff320BHfccQcOVxxRTbvilDGqTx/MOfNMZK3+FSk1lZCDQVWsRcbhrl1gu+UmWM84C7LZBFlWE42o/lceYyT24fNBNspIorzx6sDTRzOGNA+iqEbGN7z/OwBCuSdODkILdBJo+B1NCwJFCR2o8qBTSoIa5lg3AkLgMvRP9UkJalANyyJA8iC4dzaw/+8cjcNqFZIZSs8HYcy9kYmzBBAKS8qRm5URN0BocGyG/Av6K0jPQdSitLIMadUfwrj3cbIZsFsuICXA2PcZIPsSSAqlQidzRiwaEA3PEAIInHUxNZkV/NqltkNJWQkMsqFZAIGqVFpWhs6dOsPrJX+/Gb/88jOGDKF8BOwo5HTPIYDQgnHX1LzXonqO1NRwNskEU50MezxuWXKV9Onbh4FBQoIVmzdvQo/uPaK+vkmAAKB7j+4MFqmQhWXlihUYduKwBl0fBEzyD+SjW7duEdYyMQQIIAjra8PQh/qZUkB37tKZI+xoDlESLeqneEvrAoQksiA0VJpgFDVRc1K1uv7GG9h3/fvvO5Cc25l1ELjh29KC0JYAQf/Nwt4vvsa1Dt7Vl8CslMIvmWEc8j6U1LPYp9qcIjCFH3Bsg7/wVaD8axh9ZWJvJgGixGPgzZmGQOpZWLj4O7zwwhysX7tB9d9KsMvAmSl2XJHdHqcn2WCpqWIfacAgw9MuAzjjDEjnjEbiwGMhW0WyGtZQUAeDlohIOFkl1Pp9DPSsKkDQAs3064f255ZGAfw3WBDKPUJJMSaSYgsXaerBQ04/co4WB4FcDFWCgyCiGOoKC+M0EuVS51ZTRxhtsP5KuLbfB3PpQpENj0z5ciJ87S+BudvdCFhycKC4Ah2aYUFocG5qAl2hU5jQ5md5EUmBd+/7sBy4BwbFC4WEzyUZvtzrYe71KCSF8tOYWiUahjYOn8+H5NQUeD0ejiIrKy8LyUQ3x8VQVFSELl27sFRwotXKkQA9e/YQfCFJCgEEO2k8MMBpDSto/ZZuLYBACrCUyfGrZcv4Jc88/XcmPmqh15FvJpJiPQuCSsSnDJepKamg0FYtbHvpkqU4Z+w5UQGCw+ngU//ePXvx4IwH8dijj4VBX3JHubwim6OlEQsCAeeVK1ZixGkj1PwpQmiQAGG8pdUAQkGVR+lAggptVOa8MAd/vv12mIxG7Ny1C7asDsiw/ocBBM7cAihVPyCwYSqMwUr4JBtMwxZASRzWqIuBUKLmkQ3bXJUggu7dCB56F4HC92AiTXfFz8ShYEIPBPOmoiphHL5cthJE8tmwYT1bGkipK9doxpikZFxDuvNmhZUIZZJBNpng79Id3jGjkTJpIgxp6exGCEhCqCfapq5FANFSXevzwyxLMBsaV+NrjTj7/wGE1p2Q1CeHHEcfIHRMSeBMoHp1w6YAgvhydUDyxqRyo1AJz7YHYS79lyrrLdxfvqT+MPR4GId8Q0ChuqQLW1dacMCpZ54VHxIMuKAc+hDY9QQMSoWIyFIAT9IwJAx5B4opHRLpIDTXVaulcFYnH+d1CQSQkZ4OCk8kjf4jR46w5n9zXQyk3zBhwkR2FSYlJmLfvr3ISM9QLR446gChosYBqzUBVsqe2Ezy+seffMIZGImnkZRk529KpzVOD05VlU0BEPxITxAWCwIDFMq6YcMG3pAnXUy6CkJYisobb7yBq68iMab6hYiEFB5Lw/TUU0/F999/r0tNLqKWyJptNkoNKilqT33p5Zdw259uE9lCTSYOuY0mvNTU6sDpnsnFoE6lpq5v6HdO1kTSuW1V/vq3v+KBBx+E2WTBrt27YM3MYYDA2yKFyTXD9B5TXdvQghDSQFCth5q5PVg2H9LWmyEpbrjkXFhPXQrF2K1RQSaNYR5mTfGWwFXwLKTiD2HxHGb/Py2wbktHmLvdh0C7MXj/X0sw/YFHUFFaDvjJwBrAUGsCbsvKwlnmBCQxJ8AvchsYE1B50nCk/flGmLr1gmKzQaZbyHVBZkqVVBgWD6wLW9TWuRqfn1MvJ8jNkOuNqdPCl/VyVWqZUjBTabOxor72aHMQ4rIgxNl+kZf/+wGE+h9MY5mSH/n2/x2G/S9Q2JBYAINBKMZE1FiHwt7nMchJA6DI5DZVFxdVvVBk36MTcRxkbPZxCAF5Ih8a3MWo3X4nbBVfQ5LIckBzQYLX1h/m4z9SQzBbduLWFP969uiJWbNmcUMEggF07tyZuQe0djpqaUO1xg0QtFalTeill17mv2ZmZqCw8CAf4sREEwCBSIrJbWxB0Pav8lonp4tPbIFoGLXL8OHD8csvq3ltI6nmp2Y9VW8gcV/KQKUOIBDJ8a233mJOhtFkZIuNRqyldfGJJ57AA9Mf4Ge5vW44HS6ktRMnezrlZ2VnhRQQDxUdCqUP53fFARCuvfZavPnWmwwwBg4cyIClOe5pAghZSeYoAojxcRLaHCBMf2A6/jZrFif22blrN8ztMpBhM4oQnVB6zRauftFub0OAUBf7pGtsQvlFb8O48x6mMLkSBsB60mJAymhY1UurN1sRFMi+g/AXvg+UfALJlQ+ZQhYhw5fQAVLuVBxWhuOdeV9j7of/wrat23kmp8hBnGe344rUdjjOYkOiqi+uGA1wde4Mw7jxMI04FaY+RLDRGMki8kBooGspZbUUx/XZ5v8DCK0/Pmnh+G8BCKRmqqcf0rjThz3G07oMzuGGv2gulPznYXJRsiGaJyKletCUjGDKCZCyLoIpbRRgJua5BggYhqtKkmreh3rESJ3FgS+nzV6B4i2Bv/gjGIveh+TcBYrSYL0DxQiPrRdM/V+AIXFoXSrcEE9JTV/HWCU26t2mTZtYl4GIkevXrUefPn04iVrXbl05BJABgsPBPvt4LQhaW5NI2hVXXMHr8D//+Qa6du1SZz7nXAxeBGQDUiiKoQ1dDK0JEOhZQnRJqCoSH+C337bAGiUrIgGEI04/0iwGPP7EExxaGPD7ow5F2qxvufkWzJkzB06nEyNGjgApW1Keos6dOnHCqy4ceSEA6S233Io5zz8fikTgKAYSSqK8K424GCiU9djjjuVn0974yKOP4pGHHo5neoSuDUUxRN4dJ2mRAUJekkgL2RblhhtvxOuvvwarzYY9+/ZDTkpFplVMZkNzTXAxVZR0ECjMsQ2iGEK+gHA05qUFa+9jvOlyEqQhpAluFboEEXoAej8rLT5K+WK49z2PBF8x5wPguG9Le3jTJ6BEHocPPvoKTz/zHKqqarmv0gwSzrUl4tasNPQxAUZe6Izw2pMR6N8X0sUXI/nMs0QkAgnxEGdB1ajnMaKeosSpXCyckUVzfvzXAAQPKUAGkWJuHmckpmGpXkTNftgTQFKsHIR4Hh7l2j/CgnBQ5SBEAoT6JMXYPk7buoXXIQjJsR3+nTNhqCLSrjMkWMAkRoOMgJwGY8Y5QPuxgLUXJGMGINk4iZgY717Vt64lj9PMmWRp8AH+Wije/QiUfgb/wXkw+Q8RLRgSpzMP8LM8tqGwDJgNydpdTf4jrKNkpWDQr1ks4gAI5ANPTk7mtMKffPwJLrzwQrYg0IZXUCDCG2kzaQlACB1yoh6uSBrYC7/BgBSyMP67AATy9btcLElNQIrK6WecjiWfLuG20hdaCyucfpTn72YhPwJcBAR69uzFKbDp71qhfx8/fjwWLFiA8rJy9OzVk9M/v/fee5zeefXq1TjppJNC11NXb9u6FX379BXQVFVStBllmBoBCDt27mAuA6UmpxwPP/70I4adMCy2yRFxVZHTixxbuLONL4kbIFSKXAxtBRAmTJyIxYsWwWJJwP6CAiiJyci2qaasOOJ342+lNgQIoZEjyILcdhLg2fs3mPNnQgrKCORNhqEvmUHJF6mOEv1HMOW/FsFDc4EDr0JykziIj/kAQdgg516KQozD9IdfxBdffsV5yoVii4LxNjuezMlCZ6NI3UuuGpfNDky5BElTLoGcngPJYAoxw/RuDHF6059qqFKCgBTJHfgfQIh/1MVyh9YfFe6gKpTUNgQwfV2ob4sdR08HgQBoYZUXeiVFbY1pLkAI+x6Wgqex7ADKv4Gy9xnIzo18sqfoHlYJZRdDkIExDKkIGrIQsHSEKbkvYO2NoLU9DGbKIZKAIKX9VZyAOx+BqtUIVm+F2XUQ8DshBV2giCJWW+C0wAoCshXOnJuQ1OteSEhQhaQpzJfeXpf7sDnrKp3qs9u3R3l5GWdY/PTTTzl8LysrC5VVlTAaTaiprYbZFD8HIZbxyax7rxdegwHt/o0AgpbLYdvWbTh+6PEgoEULM5G3SUJeb6qnMMfDtV7Meng6nnvuOW4WShK1es1q9Ovbj90GWqEQfQp13bhxI0pLSjk8lCwJL774Im6++WbMfX8uLr/y8jAC45133omnn346ZLEiqeXGAAJFqVE+CsoWShXNTM/Erj27kZKc3CwXQ+sChOTWYdtGG3ynjTqNk3FQDO/e/fnwmmzITjSKCdXWAMEfhDfYBhYEPUAIBoWZTwnCvW8mLPuf4g3b3/VPMJBQEu+8WqJxQhMyEKiAp2QBcGgeTDWbIQUpBpz8qCnwpIzDd79nY+7iTfjsi2WgtKxMWIGE4yxm3JuVg1GJFtgodr9sipgAACAASURBVFtS4Og3EAkTJ8I6cgQM2dnCWsB6BOSvVQWt2Qer53uIVM8CTIo86dHK/wBCTMtp3BcdbYDAeUAozPEoAgTaqA+qAIE2vHAlxcbTqDfWoGLcascgCjYUAFfxV6Jq/2Ik1SyCVL0aRr8PiuTT8VbIfEzhxmRGEwJLwt1ghMQwW52nDAT8ajIoAs2UyIxcCXQPCTUZWbpc6vpnVEjHIjM1LZQ2WDDmxVzi9a0FkSfkmiX+AW1OlH2we/fuSE5J5nBHWktLy0qZvNZcF0Ojg/bfFCBop9xgIIhHHn2ExZJoDSMdAzr9n3XWWapSprCmllQ5Mbh7FwYDdB25EIgYeNNNInU0JYwiUij1ASUpLD5UDFKgJIBAFgbiC9x80824aNJFnK+ISKOBQBCBgJ9d6mvWrEHffv14SFCyJquhYQsCWSOuuvqqULbNBx98kMWa4lGU1Pdpwy6G+FLKSwWVHiUv2dxmBLATTjgBa9et5cYuKCqCW7awkqJgh7YhSZH0y/0KfEFSUmyDkMpQKKAwIZDZ0bX3UVjyZ0MmYZOeT8Dc6Q4mFyqq/Cr8NQhU/ADvvr/D6NwBA0UWUBvIdhS6+mDlvoF4+NlPsHvv/jqCDBSkGo24Prkd7srKQoriY9Ofs2NXyFdfDsvoc2BNEXrwjS+s9Ul+TUUb/A8gxL33x3TDfwdAAISLwcJzvWmp5Ziarv5FahQQcW6Liw8jJ8sOqXoV3AXvwVK9ApK3nAF4aNvmmEsRyieI0pp3TXWzafMolCwyiKAURMCYCr/9RFg7Xg+kjeAw5rLKGmSk2hmIGzSQwYJPBoET2LMY34LMHygBpB8zZTJpqCiYOHEi3nrrbaSlp8Hv87FQEnEISJ22LQGCz2BA6r+RBUEbHNq6RWGPX3z5Ba+lZH2hxIOUwZIOUWRB+OLrH3HB6FE8PonvsWP7Do5C0NwT1113HShMnwACbf4ECiorq9Bfl8NC28DpnffcfQ9HQnz11VdcFcptMX/BQhaicnpFsiYiebudLg5RJTBC99F7zzr7LBQdLOK+pyRaxD1pSeEohsRoLob4xmObAgRqeCLbbN68GUnJyThYVAwPTEi3GTgJRrQkGS1plPB7mwAIzZm42gu00EReBFR+QdAHx67pSCx8AwEyc/Z/G4asC0Qyo4AbyuHPENj3AmTHLshBlzB9GswoV07GAy/uw9Kf9qH0cI1m/OeFwWw04rJ+/XB7QEYPP+Vn98NjToTx9pthG38x3MlJ8LrcSE5MFCSwOCNC/gcQwkfMkaPEQfgfQIiVrhfbakDjmABCUXEZcttncrgv/4uvHIprL5SSHxCo+gFB13YYvIdhoPlLCozMEVBgIJ6Auqmzg0IKsEvBK6VBSewDQ+Y5MGSeATmhGxQpkcEGZY8sPVKDzFQ7RJQNLfVUC2EdjUfkJ9pXkrRyRkYGs+pJavfbb79lVUciK5555plYtmxZXbbD2Jop9qtUC4L/35CkqP9I4mtQQiqNT2C12vDmm29h0iWTuP/mvPRP3HsrJdNTMKD/MZy/4ZtvvmbAQFaaDz/8EOecc04oiyOJVFGZMWMGKDpPXzp06IC1a9eCCKZjxozhZ5DlYvvO3cjLbc9SywQQSouLcMYZZ7J8N6Uh2LN7D84efTbKyspCjyPNhbFjx8beX1GuLKEohmgAIc6nxg0QNC3vWN5D11Kq523btsGekoKSklI4/BLSyIIQOHoAIcWisqj1G2hzAYKeoBgBEJy/3wpb8Tx4SQPhuM8gJfVBsOInBA++ARyhDIsEJgIISinYUpSLfyypxYdLd6HG6QmJG0myjF49e2HS6DMwtroS/TfvhMVRCY/ZisDos2C7/mqYu/aCYjDApUis0Z5GYYtxggPqP830rMM9Yd36X2dB8NJJt+1JimEAwQiR/KoNyx/jYtBbENR0z4Idq/rrVUTbCkRlDSAUUrKm9hkMECj0UBTBQyDBsWCgGorrEPzugxwxZPBXQ/F7+XdKFEQ7f9Boh2LuBNnaCZI1DzDYIElWlWsk+omeFqBcDJXVyGqXLISbQqpi7LhovgZCaDICr732Gpu7tVh8zdjx888/Y9iwYc3yTcc0zFSAQFEMFOb4b0NSjPJxRPy76KJJ2Lp1C/9qNJpx/wP349777sfCJZ9j6uSLorbj9Pun4+ZbbuZMjsw7ISksr5fVK6ks/nQxvvjiCwYPxE+4+uqrWZ+CMlFSmujdu3fzdZMvvQzvzn0PTl+A5/nSxYsw8aKJ/BspM5L1QEuYJRsMuPuuuzBz5szQe2LqrygXNWhBiPOBcQMEmkQkREF+HjKdaA0W7b00sAnB7dixA7bERFDO9RqfhDTSQYgwO8ZZ7xgu17I5yogGENiX2ZLFKeS2F9OW3AjezVNgKv8SteZBsPe/Fb4D82Cs+hlygCwGgE+yYndZN7yyRMY/PvwFvgD5O4XFM8FqQ7/+/XHPHbdjXM+eKL7/bmQUFUKSTXDmdIZ1+j1IHHmaEF5WoxHcABxOJ9ISbc2yHlCdNHlk+nMkyAixxtVv/Y/XQfCQwl8QqW0cxaABhCNuBYkMEJpDZYthCqiX/P8JEPRCSLF/S9R1RrUgHCwuQx5bECKsaZruAeMFWux96gVmAR8UIhaSsTiUhD70GrFO8EypgxtqfqTyyhpkpdrFHG4GQG/qq70+L5u8f/311xC/LjWlHYoPHYLZQqykNho3KkBQtFwM/y5RDA00KKlOnn32aGzatJGvIK5IVk425rz4Cu678w7s378/dCe5bC68YAI+/vgj1kKwJ9sR8Ac4URYRFAkQNFUog/GIESPYSk7QOL+wAPbMLNhkGUWFB9CnT194PLR61xUinl511VS89NJLMBlbrkvUIAehqcpH/C4drPQoufYmlBTJZB4EZ/6aP38+XnzxJVRXV7Fq2bx5c5GXmxf1tTTxKIaX0FQK6YeXljBASE9o+zAyQnwOnwIPZ3OMsvkxbyDO1mr0cgXe9WNgrF4LdLoRnsoVMNWshuyTEDSmYMOB7rjvuV3YvKcGRxzCYkDz22Q04OKLJ+H+6Q+iV6eOqH72BZiXLIbZUY3aBBvka6Yi5fIrINnbheJqRdSEArciodbpRlpSAuQ2JXyqoTo+PwyyBBv5JRtoC23za40Fs6zWgdSkRJg0NqtO7lV7TxiwiUcAR7d5anUlF0MkQNCkYNlDHW28NPBOjVFdv5nIp03cGxn0vqMBEKgO1F6lDj8ThFt33EcfCNRUlM2xQ3JjMu6tN/9o+HMuBrYg6Poq1D88UsJfqP2VLQAN1EVrLB35UBsTpWRBSE1mcFBvPogkEi22JOzeswcnDz8Fh8vL2Ujx5z/dhueefbahyORWa1CKYgjKRtgNKnukjbCIVuEyEkpKUIWS9MafVvoiCku84sor8dlnS/lwSt1NHABKAUBuHA04kGLiJZdcwiJUVIiI+OEHH+Ktt9/GpIsuarg2Efk2iMgogIeMRZ8uwcizzg5FMcz8y1/w0MMz1DEnwfB/3IQnn3gSd951F4xGWltb3tgEEEhJsaXrcFSAoAPMouFIPcrlxsnDh2Pjxg2hRqIPOX7oUCxf/hOH3EQW8pdRTCoxPDOzs5B/oAC1BBBUqeVW6vv6j2E3gAKnjzZREcVQ73Tc2gBBCcKzfjwCjt+RMOQfCDpLUVuyCtu2V+KVD37Dv5b8hgCbIcVZJS8vF5dNvgxTpkxBv2P6wv3LL/A9/yIsWzfxNd6ThyPhtpth7j9QWCgihw0pKypArdOFtCTrUQEIJLXMAIHU1fQlTqClnWgb2qh4vZYom6MKEJo9UML1o+uqKXQh9NOQfqvwKuxBTiFtarVom0EYEKn7Vf1TlAndxBynoVBxlACC1p5HGyAcqvYgN5myILZ9YUBSWo6c7DqAwC6y0GbDzID6O7kWEKENjshBEQEQtC+h7Z9Iipnt7FGyD6qDqyUWSu1FErBv3358+eUyJidOuGA8W26Z89DyfaR+xzClSkKNl6JAZNh5w4pZ46l5Ha0ADBA0JcU2AAhUMQIGr73+GmbPno1dO/YwB4V4I2IIiBX2k08+wYQJE8R3qGns3S6XAAyNgkjhVmLpuWCQpZoXLlzED/nbrKdw/Z/+HAIIPq8X//roX2wZorwaY84Zw3srubk0TxVDmMaAa7SWZi+ZaLxWAwiFqg4CN6CuY8LmCUlFOh04cdiJbNJul5rKfhPKdkWDif7bqWMnrpj2DJpXFPLRo2dP5Ofno2OnTiy1XONFswBCkye5eg2msyCYhU6RfkOiMKw6P2XzxrX+Loq5fe/vV2L3rt9RbhgEizUZ77/7Np/whVaCxBM7LycbV15xJaY/8CCsNisURw2OvPkGgm+8iRSfE860HASvvxbtplwBhHzTQv2Nx6xmBSXdhaBwMaQk2YQfNM4SeUtj6w3nYvD7IasAoW4LDYZ8pHUnNG1ks/E1Sq0aqmzdx9FEq6gV36bJ2oQeFKooCdao7RL2yIbMgPR87UICCeFfLEiK4QBBWyjE4BYLCRNMWcpagL3mSKFSTY6WBeGPAgjFNV7kNGWdjHPMNnQ5WxBKRTZHIiFqq3trnMaivZO0z8qra5GRkhR1hLfSZ2nDjj+nttYFe2K44E9rvkc/vzSAkKQChLbAIvq6hwGENvmouod6vB4899xsvDN3HqoqDnNGS9qoR512Gp6f8zySEpPURUW9R7e2NGUh5SVFAv50y214+eWXGTA8/MijuP3+6bCZZBhVoSQaoiq1IRTaqKkLhwYUL4dRTMMxJM4qqvWivb0VLAgFR7xKTrLweWhmVPrIsBwBajtpbFCb1Yonn3hcxGlKMg4cKEBObq64X72W7ieuQrcu3VmZikwuv2//HRVuBZk2Q4gUpHUb90E0FK8bLGEnziY3RMFB8CgS2lmEtHDd/eoCEvbyZo5KBRwWM2nSRGaxEg9RBHWRX1NslGRSpvShL8x5kQU8MtKEhrdvxSpUzPoLbPv2so2g8pSRyHlgBgwdOkTsq8JUqT/N0vd4GSC4kUwuBtWsGnkA0k96TZqe+zpK+zV0UtC2+xqvsCBYTfVdRK1ttuYTfa0LyYlWGFXORf3xISaPyEBZ9+X6umhjOuoiHzH/azxC/S5FHS8U/y4mBlVA3WqaGHciQbeK5DVTnJYgU1XV4lPG/5mLiYNgMwEWo3h2a7dh5DeXOAPITKzLo6F30zRz9Ee9jU9kCnCoxos8PUDQFgjdPKeNtrXKwZIy5GRniihGrT21qd7E2hK1Do3UjeIVyquqkZWS3KBBWD9fteeHWTJVS2ej38+nWJlJkbUON1JsCeqJPtrG0cCTQge/hv3nYWsLKLW7F0FJRrKWn6ENeBYacKVaUy4GkkQmMaG2AiP6IUD9d+QIZbcNwOvxwm5PVIEBpRIPb0ehbEsWG3INau0uxLgiCx8fZODeO+/E7OeeQ1CWMf3e6bj/0cdgjiK1rBmwtOVLW6MFWIhlTYiorPrXQ60AEDjK7fcKj5JiqVvwRaX0W72oJXcmC/4EIPl9GD1qFH7btAnJaWnYvmMHDBajEBJhQRFhFA8GvBjUtx/KDx1Cj169sWLNGtT6jUhKoPhPyp8eZClSTtqkLquhPVt9hrpCqxtBeHfU+XnrZrL+ROkLKKCUGzaDYE4LCSEdi1rsLhElcnjqLmA0p/s76Rv4vZgwbhxWLV+uZjbQZJWB7NxcXHH1DejRuy/GnDsWFpOB0y2bSg4h+N7bwKcLYfV6UJuXA/fU62EafyFruXBCGe10GiJH0WlZC6Vipg0rOLs9PtjMFtUaEvEx9Waa/veGoER0bQq608OkG3C4jiiRnvbI85rYcOuKaHvRC+J/xD9o9n4ihIkraEF0uD2c253M/qLv6lZ7DbSE24zFN4V+U3dcsShr31t3DY/rulej1i+klhMpnw+3NXuzhQlSQ086lKVVXf99qv4O18EdLMZvBW+iwnUQWYnd0Sv7AtjMnaEoEvdutY/G5v9j7zvgJKvK7M+rqq7UOU1PhBkygq6KKBkFBEUBBUQEBXddc0AR+SsGFJAgYlgDuLpEEbOuBEVQggSXMGRmhjTD5Jnu6Vg5/vd8995Xr6qruquq671Zkbc/l57u9959N33fuedLRXXiFQDL36sv5VwbUaTSYpfMZDKqjumTH+1hnn5mNqMWyxTRLuaT8nWihschPmdQjDJrdUjwYqGI0UQWgx0qD4L5BpV/wN7lugyS/uuM7Srqu9bFsRqfjKO7k2GIqpx05Wo3a6/0Di2EnSvUZnYda1c3y3Vk3sEnY6k02sPBUp0Ju5M1P7PMtFW2LJ2POMxfcljTgDKdyyPSRufEctNZs8CyNELl48q+xXN5WH4fIrpQXJnYq7TPVRGjDriudrxTbJrtqPcS25tKZ9AWDCDoK+WhtIttzTCc1f80fZ2Y2TQUfh4+JDNZdLapOXVmwq/c1ywM4C/kcfaZZ2F4eCu+cv55WLrTLlK8S+bGBmBKRhFQnHL8Cfjr7X+UvX7+BRfi9I9/Cj6mWtYfIHvaUQfEKV7sr5/BhuT8U+W24fOTmTw6K5yt69i204bTWjOeKc7vaitztCl7kTn9GKhTBH54+eX41Cc+IcL/oosvwec+d5YSo062VUwMeSxetANGhoclo9SDy5cjlrMwGFVL03TSebKtNuGm6cq/lQvG8r/yb4lsAamiDzSDOovFOOSTEsbKJD0zVWynVC5JAc7x3X+7R6gp1YIBEGoEv/jFL+FrF3xV3kuTRj6VRu6Pf8LEhV/HwNQ48tEOTBx+OIb+N2uW1dWrKi/qj3OsObXBSjJVxo0tkUFIp7PojKhU2c5nzFdWjt1si6Ta3803xTI5ocjCuiSr45McAGwGJqiaM5fenJVzKyfseBKdHQQITpHuBAD69xXvrVdgOtcf+0jzF00MHWQQlD3BHlUCFjPGtop17Ewzbua/OSuL3y4/H/dsuASpQBH+goV+31Icv+9l2Lv3SAStAEZSRXS0+aQMrCw/J8vlWAg2Y27AQ8MCU3371rhiEEQ2OSda1qd6abV11HBzeui2xHJY2KmdInV/pgk2x5qvx2ew1rfw9Zu3jGHBUG85E1PD18gpf5zvNPmRNGYr/UmPD5/jWBGcb5uIY6BH5SCZyRmMa8eM7YxOY1UAhnynliwMh+6Ohuxzq5F/Zeum3smqmH97L+tyyJPZnPggcH3O1dFttk/i94/EUohEgpJt0JbVMwDG2d5Z6+/sNuc4WyBLkkNvuOS0WzYkZs70N0yMT2H+0Hzkclm0d3Tgtttvw2v3fa2YXGWOtALhulm16lm8Yd/XiVmeO+q2v/wVrz3woLJyz2afzdbFmXRcNeumud+Ue252nMxz1trxTHGhBghlisj5D0cvGImwzz77YOPGjejr68Mjyx/Bkh2WVFWuBAj0PWC97D32fAUeeewxjKcKKpPitMbKuzJtgzbRUwIE5gqgiYGXLHQ9guWphx0vN17PVdur8Er2Ad/77vdxxqfPcKpwJexRxFVXXonT33+6MC655Q9j9FvfRWTFU/BlUxh91asw78vnIrTHHqqgUgPEmhHmmSJ9Q5Lobo805YPg7KJTYFYbe27iWFqVew4FZij3PA3OGhHnVD2zTyYpwPFYAp0dUQQdKMe8XnkrmHTR5XK83JSkniihfAdUdDig8a4J5kGwiugM+8qdPskmiCIj46UXrsSa6nbNR9l9LyJvZfDfT5+HP6++DAV/BgUwnWcOEUTx6v634bhXXwzkdkBngCYGNUbTlHQdtsbZR7J0x9ZEDoPOKIZpSKH625xTqg7xM4fMcFbyRQub4jksYQedxNtsCNXxCWXtyrCbtVT5nTToWVi/ZRiLhgZlWsTU28LIHhtMOhT28EQMg90dJoeiK4rUUP9MFE1/JpoYmvE3MiM2m4OwuW8qm9UmhtoRSzPmyp9R802XBWJiiIQRNVETjSzsJu7NFoHJdA69EXX8qKpvKhbgxz/6MVzxnz8S2U6fhZNPOgnnnnuumNe54JLxBH70ox/h/PPOw8TkhEiowcF5eOaZVbAi7QjqTIq2LtJg0/n5zgPdTMCslnnQPLM5pqIYGthu1TXeuvFMcbH2Qah6R8VEf+e738FnP/tZufWcc87BeeedVzMsgwBhx6U7CpjYffc98diTj2MiVUR/JKB8AuoUUE3MvzyiGAQLPXIi1PLFtOmciWYbsIAHH3wI++23n3bUU4NFFTQ4MIjlf74N4adWwHfbH4HlD6EtX0B6h2XAqe9G9wknwAq3Kyp7Biqp2gQbBiFXgCRK6m6P2j0wOq/yuUbszaUS0FoZagUbS2fR5vcJQDBXrdO60aPq72YRldO+4j1Q+pNjFlRE+thUAl0dUbRpbtc2VygbloO1Ki1SddrW7sdltLljRJxMl1WQ0yARwEQ6L6UshEGQEsUqHa/ydi57qNR/leFf24UNAlVtTWET7nzmKqwYvRXPjz6CnC8hdxIPLIi+Bvvv9jns3vU6DEQH0IFO24jCxm1zygxro9FluyWRE3CuxkiPmX6/0zTX6Hur3U+FtimWxRLD4ZplUGVBN3UCrmjUOCkuGhpQJ1Czv82UVF1nzpdMQ7Y1GUXxrxIfhBjmdXfYsmWuwrjaOJp54XhOJVLoiYZdASKVbccIEOBDZ9sMAKEVC0W/wwCEdpeThplPdgIEWzfM0p+NGzfgqKOOksR/Zq6ZF4HVIJl58f77/47JqUntgVZEX08f/nrHX/HKV74SU7mCAIQ2v1U2f2WmQrMl6xjX2dZaywCCM4qhRN5Wd2ZJpdNYsmQxRrZtw7KlS/HMM89I4ggmkmBu6UobIQHC0mVLsWHDBuy22+549MknQEewAaI2u+jKbF2tY7RqIBuGOZJBMAChKiKbK0ixgJNPPlnyQ+SZPtrnw4KeLnzr7UdjnydXYnEihTxSSA4sQf5dx2Hw3z6AYpSeyLa1WWzPjQporiXmgEsyiiEarYEUHUeoymFu4HRqTB+JTBYBnw+RgEpmS7UpjpgGDVT7CjuHQQ0GYdoxUWnbfAHYFlfghwG0ovPNUVSUG9PjElwVkEcWBda1sHREBSlz/r6QQ7aYQDw3iWRuDOncBFK5CSQy44hlRzCR2ohYchOyhbTYE+mzEggGEQy0IZvLIJ2OIVtIIZ1PIVdMo5CjRwtt8KRBg/AHeG8I7eEO9EUWY15wVwx2LEV7dD6igQUI+9oR8AWQs2L465rLcfcL/4VkYVLvEwu+QhgdhShes+AYvGefyxEAfXPoh9CCTHxV9kQZQHD8vRUKurI5ztC6yQyWsM5Ls1u4gecMQFg8NGCbScowwawAoaKxGU7AZj9sHY9hoEcxCG7R8Bq7snyUMAheA4Qup0NytTEUAFaNqpk9oZBzxA1AiATcN2mwXQMQ+sNOA+bsCy42NYk3H/FmPPzwwyJjal2dXV34xsWX4IMf/rDcEsvm1eFqhnLPs7de/x0tBQiMYqhngUvd6wNU3WvmA99/v/1x1113SW3ygw46CJdddllZZkUChGU7LRMv/1122QVPrFyByVQBA0yUJAzC3BOJ1B4ykwfBQldIOX85+2gOFvUPee07eYp/4H8ewKpnn0H//Pk4bP/9Ed20Cdv+egf8fgs9+74G/p13QVv/PMDyiwMeL78uWCX/aIDRMLQjFzkBQle0xCCYV/G/JRmnyzs32Vk+za2QyGbRZimAoN7vbMHZsrMhfY99ACeVXkChwNS3GeQL6n+5ApNHpUXR54o5ZIo5bJ0cRsEfR5rVLzNjSOWmEE+PI5mZQCo9hXQ+jSxSyBQTyBbiKIBUfh7ZQgbZfBa5fAY5/l8xJ+BChb8x8plFspysg+YA+PcC+QIGLiiOWqbFACDxYlZlhs0R1YBi5XIZgFWg82heFlub1YaAL4I2XxABi45fMaQKcZ2zXy0Cfscu0X1x1qF3o60oUMi1aAYCBJoY6tnrTS4V+zEFENLYwaM8CDZAmDegzAv2+lc7vV6/lHr6bXwQaGKY16MYhFaPqdnj5nu8BghiYoAPBAhVWUyn2a7KoE0fD4djpZyGyt86HGOugZBEMbR6LCs/z4CusURO2OxGr6mpSVxz9dW45OJLsGnzJvtx1hYKRyI48cQT8ZWvfAVLly2z/0aAQAYh6BFAkCiGVpgYyCDUCxDuuOMOHH7E4VXHc8GCBXj22WelQIWRvQQILFO6dt1a7LTTTnhq1SpMpg1A0F7sjc5OvfdbRSQyxkmxCkBocaIkLjqW8tg6Nob5fb3aTujkN6lsCqKsUvkpJHOTyBRiQDGHNj9p9C6E/FH4rSAsi2GgdCZTp2QqK5PfnR7hOaSRKSRF4cSS4wiFLFGy/IsIRtsTm/Q5FV4euXwa6WwS6VwcqXwC2VxSTsfqf3Fk8/xfEoVCVpQWU2i3+UPwW2FJ92z5Oa/8Lp8oWlGcBZ7S0/I8lXe2mEK+yFFQHgJsWbWvIlbSmSRSuTgS2XGkMnFkcgnkkVbmGZvJoW2fERvay8BBgYtIEW2tlLuSMwpZKXFjGwNsut5EA3AEle1WmQyMChGvY8uPQoHRN0yaYrgRVQZbrRxNyWtvWmWuUVkQlHd0QeQd3y8RQCwnLE2oyBM1En4UpNIffy+hKiriB3m8onN/nHHwHQIQyv0nWnv2/qcBCDJf9ir5hwMIleCA3VEAIYmeaMR1Bcqxm8qkJSqtk8xwFZlbSY1XWsIaAWTcEiOxJKIaIDTybL3qwHnfXAGCeVc+l8Wfbr0VL65dK6GSDOU/9NBD0d3VPe2zvGYQWpYoae1Epriosz4GIV/I421Hvw133nUn+DNPT6w0tnDhIlxxxeV4I735HdQcAcIuu+4iiZKWLl2GpwkQskUM0nO0nlipZmbfPOMACBLX7gLKL32eUipTyGLz2AiWdHcChSxyxQwS+QlsS6/BpsTTWDv2KJ7f/DDGUptR8OXoyiVxtSrDInMZtMFXoGIOIBwMIxRsRzTYhXCwS2jtayyd5gAAIABJREFUXD6Bydg2jCeGkcnHFKUu4XBK8Sg1ScWadwB0KiEdpqqVFcP6VeiZCsqRk7LQ+orgVul/fJrW5/tzMOcIpYJVhjpTREZNpW2V08rRKGOlTEXRitBW3xJgW2QSpH0qTIpAx6leq2qlntkH5Yhm/BbUJpcgI3mMVL5dpEL6prJpMlTL4tcX/cJ+SIlc/tfH0Q4hhKic8gkSkqyZUeTJ34+2QAht/jD8vggsKyh/VxHaBanWSfMFCjnk8imks5NIFxJIFmJIFzNqbIscN5ojEjLP+bwf8LMPNAyZULUAAoUcDljwEZzy6v9AQMAFY64bo2fr3SYvA4R6R2rm+9xmEMqKqGlr0/81gNCakTQwXeVBaNdOiq18d7V3GQDWLINgv9MZMWwY4BqmqcmcYhBCJp+Ky51sKUBY3KHC5Oq5WMDi6RVPS+pl+h0MDQ1haP6Q8kGoeAtBxK677io5qemsuGLFM5jMA4M6LK+e9pq/p2RiIEAwiYSaf1+tJ9WKSFpbcO19Z+PF1CPwBfyizNP5SaSyMTDkrVDMUT/oMdKrSU7XwmeLoiyZHlSwlag5o+zksKxPtVLoSp2gmcxEeAp9OlbzaEJOS+7jCuFTVfok14CKw9UnbsWpSyIQQ8eqs7E6k5PyU6dlpcDkrdoPkDepV/MUzV+S9Sh9jznlq1Ey79e+C3o0TH4KiUvQG0yVAg8g0taONtL0ZFmsdkR87QgHehAJ9qA92InO0AB62xeiPdyLANkOggErAD/BluUH/49AIOAPCxDw+5l/PQi/PyAmAJ8VlM7QbMA8AewH44cFJJFBMPH0MqSOxEyazDCGgjwySGXjSGSmhIkRNgVJFGkuKaSQLE7h7jVX4OnhuwQQ+Ytt2HPeCThw6Xuwe/e+6PL1Ozzr6t2Nja3mWj4Ijb2lvrs5jazFsMRrEwOdFDVxp3mmljMIfC+dFI2JYS5RBfWMJveQEyC4fcLmNo1l0ijMwCDU89313qMYhAQ6wmHQB8GLi2M6lsiiLzL3wkizfS/7N5VT5Z6DHgKEeXYthhqoZbYP584hg7Ckw51BYi2G3XbfTWox0LnxmedWYyJb8BggqGqOVTexQX11DNRMt9CmPlFYg8v+eBy2+J+SqASbqhalq07lfgSVgvN3IRrsRLitQ06LqVwSifwk0vmEOMPlNPtQsHLihCdq1fYkU3kazam86GtDm8XYaHPCNWhBLwqFQOBDAAFfGEF/O0KBqPwvGAgjHKDyDYtpI+BTJ2VJwlQoiF8ATQj8OUMTRY5+AnkEeCq3LAR8IQR9EQR9PG23yXvovEfqXAEH9Z0ms07QH0TQiiDs60Mo2CHKPxLsQzDQAb/VJmYNMdH5/PD7g0ingc5ID4JSYlVXvmRiLeEzlAJXWMiYBVT6ZJlWTTErUKVmz4CUSvVrwM4Ec1cXi+gK04yiX6CVjTGbGKbE/rVjYShAZRwqFZ/DdN65Yhb3rPsRfvvUV5Dwjcv6+Je+Y/D2V/4E80L9aCcTYtainWmp9SDhnw0glGa9uXTYM+15KuzhiSkM9XS6Tvm/DBDmKKCrPO4lQGDzZBBY7pkAwYurpQyCawChWJDohRdeeF6KE61+4UWMZvMYjHjh2WwYBB96gtUrAkzPGNPc1BWtnMSwPzb8V9y78noUfWMSvuj3dSHSNoiBjqVY0rM7Fvbvjq5Aryg4f5HhZlR0Ko8wT6D8n1JjFnJWAalcAvHkKCaSW5FMjaOQy4vi7Iz0oiPah7ZgDwqFALpD7XSPs/0cRTHJQhTjg8ATAgjlE6nO61RcojwlDZGOqDBOuYbgENs6zRh+8SKIZ9KiOCNtQWVFJ3gRikBR9koD65fIz47TgMOnQDKk1XLW0cpc8iDE42iPEMA4kqeUNL09Voa4UkaTWhtQRTio7I3m3K/mWxwSmZgprYwd5tBrcLdiSBQIKY/YcKZdrbJ2tEnlyZGb8KP/OQ1p/5TAnG5rIc489HcI47WSyS1E9GqQRXNLsK6nXsoAgezbui0jWMJiTQa9GWqt0kBe12jNfJMCCJMY0tUcW/DKmq9gN3I81esohpcig7CNJgbNINSbq2EuY+41QJjK5hFiquV/NIDw4kSmuIOLDMLue+yO559/XkwRa19ch7FcUTEILTq9114kJYDQq5zDp3syzzXEUTeuHNEspAtFbBnfhoV9PfrUT12kaHVRyHUbcsp7VeZxb9qEhWyxKLUYmCipjJirlCAVAlJ9b+myT9a2RjQncnNe9imKk2GOTL/KE759Jq+mkJ2UVnOImfpyNMEKb2QcdB4L88lVGLPpLercBfKMPqE7wEG1dcPiSYRs01lxDQ4MNVHnPPKpx7fciGuXfwiTvhHkrTza0YcPv+Fn2L37MEyk/egKQGKj6Y+hknc1N171CEsBCNHqTmf1PN/IPez7eh3m2Mhzzd4rAGHrCJawWJMHAIEAdqtHAIF7wQkQ3PbyVyYGVYuhlpNis/NU7TlO17ZYXMo9S4RUix3Iq7bpoYmB7RuA0OahiWF++9wP4pbbAGGvvfbCqmdWSUap9evWYzwHyYPgFUBIF5WJgde0Qin8ZQsEsma6JbZ289gYFvX1uk876lhehlgyzLEhy50zSc6MIElLWp1adiqXldrlUXHYc/diyyNkEKLRcoDQiDmt3Lagy7FOi7CyjQ8GINBnZdplymjO5r7teJAs0JUPvhsPjvwGBZ+FtmIU79jzSzhsxzPFM2IsWURXEGB5BLOGSgxF68f3nwYgOIFkiw4BlbNhAML8GYo1tWIGjalMJUpKo5eplhvZA818hA0QGMXgfqIk2esaIERfBgjNzNi0Z2hi+D8PEEjpvoIAYdVK9PcPYsPGDRjPWhiM0JGszGm9JYNS/hLFIBiAQDlRJvYrMsnN5QO2J0BguWdmG6zbCbPJfnMTT+ZKDMK08ZzLAFZ5lu0Nx+LoaG9HWGc1dpNaFcqRDEKR1Rwr4I8zEUwDEQYZXw5XP/BeLB/5pRQNO2LxR/CeV30HBUY0+IDRpAUmMQ1KfKRZnaaIS4sHFEDJxFDNg6K17W0vBmExGQSDAV00MXgNEBg8HPMQIExlMjrM0XuAwL3oNgiiGWM8kUNfE3kQmtkpXjIIXPabExkMtbeg3LObDEIJIKxCb08fNm3ZhImMhYGotwCBPgi2+DX0lW1TnvtZuBpAUI6FzSyl+p+h0z0BQjcBQt1tNa8cJnPM2WAhQkdGly8DELo62qUWgxfjSYDAmJBpAMEOy2gssReF0ObkSjy45peIhrux75IT0RMYkigGmhO22QyCXpQyhy6bGCTVcvNroN5pNwBhsUeZFI2J4WWAUO8MzXCf5EHwHiBILQbNWLgtO70HCDlJUe+FieEfCiDs/cq9sWLFSnR39WDL8BYFEFhRTuj9FizmWq+QPAhFZGhi0ADBsMOlXPStOa1tD4DAoaNJI6EBgtsbisNME4OkWpaoAncv9m/rVAzdnR0wjL/bfawNEJrvK4NCC748ioWAciRVi0+W/rZkAV1By7PsatuDQdgeAEFqX9lRIe6krRYGYXIS87u6XIR0at1RmZFBoImhzyMTg/cAIYZIJKIAQo2qr83vwulPvgwQ6htNV30QyCAYgNDR0YmRkRGM5yz0R/ySE+ClAhBkqC2AJ/ot2gfB7RMvQYmq5phAT3vUdbbCAAS/z4eoFwDBogD+xwcIVbehjrojQOgMWp7lZ3+pA4S1W4axw7xBu7pifSKwubvIWGxlmGNXp+v+OFKemKf6RBr90ZBre93mlTxmEDgDI7EpRCJRcVKsnw1tbu4M6HqpmhjYv42JDBZEqzgpNqh3XQcIr/qXV+Gpp1YgHAljbHQckwUf+iTO3HuAIKRFmYmhNU6K2wsgsKZ5LJlAr0cAgT4IAhD8qliTmyCI8/QyQGheAFZ78qUOEF7UAKHx7PqNjzOjCrZMTGFBt7t5EJxOipPJNPoi7jkpvgwQGl8H9T7hpQ9CiwFCurhDB+MAW3+RQXjtPq/FY489hrZgCONjE5gq+jFIEwNXo8smBmbGyxZ96AnV8AdokYezMR2T8ieDsJBRDC76INhCowBMJRPocxkgiGmG9dONicGvTAxeAQSvfBBGJcyxmg9Ci/dGGYMAhJhDwoOrFMXgkQ/CRAZLaN/z4OKJXgDC0KCU0y5dps6HyjfSiqglvtsAhIVdna6bGNgdtjeRTKM/HHK9vVKYozdRDIZBCEeiYmJ4qTIIQZ0HwT0vo9KqrxnF0OAesNaMEyC4k0mRn3vwIYfgvvvuRTAYwtatw0j6wxikk6Kb4EC0VxFxDRAY5uhme5UAgWGObitPERpF0o4J9FdUc2y1PDaAhBXeDIPgCUCgD0KH8kFw3WcFKoqhupNii0f0n8bE4F2q5aoAwemILDUuVE6SVlwGICzq6mzF62Z9B00ML3WA8LKJYdZlUPcNW+IZzKuWB6FB5t5aPZZyDyBYwGmnnYaf/exn8Pn92LxhM/LtXSqKoXYp7boHYcYbLSCeLQiDIE6K1QBJg4M1U3uUPXQk2jI6jkWOREmt6UzFW7SMow+CVwCBXzDpAAhuAiC2xfEcnoqhi06KzrA1VwZUvXQsw/CqQpUohhY3agMEkwehNUprtq/cktSJkjyKYtgwmQGdFL248j5gLTMpzhuoYBDcaZ2AZPPkFAQguHnY0WtFMouSQYi454Ngj5TkQcgiZ/nQ7UEeBGEQ4jFEwvRBcL/cM9tTTop59EXcd7hme7FcAUG/hTYmfXNzvehJ3BLPYqh97gd/a/VY0jUTA7+VdbEvvOhC+PwBrHl+NQJ98wQgCKnq5kCRQcgWkS2UohjcERWl7LtemRhMP9ISG+0Ng+AECO0+b2Kjt07F0d3Z/g8dxVB1zf2TMAgbJtNY7FGxptomBnd2vZcmBvYg7eNhIIX+MAuSuXzpREk5y+8dQHjZSbGlk9qyREmrRxPFJS75ILDHP/7xj/Gxj39M8t2vePpZdM5fhIH2gErF7yaL4AQINX0QWgNSvDYxmJXEyg0ECH0umxjMid4wCO1+901EEuYYi6O7ox3MW+S6z4o2MTAAsacyUVJLt66iQ0yY40s5imHDRBqLTRrTVo9hxfsIEBjFsGSaD4I7DbM946To5onQmPckiiGeQl807L6N/mWA0PJFw2qOLPfsZTXH+R3BObMVlqsAwQJuvPFGHH/8CSIUH3n4ccxbtosABCaOc3NjUQTHc0VkCtWdFO1ohhYsBa+dFLcXQLB9EDxiEJhJkYmSRF/bJaRbMGE1XvHP44Pg3hiaN3NPeA0Q6KRIgNDmJjOpO2gAwnyPohi8AAjOKAbWYlAmBm9qd3gd5kiT1ETc20yKXjkp0oK4KZEBAcJcmXrrhW3xOTEI2VwW69atw/yh+YhWOcn+/e9/xyGHHiqA4K4778XOr3o1+nXBGHepsu0DELaOjWGBG1EMFU5W3MxkEOKJOPqi7a5LfLYntRh0HgR3506dsFkjvrMjqjIpup48pSjVHN1zUnREDmwnBmFrIodByaTo+nKR+ds4kcailzCDIHkQPAAInK2MZhD6o2FX5q88iZwq1uQtQFCJkrzKg/BSBggF1gT6vwAQCsUCPvTBD+HXv/kN9trrFbjjjjsQbCt3SnrhhRew5yv2FIn0u9/diH0PPRz9JszRUZ5Xoh611mlNmEtRHEOyeR96wtMdQ+ik0pp2Sq4UWRSxdWy89QDB9uhUqX5t2rFIE4MCCF4o7KlsBn6/XxIlud0erU8sAdvREUW4Zb7ntRSjirlVxZpY7tkFxyUzh7qWA+dwRDIpehnmmMW89jZXFEzlyPKETYBAE4MXgESZGLSTYuXHzGWx1gBTMyZKara9GYBbWhIluWtiMBCWsjGRziDn845B2DYVl1w5kTZvwhwlbDSRQ79HtRgmHeWem10edcF6OUj6sCmexfyOtlJCUTuzqH5LneZ96/kRMgi1vR2N0q5cu2wvk87gwAMPxBNPPIm+vl48+eST6O/rs5PoUOiOjo1h8eJFKBSK+O53fojjT3s/+qM+LTRUmWQnOHAOQi0FXhnFXbUgI7MM5gpIaxMD32s8742C5e/mDBL0adCEHW4dH8eCXlXumR1rSYS7lrCmSLOZi0wBYDVHJkrSzZWtoUYjDZxmF+eJwuRBiOWzsCyVKKnmuDVZDKqkRbgeiizQjNEpxSAQILT8stiKGklVYtnCeKoIn1VEZ9isz/JWy05Zjj9Vrj/nXqk2Tma9j0omRVZzVNWoailSMy8zmcWc+7SaAGKbw3HFIPCbzDdWvXcGCTaTsnfuKw7PhvEUFveGQcrTMEAsNW7WsTRj+t0kq2Eeo8Jev3UbFs/r9yyKYXgijnnd7XOXITMsbrNWGMUwmUijh5kUW5SDpHI9O9dQUkcxSDVHlzSacy2x3HM4HEGkzVd++KiDOawq/yvH1PEe3s/qmJNVAIK9DBvo84x7Qq/xqUweoYBPohiMLir7RF2vTdp39lnrFyPg6/0sRjHMo153AAOd5V1eRZZByb4qgb+ONq3nhuPFxR2BqvlDKqMAnXuYL07E43jDfvvjueeeQ19fH556+il093SX+s1iQvEpLF60CNlMFp/4xJn43NfOtwGCCDwHoDELv9qHVwqf2RSGfF+ugAx86J4l2sM56NUm2/TbfIP9nRqpUABKmGMBGJ6YwPzebjtRkjafQ6SkZknKxrEsoVLF9Ot/1gJAqlhTEr0dkWnD0Sg4MN+m12dZHgd+L08VsVwOPssSgGAW1mwLtprcn+kZuZ8LtAhsiyfQGdUmBpdYBOf3CYNAgBCioaF0Va4P578FiM/iT+O83wh8/ndbqoCOilTLtcbG3tw1FOlMQpLPcv62JvKYxwgivV6dr6p8bTPAVvqmh439YJjjws6gOCSbfilQNr2XzZiQ2CdzUYFuHBnDgv5ekMM04yzrWQtBJ3a1v3MmBWTe75hfG5AQcE0qgMBinGYdmO9x9kf2j/7DjAcSR3+M7DXzmmeismQGPdXS5zZ40Kmca2mLJd21LOLPBAh5y4eOgL9Uitwxt7PJ31p/r9Y2J4t7PRoKI6wBggyFUWKzNNYQtuTa96scMpPJHPrDKu+mPfRG5jp+OZuMq4W2RS/obsQcAIG/m2l/2bJbz4m9phpIvrcpocMc7czBpb0pO9A5thUD6JQl1tObY8XBDgp8Ww1WuPaXumIUOtGHVSxgamIChxx4INavXY++vn4sf/wxdHR1OcBGEdlEHLvstDOS8QTedNibccXPf41OHdguA2H5oE4VajSN8jULxPxbfXT5VFVdbI5FnM4TKVpoD6gnC2yl4iEyGI61WHUp1mrHFnr2icxCLDYlsftKayjpZEZwpu91Cpbyj1AC1ak4zTjIRk6nEA2RxnWKZ/UGA2iqtTuzklaj7tykPEak83nAZzxxS/2SqavxQvsdlX+fJakdBf5UKoNwJAhmFPc5IW+z0sn5nGPzmvmPZYCAv7RezMIocQ3TGzbrs/IvSiGUd9osYbIj/HkyR/NCAQE5VRS14+7ss8XVYL/ZYXKqOSz6leOpgpjbeEazh1O/yKlsG98RpU0nSkbmy8LmZA7ztb+R2nfqQ+oH+/XsGDXObHfr2CQGe7olG2ZZiBSPwDNokWprV7FKTsCjgY0WuHnLwhgjiCKsg2JQRom3LQElIwdKs1MTzMmadMytzRT4QYYkkc2gI9AmMkXk5Syaq/QNs2wYw4KS8SxaEnGWyudQtFgnxBTWq8FJ13V8LyUycR7ASo/6MJFKIRQMqoglvXW4jqxq9EVDiMAx7gY4ytj5EE/l0WUadK7Pigz8zmGeUedU6hbHt8fzRank2GafGKn7nGiEIF7vj2nTVXqx81tsIFFxP987rP2Nipw2nz6f2oqoRCGWrzatNxzvs57YMF4cCFnw+S0wNbLeBqKS1L/UW21laC/hogCENx58CDau3yAmhgcefggdnV00gdgKJp/JYI/ddkNscgrzFyzGXY8+ga6gVmYOWkUBBNW6Epdmocwurkr9KQ0fvz9FgFCkwG9yRZUN/HRhX65Ai8gXLYxPTqGvu5Q8xURrGPVdbU/PtADtsXd0gRuXi4mTm0il0B6it+r0PtpjWKEYq+iuKktS+23YJhQCBKXa2gL8W9EBKssftzd+hYllplkoQ636HzwxRaIhoYzVKpxJVc8iBGf8M4W4hXhWOSlGA2YF6tVYvo9ne1ONv+t36tOmRS/qrIWwjwlUFK0qvZtF7k8TCg4T1/SG9YhrQUQTSm9YSagSMC7NijG5OPd7dVlVfSZLc6hg09ZkEYMRvVYcL6pvN1a7q5ZGVACaYYeDPZ0IOPaC/ZaZAEKVGZvWkv6F6plPDh6j8SQG2kupj8vGr6I9888Z94CcJ9QdZOpkHgRf+CTVMv0CuoJBJafLhE/1mVffWv0qAcySUlBNqpWRyOVQkMqtam0qfaCuWXBJWYP1zbWFiVQWwbYAwn7VluyHesFHHVtfdU19OXUmZWg8XURXW2mvG3A2HcDW6sX0kXBqIJlHfbiL5YsI+y0EKDft7y39NNu6qOxi9TlQhwy+a1uiIMEAslZkvZSDDPO8+m3tGbVWbp6QKAYDZii4zFXlUGqjf1lEsRje8IYDsHr1C+jp6cHjjz2G/oH+snvy+RyW7bgTRkdH0dnZg0efX415nW02BW/oedNm2afWs7pq9I0KLJZjoiQL3bpesBGuTlvbjA5U9ewEI4N9QJomhvEJLOzrtikcTk5VFFxtUVdodL1fSzyVfkYWMKs5shYDEyXVWYuhru4YQegEJHoNTYqJwYeI36fmT76ncpIcrVRFKDM/w/mQx5hJcTKBns4oHHu4gdNnHVKjdLCR9ibSbLyATjopGkXt3A/1vXLalrN9HWzgq8s9x4voCAEhASQVtF/lyGo5Vm0Onaf/Wp/IMaVTZH9EZaozyoNgXt5pEGzF6Wna+6rsSec3mddwfa6fymJRZ5s4ftrKxbkmnBqnXjxQQyZwDNaPjGFhf49t5y2TY/Y/9A9VBrKqLNDzLycxx0WGiyaGBT3tmpsvydkylrLmHqjic6InRbpoGC49V+zfZDyN3vaQfXqqdqZvxDRU7TRvhpeZFAsMc2xTPgiVzGu9W2EmEW5PQVFFLEUiYUQD+kBa14P1foW6z+g4mmvogxBP59FHROJYh2aenebvxlopv9u0OZnOo83vQ5iHq4oXNgO8ZvqmQh6gD8JgNAC/8XnwAYWC5qJncCqp3APWqs2TxR06HUZ6TUfU4zCVz+Vw0EEH4fHHH5cQlfvuuw+77babzIR5Pl/I41WvfBVWr3kR4UgHHn1+DRb1qlCdOTsIzjhz5QDBgANbTmik1eg3yMKpWLyCPH2WKGwChAW93QoFzxUBS0Nawph3aeaAv2Vq53gigd6ou+We5SvoRa0BQlQDhFrDX51GnH2blY2rBgi9XVEEFG9tX3Md1sovMe0KQEARXTWcFGfvQX13mBPKaIL+DkCb35rzXnCOidFJxm/BrKLhZB4DEeWDYJ8gdOfnvFYdXTfrZd1UBos7g8pG76inUU1A1gNeZxpdnrDXj4xiUX8f5p5gdvZ5JOU/PBHDvO6OOc9dTVCnZRTHRkxuiRR6KsIcHWJh9o+uYt6pJRfj2geBqZanXS3OYcO1QYAQDSuA0Iw/Sl2d175UvFdCxG0fBAc6NlzlLE7DtWRI+e9L6JDVHMkU0pyo+meUSIF0kQIwAgwNdK+3R9Pv45s3M9VytE1eXbQKYsrn4adEzbOt2eGkAIQlHeUFUmcAvWVfQ8X4kY98BNf99Kfo6ujE/fffj2XLlpXdQ4BwwAEH4oknn0IwFMGjz76AJf0drlY7NB8QZ5hjwUIXTSiVSr1JgFDWOX2qU/ZASxxfCBDopCgUfENkXPUFYeaick4EILDeRCKBHrcBgh4rAxDaNe1Y7VhRyZYY35IZl7sojwoVIbUYFIMQKOixnKsWmeEjOJ6TGbajAIK7WT7VPh1LKAZB8rOX4I/jK1vTYQNItia1k6I+epbWlBaQNmqYXXDMJr4kqmAqgyVdwVLdlRYrFuc3CEAYHsWiAe8AwtaJGIZcBAiiL7TmYP8mEyn0RuaeSdEpCsvYHz0//HssmxEnxa5AoDWRWDUWjOhDMgjxOCICENwNc5S++9ThKsZaDGQQ5DIgYe5rv1pXYwYgTDsMVFIlrdnzTLW8IMoiRPprnHSN3eTsbVkrN9HE0GQFdZ8KdTzjjDPw+te/Ae8//fRpdDoBwpvedDgeXr4cbcEwlq96FjsOlrz8ZxM0c/m7RDEULHQSIDgoXAPUqLzolNOKi68hQFB5EHpagoKdp4NK5oL/5iJPJBLo9gggmCgGV2sxiI1BHTeHdS2GNgIEt2KtRADTTmcJQKCg6HYbIGhxRJ+Adglz1GvQZoxac5JwrmuJYtDFmnxOblriph1CpI5TRT37RQEEVYuB7bVml9Vume2t27oNiwb7PWEQOJ5bvAAIeuDYv4kWAYTZ5s9LgGBUsxMguM0gUJRQdk4l8ui3AcJsozK3vwtACCgGYRprPdPmqMQPGjDamKbGZ0kmRWfECxVgnbkPnK+0Vm4am1MmxdmGrVAs4sgj34L7/34//IEgHnnmWSwb6lUKtFrnZ3thA39X1RxnYhC0J34LQIIobDIIBAjMg+DiackAHIWCPTAx6AUcy+bElOIqQDDzS9pxKo6uznaIT6uLlzjwFIEJMghFMgisNqo9I1uwNqp9Ors0DSC41EdD+W/VeRBI+ZcuJzpo3QdQFq2PpbG4M+QaBe/8WkmUtHUblgz2o8njTkOdL/iALeMeMAgOgEAGoTsSFpONmxf3AzMpMlKjK6DT9brUoNleIzGPGATNhipGJocBhjm6swXKRmxGgNDisRXwGstgqF3NnTCFTQOEjWPFRTrjUku/00G/H/eO4/HXv94pWfgeWvUMdpnf5365Z9qYthNAmN/bo2K/XdzIfDUb19+AAAAgAElEQVTTr5JBcNvEYAAJAYLPZ7mbSdER+8vkKV3t7VLu2c2rBBB4miaDEIBFjx4djVMzhrPZj9JCajxZwSA0+75ZnjMAgYmSWAfFbQUj6wXAulgaSzq9yaQoJoatw1g8OOgJQKCT29aJSczv6XIdAAk7yRNvMonuSMT1+TMAgSCo0x9y38QgadUJECLig9CoX1gj28aYGCTxlKnFUGm/beSFdd5rAAJDHd1k08Tpn+A1pmoxqOQWipRtZlytlRtHi4sYxVBnR+u6TYMDERTFIo57xztxxx13wef34+GVq7DLgn71miYoj7ra1zcpgAB0Bn3iSe28lF2WJgb+du69dzIIXgEEpl8lQHDbSdEI/HhOMQhuplo2yoxtEiAwUVLYTfOCsPmGQVALsjvIvCDuAQRzavIaIFRnEBrZUfXfSwJmfdwbBsEo0A1bt2qAMPf9PFtPqbC3TExigUcAgWncY8kUeiKRpgT9bP0pl42GQYBmENwdT86fEyC4amLQp2nudC+LNXkHEJQ/3OZ4OUBoVstZKzeMFhe6wCAIKJPwmCKOPfY43HXX3QgEgnjo6ZXYaUHftNC9RhZwvfcmsgVkZjAxiCdpiyhkLwGC+WR64nrJIMS1icFVgODIaeMVQFA+CMB4BvAXGVlgvIrdEYzbCyAwecoAQ59cZLbM3lQmhiwWd7WJD4Kb10sdIJAypkNyIpEUgOAmMymHATExZFHwWej0q5B0Ny8vAYIJEuCSHGeqZZ1J0dX+idOnSrXMcs9uXpJHw7KwJZ7BkGYQ5tKktWLDtuJCFnBp5Vc7XsZT+nHHvgN33nUXQoEQHlyxCkuHekp2HxeFlXJS9IEF5apuKuMQN9e+a6VGtmJkTEcxuGli0O0ZgEAGoUqepLn2qvx5k2pZqjkyZKa1r7ff5jAxjMbJILRD9LVb7WlozddPpAE/mP64PDlYy3uq528iVQQdjV0XGro9ya4W1V7pLo+nMAixLJZ0tblvTiQF7zQxuNk3vRjYHqs5Luju9EBhm4glbwAClYEzisF9QKLYQobKM4TaMP6utKvpdgEIyTz63SjMVkVgTOUKCPkt1/e6NC0+CFkMsRbDHPeC9fT6ba33QXD4HxAgvO3oYyRHQqgthAeeXoWl87rn/OH1CG2bQQiqKIZpV6sAgnY6N06KbpsYDA3PsP0Eqzm2t7svpOjT8RI1McipiQIjU7QZBDcthZ4zCBogeGVikPUpDILKg9CM7bOe/W3ueakzCMrfqIg4TQzhiPsneg/DHM3eG4nHEA1HBSBQwbkCDsw5w6fySkg1R88YhIIkRHP9MNBqBuHpdSOumBjM5mVJ6Le+9Wg88MCDAhD+5+mV2HGgS/15juhmNiGiAMJMDELrvsFrEwOH7p8BIHRFowjNhSObbZHov3sCEKTkM+sGKIptLFUEc5TZYY51fmujt5k8CC+bGBodudr3e+qDoB2SCRB6w+HWsr1Vusi9QAaBmRQ72hTj5JbCFjUgPgglgNBSNruif8rEUEQeVslJsXXLouqb1Hh6DRA0gzDHEHHrqXXDrTcxOIaJNpEjjzoSDz+8HKG2CB54egWWDJRqFbgJEpIs90yAwHwR1cBIq6hrp4mBiZJ6ut0Nc/wnMjF0RdsRbNU8zSAIFECA5PEXHwQ3wKtObWhezeqRZAFdP1XYJgaVKEkEsBv9c4wvodC6WBY7eGhi2KCjGLzwsfDcxCCZ/9LoDbsd06MmMZbLIg8CBL/rAIEL0jAITOPu6voUE4OqujBelijJXZSgTAw+iPXSzb0nhxAftsRyGGKV5tlres3YceuptcOuMQiq+EwRb37zm/HI8kcRDIbFxLDDQIe3Toq1TAwtXBOeMgj8bgtIA0h6Fea4nUwMnjEIRWAsWxSAIBXe3NjE25lBoIlhXnvAfcrfDnPMgmnc3Tx9mhMoT/Qbhrdi8QDDHN08gyqhIQzC5CQWdLsf5kiRzyiGBAFCJNxCqVX9VerEq8o9dwZULQY3zUSVDIIWb67001TBLFiWZ1EMHE8CBBZrcj3MUYwnfqnFQB8E6l8NuZoaT+vJF7e6BhD4RTQxHHXUUXj44UcUQHhqBXYwDIIbQtgxDMbE0EUnRQ9oMs98ELT8exkgNLXmqz4kTkv0QWAmxZcoQGAehEGvAYIHDILtgzA8jMUDAy9NgCBRDCrVstuXAQjKxEAGoQV1ZWZi7wyDENI+CC0JPK8BfrTsZGSIV2GO2wUgJLIYam8RQFjQroo6tPpS5aOLOPpo+iA8hLZAEH9/8mksHeyRplxosqwLiWxemxiUy5lb7QnOYSiSFGsax/yeHtDR362Tk3ECI0AQJ8Vou2t9MwPKNuO5LCyJYtA0dasXjMmIridKEiV55INgA4RiAd1ueTZbBUnpzFKzZCiUiaGIEBeLi5ep9qgYBOZ4qFL7ooXtc62oKIYMdqioxdDCZuxXsT1S/hs8AgikbcXEQAahq8t1p0GeCXOeMwgZbWIIwGcVdEp6dyQo50+ZGCKI+FXGGrfktZHVKoohi/6w+6W9BCBk8wj7fRV1V1q/G+hdQRPD5ngO81vBIDyxZovLDEIR73znO3HPPfdKRam/P/50KVFS68enAiAoJ0WvGARVrEkBBDdTLRunM5YOkERJdZZ7nstwK4DgfaIkzwGCqwyCyrshClsDBE+dFD1iEIQ51HkQvAhz3F4MwtbJKczv7nSVfpex1LUDkqzm+BJlELbFY4hoBsFE+bhh1jDv5piOJbIY8AogeGxi2JzIYn4rGITH12x210kRRZx88sn4y1/uEFx4z/LHsMcO892x8VZoQGcUg6DSSpNGC53fREiZao5eOSkWdblnDwCCxEY7yj27YqPXRweTV2c0nkBXNIIW5/msaWKYyKowR/d8EEoAgWtxNF1EZwAI+t05mdnsj3FS9BggbNCJksT1wsWLe4+1GOikuIipll02XbIrxknRK4BAnwf6IPRsFydF900M26SaY0RyrHA+XTMJ6zwIEuZIBiHkPoPA9RLLFWSfS+VWF9encr+0sDmRw1C7qjMxF+liESAs0HWjW72HjZPi+9//ftxyy58EINx+79/x6t3KS0K3ul3zPpoYJMyRbvAaDMxlsGp9p9PEMDIxgaHubtdNDMpxSZkYej0zMby0GQQWa/IXC+hy0cTAROnGRDSaKkiYI72b3byMicH4ILiZytb0gwJ4YyyDRV7kQdAKe+PwMBZ54INgTAzDk5OY76GTYjKZlmJNbsgw5/qzwxwlioEun7qonUstGydFAoR2h4nBjT1hZDUBFwGCYhCMxnZvZE255/LS7q3vIc36rHy7WTspksqbS5S49djqTa4zCB/96Efxm9/8TrDNjbfdgf1fvadnDAIdB7tqZcZrcaIkrxgECnwuafbNaxODz+dDxDcXv9iZN4UoT71PR3UtBi/yIEhudu2k6BqD4Og6+7ktXUCX5EFwFyA48yBIJkUXTzCmi1yjG6YyWNQV9CTVMgEJfRC8AAjCILBYk1cmBu51C0gmVTVHN0+g7BvXSzzDPAh+cVJ0G1CyPWNiaHcZLBvZQsaJ1Rz7PEiUpBiEvBwEAq4Xa1IAYUsii3ntbWLrmyNA2CgMglvYiSzCmWeeieuvv0EAwq/++ya8cb99Wg+dqrwxKYmSIJSxq6mW9aYiQBgZn8CQiyYGI+xFSGkTQ49HJgbxQbB8KtuZW0qmLNWytyaGySyLd7loYjBrVGqU0MRQQGfQg+xqjlTLntVi0ABhsdNJcbZdb4RQg2vrn8nE0B3xoDomazFkc5LQSxIlNTgfs01z5d8VQFAmhnaXwbKpbEiAF0vk0OsRQIhrE0PAIxNDywDCoy9sdJ1B+PznP4+rrroaFvy48trr8LajDm90DTV1f1JMDJanAGHY5URJToBABoF5ELo9AAjGSdFTBoG1GCLeZFIkgzCZ0QAh7CIA0iuZ4zmaoQ9C0VMGwQuAYFig9VMZECDMVqypUChg85bNePbZZ9Hb04tX7PUKBAIBGSlSpiMjI3hm1TMYHhlBX18fDjnk4DKAKgDhZQahKRlZ9SFTrMlkUvQAIIzEE4iGwnCbQSCzxRO1lM/2mEEIMorBIwaBTooMc5wzg/Do8xuKDHN0k0E499xz8aMf/aeEX3zvB5fjpBOOa91inuFNdFIUE4OHDIKXAIEMAk0MXgGEhEQxeGhieIkDhLFMER10UnQjxthpzjAMQjKHgUhrqzlSgVPBEziS2hSlrhm19VNpLO4KSbGmavIlncngpz+9DhdffDEmJifEuYqMY3dXN/70p1tRRAHvOvFd2Lhpo3K2siz4AwE8/9xzCIdK+QD+GQACnSKlFoMHJgbSrfGMSpTkFYPgBUAwh6vtARDiuTza/hEBwiMECNEW5h4z5lTtucwNf8kll+A73/muAIRvfes7OOWUd7lHUTsEo2cmBi2AW2piMBEWVczTjDE3JgavAAIlPAECPDQxjMUT6PQwioEmBn+hiE7DIOjUyG6YUziF2wMgDEYqKOM5RPIkkgl88hOfxNp1a9Hf348dd9gRZ/+/s9E/0C9hjhsn01jEGGMq94pT6NMrngZ9k5555hlhCSqvHXfcERs3bEQuz7OeukKhED72sY/js2edCb+l4uUFkPwTRDGQIYl5CRCyOalX4CVAaA+xmqM7R1Un82oAwkvaxJDMYl60FQzCc+uLjJec07TMYDskQPjBD36ACy64UKIYLrvsWzj1lHd7wiBsDxMDyz0P9TZfi8EWljXGlKLU8vGkBeQKdFxKoMsjEwMBgs/yScKPRtdLNZay2jvKnBQlzDGKYItWy0zfYEwMDHO0AUKL23X21wkQAlooumXrtRMlJXMgQGCtAllHRmsbzy37/O/seO2Z/uWvfolPfupT9lrgCT8YDOJTn/wUPvrxT2AsV8TCrnBVgPDLX/8KZ5zxKURCEbz+Da9HX38/5g/Nx+OPP4Z77rnH/gC+74Mf/CBOO/00LFywEG0BlR3OsBU2QHiJmxgUg+BVuWcHgxDQ5cFr7IV69/VMW0miGFw2MVQDCLOZGFrRN9NvOil6YmJQVJtKtdwKE8PyVS8WiTSy2TSmpqaQTqeRSqUxPLwVmzZtRiqZFArRXM6NaSN4ETYUDm2IRqJo72hHZ2cnwuEwOjo68Nvf/haXXnqpMAgXfv1CnHrqKfCRVmWOb0sdkfm8TVHqE4UoQnNc1oqxqmYycWPmg/hKKs9cHvliEe3BgH2CMQq4Wj/sd89mc9PvN4JK3umzkCsUMTYxiX6GOYojWkGEo2SU1Fkl+d9cLod8Pi/jmkwmEZuKCcW6dXgrtm7ZinXr1uGFF17AmjVrhLqNRqNSK53jGQqFMX/+fOyx5yuww9IdsXDhIiwYmoeA3ydjKePooKyFttUVOySfZJMnRg5JIkuAYCEUUAVcSkc4fZKTeawuCoySqlQ91ZxHTSjStlhS5UFoFI3UkEbVvoFKWVY3U6+miwjUCxCqpXrT67CyHTPk4g2u2SYua0ZNRHUehEY8xW2qtI704QZwsY/bkjnMY4NclrIU6IamA8NlDCo3kh6YMgBRGtwVK1fiiMOPUCaFYkGBDr3ABgeH8PPf/zf23GmHsiAyM99Mwf7sc89hp2XL0BbUdeuLwG23347TTnuf3chFF10EhklLn1UxzPIYefl9ETmfhQ0jw1jUP4A5HndmhYXsJ73gRyYmMc+jMMeclHtOe2RiAGI6ikFqMcwwIk7Fa4tfle6j7mgLjue2RAKRFvkgOA8Z1T6de5Ah4lPJHPpDytfFlmA6so3ZTqupgWZAPN/DPAghT2oxGICQwVB07hlkrAU77lIc3bgB+UK2DAjMiPiqUILVJ0LbJB33U4FR6cn/qNB8lig+Oh91d3cLsIhG2xEOhxBoCyDgD8Dv8yvBQBuk34/29nZ0dHSivT0q90aN8gyH5B4KDCrFZDqNeCqFcMCPTDoDUqIMFYrHYojFYkimUuJO7mP4iT8g/+X7FXgoHeGVnbUop3Uqdb6fAo5KPpvJIpvj/3JIZ7NIxBPIZ3NIp1NyfzwWRyweQzabVYpaAANT7vIdReQLJA8rUt/OosTVwtXeNoJNOC4EWD60tQUwODiIgYFB9Pb0CFjj+NLpa+mOS/HKV74SO++8MwYYL84YZ3Ga0aCi8oirve35zVR6yYwyMQQDPgUQ9CfYB1GtAA0IMdMuo6kFu1NbGOFSreIYdcFYLIWuaBhtlRKqhsSSdvSuNiBjNmnvFAKqFgPQoas5OpuZ9gmVY+UIz3TmBTIrqXJK2efxNBClk6JmEKqBq1osi+lXLeHtVPX8HomaSOYxEPWLV7p8j5nf2Qapxt/5vaPbxpBOZ7Bly2bcdfff8K3LLpPDBg8Di3dYgosuvAhvOuyNGjyUXmTWhN4Ssp42b96C95x8Mp55ZpXcSBlx5513Yuedd1EKR3+vPc8W8MjyR3DjTTfh7C99EZtGx7BooB9OkV8JSKt2xSyCiiKeM40tDR+jk3HM62ovV4SzgVnngnO0N9NjnD+2F09l0BNWfFrV+5t4d62pl2JN8KMzwJzxtZPtzLY+K99vwHMlIB6NJ0VORSjHmlyPdT+mAcIkfXLCjsOjo2Hnfi07xFRs5JpnyZJ4lrTjsUwR4YAFPZx1f2ozN/KbWNqdIc2NjuU0OTd/8bLi8Ma1th3Qpu9kUSinoarKf5ambWXI4EYq7QpQUe1309rRkyEK2xb8Wj1WeSefL32vPstIJTL2Qx8/jDoWYVPetzLaUp/4RXlqyU1QoMZEn2Ic36AUklRO13HD1U5jFRvNCGjHoqtkNtThrfw71WerMTXjWIl35TvtPA+l+9T4WPD7CCbaBDh093Rjj933xB577C525O6eHvjb/GgLhBCORNA/MID2zk4EQgRt6hmCEsNUmC1txqWy5yQ0TJVTn3wTx95CQZ9MGdlUeUjlO6aSGUTDQQk9dCrEyiGxFbJe3bXwVbWVrE7Q6u2xPONsCogwFR+Bl27UCLUy+Wtr8wqBZt9Uulv9pP+/ea5oIZYHIj4FSmTMRBKJOldzVLbHVOeqrSrznWZzV6xqNd4+C5MZlXfBJ67cBbV29Hou7b3KHa/7p50E5a8O5EewbEAQ273t1lvx+bM+J+CY19JlS3HbbbdL+9OJCDVTdGJcuWolvnD22XjqyScVC6XbeN/73ofj3nk85s9fIAcDgobxsTGsfXENbrrpJvzyl78UwP2fV1+DPV/9WnR3dUk2zPqcnMyXq95PXx+Vo2NWuE8A81Qqic7Q9LDDautMkXozt6f2sPPpUntkLNK5LMI+f426Oc2+u1zqqjVkIZnPo+jzISybk+xQ5Xqu7E9p9ZWUf7WRKG+PxkrZ65ksgpQtDjCitkrlO2rtbqeEcLZR/rzZKznLQjxbQGfAUafH3KpFglrZs2cirMqCGrJWCDqOp4VgQDGUlfdXYzbLR6n+f8noFIoYzRYF/BCdqOyKFeNYXVhMa8h64Ilni9FiEslUBpl0WtHY4ZBsRDFnMG5zJjDggBw5xs7q03E+lxcHI564b7n5Flzw9Qvkb6e97zQceOCBeP655/HEk0/gkUcewdjYmDqZF4G8wylJJqcGEJhpyEy6ycp7mnmX+QbzrkoTBVkAtfeVsFUmIKWAOYRkJESh+nzwWz6EgkEsXLQIO+ywg5gIaHcdGBxAf/8Aenq60dXZJZSrX5gTn7AavMhWOEFXIpnE1uERrFy5Ci+uWY2nnnwCDz/8sJiHhN3I5ao6f6ktV6bqnFyJvSHEy8AKoAB6qLcZRIRAOKwYCX9A2InXvva1eP3rX4+9994bixYuQldPt7yDAlEOxo6TnzAFNSBtNVEyEUuhsz0s73E+VvmK2cVQfRtsXKda7tSJtSrFjEN+aCVW/b1OMV8utkse/vz9tlQR3QFAfBC0LnBC8vrEU3194+tHkllJDGNAaNmYOgZRfnT80RZo2hph4zXu11wOyx99FFdddRUeeughjG3dghydY/RNXPvPPfesRB9UU9s0G/zgBz/EZd+8FAWyacUiOjoiSKfSYopTC5J7iR+koJRi4HivNk3Cwl/uuQfhrm4M9HZLKFkja6LGkpw2sJWqe3Qqgb6O6Ixr05YbzvGsb8qcZBvy/5tPZjKRRXc4qM4hNa5G+1LrfuY8yRcttNOcOFPhuTo2Y7XPnTaW8RTCoSAigZJ/k9zTyETWMa4Gp0kmxVQOfQ4TQ71jV0czatnq/SK+Yrki2BTXphfXSDKP/rCau+pj6JRmM6ynR1a+WBzqDNiHAvt4LIcolddZToqNTpR9Qrfwu9/9Fp/85CflKy6+6GK8933vLTkZkb4uFgQgUAnyfzQDxGJTmIpNYXTbKMbHxgVsmJAqJ81vqPqiAAx98mM+bxSRz6vTGIUTla3UxtbmjUqwUMmWOE/yhkXwB/xi7hCTRCAgipL+Ae3tHYjQVh4Ki4KePzQPbQIKlDmF1L8oCoefxbQpMcDYieyqgWX9O/qK/Om223DvvfeCfQ8F2/ChD30IixYtEsGayWQwOTmJ4eERbNq0EfF4HJlMVsws20ZG8OKLL2LlypXi52D8IWjuMD4hWjLL0V5Nvfow9bM52Tj/q7Q/ARHHiGuGP9Nk1NdL81GXxLh3dnWKN3p7ewS77LILXv2qf8GixYvR0dmpgKjDTWIqlkRHe6RcIDpO9rbwdQzmTNtvtiU8nimADEdHsJQ9bubzijljqA+w3+8QAtO+x/ggsJpcuoAOP2sxlERo2f0zfLAoW33zbHZR42MxnsyhWyeGsYGLZnT4/aKgLQupRBKPP/44/v73/xFfpHgigVQqialYXH4eHR3Dls2bkctkkcurg4Dt3MK1rsGBz+fHxz/+EXz+/32+qgS68867cNbnzhJfJ7PfyGJdd921uPvuu/HZsz6rzIXkcoxkN/5JmhGMRMJixjjupHdh08g2LOjvl1OouaSfs018gxKbr+Opb3Qigf6u6LRqjs65MTtnLt/A94mTYiKLrkib69Uj2V4sl0UBfrRTYcue1Gvdzu3fGkVXqruSQiQcRCjgExg4l/GStVxlTu1dRhMDfY5ocnMrrbpu35hRyVaIDwIP3K0ZupqrlluElVsla2qDa7vydmv5yheL8zpKdpg5vq/sceMc95tf/waf/syZsscvuvginHLqqQrZmFk00soJasxxo+yYo5+pNcAVgiBDO1qhKMqTlLhtG9foztZz1TSNsydOpe2UPLo9AVKWBcZ1P/3UCkSjEbHzB3Recfv1dfpulDVdsZpGx0Zx3XXX4fLLrxCBrS6aPoAFCxbilptvFh+EaZcBbJoVMn0v5AviH0HAEU/EFXBYtRKPP/o4JiYnkc1kkMnlBPjQd4O/mxgfF+dVoxJpY1PmF6Mo+bMSLPaU6B+MnBem2kAPS/mh0AFzaGhIWIlFi3ZAR2eHsCv0NRFgZimAZ/xYDItB0EEnTmZiCwVDyo9EQG1pM9qAzwnEKtbLVCYngrCDTnPOeTZSvpbkqRjsMifCKhvKLPvJVBZRmnKaSF1dj6OiYbty+QJi8Sms3zSMTComfjIElWTrOI8bNq7HqlWrcN+992Pb6Db5O5kxe34cpkaniU26ptcnQbBxZuYQ9/UP4KrrrsdrXvkKRYlXjDXffdBBB2HtWpo3lb/B4Ycfjssv/6FEQhCorlu/Ht+49BJs3rwZ8XhCcn7wPV1dXQI4X/Oa1+ADH/iA+C5RgW4cHsH8/v5pTopuyGNS/tsmYhjo6pizEK5H5tKpjk6KkkmxngfmcI8CCBkULb/URjAiSNqdY/Ef52fZTFWRTopJREIhhOnf1MI2qg6DDosdT+TRF3avdD1RDlkYjl+CUQw061YDCC0GsOwzoxgGWGOpDhPJTEvFemjlmuJQR5sr6TQNQLjhhhtw9tmfF8F+8UUX4T2nnFLDjjaHVV3lUSqzBx9ejsPe9EZ3N7EFpJIpvOXot2DNmhdFMR166KG4+uor1cmohQvggAMPwLq16wTsFLQSJl/C0z+F9xlnfBqfO+us1gykBhUU4FQYqXRa6N2Az6eAAx0/0ymJfmG/V7+wGo8++igeWb4ckxOT4vfBEyZPpvJ92iHSNss4vtJpFlI/q6VtOIpq9kinw6v52TiyUsk4wQLHRsCFNpnxv2L2IePh92PZsp2w7wEHYp9X/Qt22XkZopGw+AT4/MrrX6xHRELaWVY+vXJeRalWmMWc91dIx8lUGpFgAG1OIFltrdg2f60a9H/kVs6NsGc0K+Xx4otrhOr/y1/+imefe1aU6tRUDLl8FoW83CxzYZqpFtUjYK/C78cZbWSYOAK01+6zD05617sEzH34Ix9BIZ8Xxu7OO/+GUE8/5vdEa8qWjRs34o1veiN6enpAGbFs2TJlUjOHAz1exmwpAERHPsl86nsJlqhAN20bwYK+/qrVPytP9c6paIZlEIAwOYWBzs6SbKmhuSu601RtA554mSipO6wSRNUILGnq3ZXCgu+OZTNiYpTMhmbZuaS4OT6jOoqBAMHg8bmyCDWFoBbJ46k8esggNBBx0ZBgtSgB1eAZgMBUy5XXbAxgQ23qwSNAGGQeBMP+1Fows7zcemDlC8X57XQEa/gzZn3AAISrrrwK5371a3L/JZdcjJPf/R6hjd1GwjfefBM+9rGPShbHt77lLTP7Uszam9o33H///fi3D/ybREaYCAj2/ZprrsZhhx3WMoBAAXnCCSfgoYcfwr+8+tV4xzuOx8677IzHH30Ul112mSgJ0rKf/tSn59Cb6Y+a0ypNFNQbNJ8oZ0wtMYx3udKOcg+jPqgsaL6gyYMMxdj4GDZt2iQnwmQiCfpRTEyOY83qNXjiiSewYcMGUXZkNYxrTbn/S+N1gw3AcJ6Gqw6OCA3lYMpNTGdMv9+HYCiEoaH5osTCkbAKNw1FEAoF1UlXR+OInwlDTcX5M4jBwQH09fYiEGhTa8KE9AqwK4oyH5+agq9AU2edHAcAACAASURBVFhOomHSmbSwOZkswVdWfs+fGRWTzeYkGoYhsTzlDw8Py3qjsud4cdw4znZIsnYyLvVV7TYldCm41Ia3/RG0+YuOgPvuuy/22GMPzJs3T5idJUuWyM+MHCI7RhMR+6ucVX0CQk5814kyh7w+/OEP45wvfglbJhOY3x2dkS4m6AwE/OLT0uzF9Ukjx8aRESwc6EdbNWE4m7BpUP4JQJiKYaDDMAhOGGAbcCqHv/TvBtsjQEik0uiiU6TRoLUGrMF3V76Gj8ezWRSYSTFQUqCzDWHT8+cACDQxsB039JH9fbrey2Qyj27NICg5oedQGK9myXlnVjAVSMyrjEHQYaAG4DfbUvXxLuVBGGR+IxHRZkE0PoPWAyueLw65DBAu/+HluOSSS0Xof+OSS3DSSe/2BCDQ1+Guu+/CTst2wm2334ZgoFUpd5z7vIj/+I//EAVNX4SFCxdITnleX/va1/Cv//av1Q1iTe6mbD4reel33mUXBAJBPPfc83j3SSeKZzedS2+//XbssGSHJt9eY8lpxJ1KpbBixQrMGxwQR0vjvmrnV1C6p+Tlrk86lU6uyhNeOzBq+pr30JbNvBAED/SfWLt+HWKxODZu2CBZ9TZv3iRK1ISdCjOhAQiVI5WsKNdMRkJYaTenP0sup0NMq0lC8zvJh8CPYgin8vo1It/p1DlbEJbxbVFizrzDxI5M36BO4DItgsVhkqoVTeTUFU4xYPxm6PBKB1jS8BHWtQgFBYjRt2fHpTvilFNOwZ577im+K3SQJQgio+JkS+xcJNpU4PRJ4lifeNKJePSRR2UkSfv/+le/hr+tDZsnk1jYHWkZQK6pD3UtBgKEBZIHwf2LgGQsFkO/AQiGf1ewq4xcasVJWEq7px0AweUuKh8EH5gHwbUTtu6DYRBYi4EAgZfrAEGqOebRE2b/6PhqdraJdmtcmUo4ji1PVD9MhIIBCEG3HRBk8IAtsSwIENQ4atDSBOgRgEAGoRWLeJr81SfMb33rW/jud78nf7700m/gXSee5DpAoBI5/IjD8dxzz8kpiYpz1113dUVYjU+M48f/+WO85S1vwYUXXoh777tX2qTvxev2fZ0rbXIsU5ksDjv8cKxft1ZCkU488V0Sh97qyzAIf/zjLTjj05/GQP8A/va3v4mPRdk2cpxczCGuqdOOfimpcZ7YfWzHQW+qcEC17o0iU86q6iTNn3lCN46vPGEbpea8T5wz88oMks1msFmSVK3HylWr8MhDD+GZVSslxwVt+AV6zevLKN/KMFnnuBMgGNO780A7PbSWzrOa0jcCs0b4rQmz5Yvpk8FTN/vV1d6BXXbbDTvtvDP23HMP7LrrbsJgkA0gA8Dsg/SPufXWW3Hllf+F1WtWgxFHfM/r9309mBHRjKfDkaTqutUkkf23m2+5BR//+MdkrJkU7aYbb8JOO+0kVplNU0ks6oy0ejlOe5+kWtYMwoKBAbTNcIJ2hpQ1YlqoDEVje6NkEDo7JDOlXEZBVAjievxFKjtV2Z7Kg5BGNyPMNL52rqtm+1IrQZcTIDShKhuecyZK2m4AoWzxG86x4S4oeq6CveJS4Hb+hwUI//P0c64DhEu/cSl+8MMfCqr+5qXfxIknnlhKnNPEPNT7yMc/8XGJlebp6/zzzsfpp5/umrKm4P/973+PMz97ptDrS3fcUbEWba1nLdj/rVu34rjjj8eG9RslIx4d+X73u99h9912r3d4GrrvpptvEv8GhrXttPNO+Mtf/oL169Zjy9YteN0+r5sutG1lWmczFPL/a78+//wLxBTx9Qu+LlkwyQz84fe/Ex+H9evXSXu876Mf+SiOPfZYBRKMD70GpLOd8mt9EU9oBHY8Zctep12f9D7ZCQKFXA7JVFJC8BgNkoglJNJmYmJCmA8TDZJjBs+8ypYpgTU69FfpfaVNaIrg+7g+GB1jIlzEZ1/C+lSeCgIk1jmgiaOzo1MxAdGI/I2hsOJHIXbN6mL87r/dja9+9atYvXp11URobJf2//3327/OiSrd9sLq1TjqqCOFseF7WJSNWQ85/l4CBH6ROCnWwSBICojSNNRt5pRZc/h+sL2xSQUQSk51tancRtVOGai0EyWl0RUOKUCiaXLTl0aUuBM/VXtOTAxkECw/OptIq97wQqowMSjvqrnQ/LN/AU1EU0nNIMx+++x3VIIDAYvM/cF8NdsBIGgfhDkzCH9/6lnXAQKLNV1xBas5Apd985t45/HHe+KkeMWPrsDFF18iFtdjjzkW3/v+91pK9ztXzfC2YRz91qOlJC1XBM0Lp592+uwLq8k7Vj3zDI459ljJYkelQx3xjne8Q/JNtEfam3xr9ceotE466SQ89OBDykz0jW/gyCOPxFve8lbJoHfNNdfgkIMPmVObBFhfO+88XHX1VZJF8ytfPhc3/PwXYtLI06NaK042Qi92hs3++wf+fU5tmocpEFlu+OkVq7DX3nuJCcWQFGUCVFMCjQh7+goce9yxAiTo6c/EJWQCeNGGT2fWL33pS5g3OM+OsinrlKEhmugpv/PDH/4Q/vznP5c9zZN+MBQUMwOv8752Hk477bSGWuB8fee73xHzGn9mbpPrf3q9/Q62vXEyJbUYGlFeDX2E4+ZGAAIfa4bCNumD2TfbB8HJIDT78TWec7bH/sVSGcmDIAyCw/e5mb7M9Kl8N30QGMXQ4RFAKDEIKk7GEoTk3sppOUCoNYdeMwhCCVnYaqIYRFiZyomNeztYf3+KDIJyZmj1ZZwUmU/9x//5EzlVfPuyy/COd77TEwbh6muuFkVNgfzGQ98oiqzqmmvc961sqHi6POqoo6R+Ai/aYW/4+Q0ItanUz25cPH1+53vfl0JYRYlDV6GW+++/P6776XVl1e7m2v5jjz2G4084Xuh4OuLx33Q0ZJ95Smb+hXO+cE7TzVD508fgrUe/VXwPeKkTm8rixhFkKONJJ54kXu977rGnnKpbMbZcGxs3bsIxxxyD0Ykp5SPzruNVX2SvGXNGffNom1b0YwSMBx98kPKdcNQVUa9XbMF73/teYbhaffH99MO595575dUcr5132llA2Be+8AVVFMkCfn7Dz7HfG/ZrqHm++/rrr8eXv/xlAQgECgTh5jIAYUF3uCll3NDHNMogtMAbnwrbmBharaCr9V0BBMUgSHsmt5YbcttjgMA9M6qLNdEHQWVOrW+/NbpOzP1eAwSWew75fHDdB0Fqq/skzJFRDGqtzAEg3PfEc8UF7Y3nbK5nYgxAoF3+Jz+5Uh6hjZwnXRV+4e5FJf3FL37RPuEwf0BVpTKHTUZB+eCDD4qzF5Vlb18vbvzDjViwYIFQr7QVkw5242LUGu3Jv7jhBlx11ZXSPinpm2++BcuWLm1Zk0xmw4JbvE4++WTxs/jTH/+Ej37so/I7KrhzzjlH8hA0ez28/GFhKWjLZi6ExYuX4BV7743dd98Dhx58oGSc5Im71Rfnj6dnUZa+IG6++SbsufuupbWpqcKacWUVH2QobGf2QUYbbNm8BfRVoSmCXv80S/zwhz+URFUEWldcfkWruybv+81vf4uzzvqsDRD22msvvPukd+PL535ZABATWTEsslFTmEpElhffHvo4vOlNb1LZV/XFLbVpKoX5Xf+3AEKrVA8VDAFCvzYxuDJ5jpdKoiRnFIOLDXrNIEwHCC52Tr+a8zeZyqG3rFhTq9stqhTjrMWQy0vaavcBgmKXyCCUAYQmHBQ5GpYXAOGCCy7Af115laDC73z722I7tov3tHpOHO+7/S9/wYc+9EEBCAQldJZs1j4902f++te/xufO/pzcwhAwVlukUxgTCjEU7q9/+asUo2rlRS/9yakYQuEwCvksTjj+BKxZs1qa4Pfs89p9WtbckUcdKc6evL7whXNwxBGH4+qrr8E1115tj+duu++GG//7Rukvr4YEsQXcf9/9OPW9p8pc0XxxwdcvRFswiE7tJd4KtqByQKjkaH8niCT9f9q/fRBnf/ZMqf9Quoi+66Pm2GdDCzvBr7AKkpK7hIqZIIisFn9FYMQMo25cZEho4rv66qsFsKqrZLdg3//93/+95b45FIqbYtsDIExPlOTGuKo8CDpR0hwOGPV8m5g0UBQTgzAI9Tw0h3tsHwRdrMntgxz3x7ZYAlGmcdeJkubw+XU8WkTesjCRzKGXqcfreKK5W1SVXynW5BVA0K4bZQChMWlc1lXrvsefFQahzHu5udGY9pRhEL7+9a9rgAD8x/e+j7cf/VYXJ6X0GSyhTB8ExuNTENJ23fLLglSc+8AH/l2Vd65yUfnxVNyqi4rtfaedhqeeelo8x5kNb3R0myhXeq23mkF45/HvlNS7fD9P8QydY5IkniDNRQW+fPlydHepWgyNXmvXrcXb3/Z2ifXnu/r6+iW51oknHu/aWuFpnpEn6zesx8DgPPzy97/HACtghkKNfn5j9/9v3P6Xvvgl/OyGn4mZ4Wtf/ZrUKHHrIkhgzZMPfvCDGB8ft5vhfrjrrruanrOZvnd7MAibRphJ0ZswRzJFw1MxDHrIIEyl0uhhxVq3Acl2MjGEQ2GpxeC6yUZHvXjBIJQAQgFhn+U+g2ADhBwG2wPwiUpq6LhWCRCeKc7v0NTtHG3xlQLDAITzzjsP11x7rZzEvv/Dy3H0kUe4JQvL3pvK5iSiPaxz67vVKClj+ln8941/QCIRF1szFSnpXAplKqFWMxdHvPkIvLD6Rd2lUrUu0tXf/va3hcloVQbH++6/T06ZTGpTDW13dnbhm9+8FEcccUTTbXKt3HzLzeIJT/qdJ1AmGWIq3TM/82lXzAsbN23E0W97G6YmJ3HUUW/Bpd/5tgjfSHDuddRnWmu3/PEWfObMz0ioIaMTGBHS093j1vKU9zK5EiM/aMoxF00CV155FQ466MCWr8/tBhBmCXNs1SATIIxoE4Md5tiql1d5D00MBAgmzNHFpoQF89JJUUwMiQTCQQ8Agg77YN7ZlwHC7KvIuu9x9wHCV8/9Kn56/fWirK/4zx/jyMPeOPuXzfmOIpLZAphdv72NyW/cvbjIJ+MxrFm9GtG2ELr7ejEwMKBqQLiA+G/985/x5a98BdtGRyXMbeGChTj22GNwxqfOkEQ3rbyYGvkXv/glrrz6KkyMq8qbY6PKA56nfdrv6SPQimvd+nX47GfPwqOPPiL5B6KRKG6+5Sbs2OLkT/zW1WvW4NhjjpGQxYMPPgS7v2IvxKamsOsuu+KA/ffDLjvvVGZXb0X/tjA89bjjpAgScxice+5X8b73vteVNWK+d3JqEqeeeipWPL1CGAuagZixkaDsgAMOwHXXXteKrpW9gwBvYyyFBR76IHjJIBgTQ3+XIw9Cy0dRvdCYGKbSGXSHPDQxeBTmaHwQyH5GmI3UBXlZmhrloUqAQBMDq5u6dzlNDN4yCFviOcxjsSYZyzkwCPc+9kxxKOpOwQrDIDAO+6fX/0xy1P3ov36CNx1ysFIu7s2MDEoiV0SuaKEjaLm86JTtmXwFS1fP6+mzfdrcogM5tltHWKlxM7q7OiUxDh0U6RTpxsUlFmN65EQCyWQcbz7iCCn4wxMwUz9XLZ/WwIdQcTG/ALNBkvo/4YQT8cyzz8rJ9le/+gVe/S+vbknUgvOTaFo45u3HSAiiyn5XWpHhUAgXXXShRDe0cp2ef8H5uPaaa0VR9w3Nw59u+SP6urtdAwgEc4xkeODBB6QNgoN3vuOd+MUvfyFDwQyKNDO0GsS+lAEC9zrJVqZappOi2wyCSQT1kmcQaGLwAiBI1IuFKQ+cFP/hTQz3PLrKPYCgpQ5p45/d8HMpwPOTq6/CIQfuL44b/jnEeNejexL5IrJFC51tzcU919OGE+lkUcTo+ASGSBcbreIiGqYHAItEtUdUARc3LwqpdDYnznzxqUns94bXywmUSZNu/eOtc2vagiipD334Qzj4oIOFoWBoHpmL7u4eiSwYmjdvbm1UeZpRBTT/jI6O2uXODUggXPjXf30/zvniOXMGP6Zppjg+7PDDJJEWr3PO/xree9K7pZpjqxW0WZe3/ulWfOKTn7B7397RIXUxclkm7wVOO+10fPlLX2r52LI/G+NpLOh032bOj8/7gM0j2zCP1Rxd3HNyHtOk4MhUHAOd7Z4cPrjXlZOiO3VzyhaAw8Qg5Z49GE8xMRgfhBabuqctbq98EHQqB273eK6AsN/nfhpw3eaWeB7z2v0qwnEOeta655GVxSGXwxy/8pWv4Oc//4XUdb/yumtx0H5ULso3vJWns8qFEGca3YKFTi8YBMl2VsTI+DiGenvtojit9j0wfZRTRYEFXJLoCIeVKcPFizIilSNAsJCOJ7Dv6/aRUzAL+zAefq79/PNtt+Hjn/hYmaLkafcTn/gUPvrRD7uiQFlb4u3HvB1rX1yrqyaUo7pvXPoNOW23Snn/4Q9/kGJaXPVLly7Dz2+8GZ1Bhj65ZACzgIsuvAhXXqVCjJ0X53HHHZfiup9ei/nzWmMecr5fMQhpLOjScfsurk2+mj4Bm7dtw7y+frhJGhuAIAzCZAxemRgoW2Iemxi8SpTkrYlBLUTJK5HMoifsTgi6amX7mRi2xnMYjPrhUyFUTWta6+5HVhbnu2xiIED4xS9+JZ955fXX44B99xEF6pJYtEVRwgCEtrmqr9mlG/vGdEUj45OY36ujJUxo2+yPN3SHOcEwD0IilUJnxP1Yc7aZJIPgsyThx9mf+xz++w9/wJmf+Yw4v83lIhPB0twnHH881q5fK6/qaO/ARZd8A4cddjiCbcxAOJcWaj/LPBKMsmFRL6lQqeH2ye95D778xS+1NIfFLbco50Qqz/eddjo+8rmz0d3mHkAggPv+D76P7/2HqoMiRbRZtdFn4TOf/gxOPfUUGWc3LkmUNOUxQBjdhqHefrhjZCuNktcmBrbMao5MlOSVk2JCZ1JkuWd3jx6KkbHLPXthYtA+CFPJHHqa9EGgzKpFrPhMSWfeoJKnCoMQ2m5RDE3ucEZl37V8hXsAwTYxfFWc3DheP7nmGhy0/+uF+nB74aXyBWRoYgi4DBA05UiAsG18CkM9naouoEvUnAAE+jwUIdUKuyJhd2lATVslsjlx2iNASKdSWLlyFfbea6+WRRiQ+mbEBJ2V9n7lK1Hw+dARiSpTlAbkTS712o9xHLM5PPrYo7jzb/cgn83iDa/fV0wdrXb2ZB6Ca6+7FiMjo3jf6achMjAPnX4LbW6xP5YyQV151VWSxyIYiWDP3XbDMce8vZSXw6U1ygHfGMtgQac7heAqJ5QMwpbRMczr7fUEIHDYRmJxDHS4b2KwT7zpDLpCLz0TAxUBUy1HQjoPgkuHAXvN+JjuXEUx9DSSKIkgLRaTQnXK909tnukF2CypqLvX3ntLvh/x38oVEPH5EHBb6WlZPRzPYYCWgbmYGBRAeKo4ZJeFbK34LYU5no+f/ewGGagf/OhHOPyNh6g0tk0TH/V9ZzJfQLYAdLZ5gIINgzAxgaEelQvAcplBYN9YPKgrGnENjKiOqEVOgOD3WwhZ7ji1OmeV63oyEUd7JIoAT731TXnzdzGMLJOTNK/tobaWmRWmfZDuCE8V49k8OvwWgo4MhM13YPYnxxNJ9HTo8ssuAgOD5TxnELaNYajPG4DgqZOili2xtHcMgldhjiY1OVMt82AQJWPh6tosRTFM6kRJs+8cJQNpkmQ6/Wh7FEtnyVR7+59vx34H7I9oNCq1EZgoKWL50GbYhboabfImn8qkSIDgqywL2sAr165fB+vOh590HSBceOFFuPa6n8qnffPb/7+9K3uS6rrP3+2efV+YYSSwJEAuWyggK0IQJBDIgJYgO5IlVHqxn5w/IclDxEP8EidRVR6SvMZ+TCmKUGJHErsYBgbQZoGkaCmVkYCZYeuZnplepreb+n7nnNu379xebk/fVsqVWwUMcO/Zz+985/tt/4j9Tz8p4CtsKlABBBophn/AOCqGeBxjA/1K6xM2QMgTIKTR3x0+gyAAIZcTl8pmAYSFFKOrdYZ3w/ZslvksTcFs9LWGrcVWGpO5TAEMQdIMgMD5m0tlMNjdJnsvXCGs8NX0whLGmmSDQLfD67djGB0aEsYpzP79v4ohwClT5VWjIo+lkuhsUwAh3McFEAJ6MRw+clhAzMaNGzEyOiLh073swcjIiGRnPT1+GqnUkrhK33PveiSyBXRGLVSK2yhh2t15Qngx0+YDkhNG0tszQ2RxffuSjw5AaNWBkoKPaAE2fnvsBKyTBAhM6hDCbV7paVT2v1/9moGSbPztL/8Ozz7746YYKaZyeWRsoK813BuvAby0C79NLwYyCDKJOrxu8Pmp+gUXSSYPpJe0iqHqFyt7gfVRL8lkTR1NZBAYB4EUfOgMAoA4AQLXS3vUYbhWNmrlvyZAmM0U0EuAQKEY4q2JRfNXLJnDEKOmhqj+Mj1WoZa1F0NYg+gq1wCEETIIVrhuzRTkHE9xc+zpCf2ioy4fykixr7099Po4rIvZjMrmyFTkIc6f0SbMihdDO7qi4dbHmROAZ+tcDAGMFGmntGv3Lmc0Xvv31zA6utqxU5qensLu3bsxNKzC6k9PTePq1Wvo6u3FQqaADquAFp/U7Gbrt0RbsGH93WhraVPpvO0Cfv/7y+L2TWMGY3tm2HfWQYBAN/e1a9YUQ7kTLCeZi8HEQfDOoJEI5cCYLZ5Wvx2fgHXi/Uv2mMn61OCFYFQMr7zyCv71V7+WTcW8DM//5Dnl5tjg+rzFCYPAhDR01Qm5riKDMI/VA32qvpABAlUM6fQSertCdiUzKoYmMwjzyRS6O8kghDx5uvg4FwsZhLawaU7DINiKQeCVVy4I4QBKI1huJ5VeUgRMiIBElr5mEO7sDTlstZ478WKIxTA6OCSpz8Oy/5G+NTkOAuukkaIkazLZHEPeElQxFCLhp3uWHWcBc4mUBghhMwjqJkyuMGgkxfHT43hsVzGt/ev/cUjiwTDTLB+6am/evFkS9glAmJ7BqfEJjN11D7ruvButVkSdebLdVRInldqaCRhtxK5dxXdWr8K6u9bIOzdjMUy+9wHW378JBfmSgtA9PjZa7Dy+uPgRnt67Cx2tCljwFaViqMAg0DihbAInAgTgzXdOwzrx3kWHQXCuMUYxtMJFaOw8manun/75X0Ro/OIXf4MDLzyvB2eFFVT5XLwYmgkQGH6VXgwD4XoxCLqk77cGCD1NAAgcaqoYEImIsU3YBwz7t5BMoavJAIH7i26xeh+HdrPngTa3RPsYW+klQzywDUCIJfMY7tbsSIj1fasAgSoGUe+FJ1sMQGA2x6EmBEpiT5alew6ve1JyIpdFgQxCyF4MZm0KQOhoR1cz7HHqAQgWRG2wc5cK8seHGW737dknGVH5jI+PY9PmTQ5AmJm5jiPH38F3H9qCofUbQKJQLjuutWmYe8qD6c+v4vJnl7CqrwMDwwP46so02gdW4cFHt5aIB3NfYuyPlgJw+q2TaC9kcd/6u7Dx/u8LSLiRpJujNlL0WytVAALBy6u/eQvWiXcv2mPdrWpDmV3VKICgIBIOHXoDL7980ElM8+KBF1bgmVn7zkgUCmA+IRopOgK/9s8DvWkYhJvxIoMQlorB2J3kmsggKKGh3Bw7m6ZiaD6DQF0fGQRtoBzKQcO1wjmML5UyCIEWXICXzS2NKobhJjMIDJQk6jaDGgK0O8ir3waD8AcNEJrAIDiUOe1jmswg0OMsUCRFSwGAEgbBAxCognAzCDMzMzhydBz3bt2CwXXr0RIBsjcX8PGF82jRSIFMQjoH7Ni/B6S7I5kcLp07h9vx69jy+D60dfegtS2Kz3/3GeIzM4hK9iUGAATWfP8+rL37TmTTebRms/jqw/fw+K4dYFgVxkFY5agYfHaS2DSUo2bp5WHjzfGzsI5fuCiBkuQxyKYBlK5TlA2cP3cOP//5n0sVjIlw4MABx4XB28aGEUyMEZArIK9DLTtd0kYffheMSt3mgeH1vjGEjxOXoADE5hcw0t+rhKLHxaTapca3fq+Ln7ls0j0vRxuEJQiDEESa6rmu2F/XpdYI90QuL+lLifKdb30Kqbj2amwnxzuuGQS6Bvlp0ViUrJfAnfdvxHxGJb3qoYqhxnYGfc1ZQ/RiyFD9ZaPV8eMsllbN89EkaaulnQIQbGA2lceQYRD8Gu5doLUUXmYAmNj0eiKD0R5Fe7qLWkGxZYeb4yFuji4vBm3XVVq52whMl+YrJ8tsVpkXCasOzC4kMNDb7YRartivKrK1LOPhcqF2VAwNHEADhEUk6DZyTy3mcshbEfRyrzdMKC+fPqMNNwCB6Z6dfR10c9X4PoeP87eYzqHfJw6CaZNXtJBB2O1iEA69/oZERu3RDALdHzdv2oQhrWIgg3D02Cms37oF/evWo53RaKdncfnih3jqqcflspVIJvCfb5/EjmefkeOXUUA/OXUOM7evYtv+/Wjv6JReff7+J7h+5WvAZsstFBDBvQ/8AGvXr5Hvonngy7OTeHzndlhR4BbViWQQynVG2TyqX3ri2R7T50K+gLfOTMJ649Sk3e+r5K12nJWfDXNjYe2Rgo0rly/jZ0xIAwt/8Vd/iR/9+M/ksC1YCqmE8bCrDLPMI6RNFJLKYNIIDYfpKbPZlrfKBNFxCXHzo5Sh6lpMJtFD1xYUxEjR+3j/xSucln3hEmjFpqq8AbYVwVImg8422sbW4TysF0nZ8dcVqjGzQCNMjkKLNFKNp5pr9adb71tcaqp0jctqmmo1nBZoZNrBzIoFzpsaGbl9i6FRcaTMj7XKTUYRdHaC64elAg2kCmhFHhFhSVQPK61RMZ90mLfymgJVp55MrftL5hl0quAKOV7MyukMlCfZV+l6cfVYxscf9nLjM8z5YtaWsOMq1LM+6crOSGkgmFrH1hTH+SHg6m+PSs6O4iowQNu0tVH730Iml0dbqztBTfnlZvZ/ZbLUr9eWRBPleneXkAAADVpJREFU3mOa9TbGJRC5oozfZOlW6FK1+pYD4WJ9TLDVSqNBZzxr2k6VXyqpsLhr04U87GgLOkRhXoBtF1O7Vyow2DpRa5DDlSnYYIAhnlHGkl+VVYdcqyDQlNzU8ixvoUPlQy55zPll2mHbBXG1vnD+vNgciFywbfzbq69ix2M70dOrgo2dP3MWD/3xQxgeWSV9mJqaxluHT+Deh7dj8N7viuorOXUDX340ib1P7BZgmUkm8fbRU3jk+ZfEJKC1AHz6zju4EbuGLfufRVtnt9hLRPJqXEpwpjpy5B87UMClU8exY+d2scCcL0TRGyGM4LqU37XMVltfjbwaYfU/pRK7kLdx8tx5WEcvfGQz65OsA92AYJNcef2x/bHYLHY/RutPGwcPHsSLL74oFKt3H8mmbVDlPKwYvYrhnR2CxMhn3WQHJLj+7tcbaafrFuR2M3HetxUqnVtMYKinW6xLq4vg8geKMzYuetY9NJwr1pdOZ9Db2Va/pKg03roRWlOkVQwRxSC45881kOayUe64CtLQeGoJXR3torczzTTlujeK+b+S8amlIvf5SspxiasF6GlVgso8jRVRqlSe0fEMwK3XVmKtu9xQsSFHKBmEJRuDvMbUsceCskJcMzdpSU1DKU84eLOfHOlUy1xVeYd78satOawaHhDAxf3vCHq/E6AWWeMeeNcC5D8ziul8Mo3+HhXF1C27ygGEkn779KfkO12fwX0E5+lMFj3trQ037jZ7ytlHIjtzyFkR9OkbfQOmqGIRs8m0pKjviBLKhveYKeWhm0jn0d+hvSaMrDPj7j0jbODMxAR2P7bDadxrr7+OPXv2ok8bKU6cPo1NZBAGlZGi2CAcO4UNWx/G0Lp1omJITc3h8sXzePLpJ8CaU8kEDr15FDuef1bOxLYC8D+nzmMm9g227P8ROjsEouH2NzeQnJtVx7mtj3bbduBThD+lEnjkkYflHL+ZyGBVj0pb71zO3DLbK6C9MiFv49jJcVhHzn8oRop1yIyaZzGztITt2x9BNpvDywdfxksvHpBWOzEcnB7UZ33sByq42WikmEdELMXNSBlBJ1V6NrbggDLS2P3PDkBwbWIemDSIvBVfwOrBXgG+Dk3s6p8RitWEfsl8eCbH+MZSD5VMpdHfFTxZU9X5djEXPCB5YNJIkcmamHSEfdM5h6RLXqtxxSoUe6nqq7z1S8ZEVAxpdHd1OIY9JSDB1QH50WcuKy5Q/b6sQT0/RsXA8Mclbak6WDVvBWezsnwaKXYbI0XnLmWuCcVKy66VKnoIZ050UbdSeazqiMq+E/DqKdgcqN7euMe95p7awEwii7GeVrUPfOqquawaXuQavRGbw+jQgGOk6O6Puwnufrtlh9/ed2bB0wcaDc4tqsBT1Q60svXpdevuXrn6lBdDFr3tejxrGJN6XjF7KZnLIh+JohmhltnOWW2kyGyO5gnDE8Wx39IAYZAuzRUedY4qFvHsmQns2LEDEepcLBopHkI78+Bow8rEwgL27t2LgcEBSTh3feYGjp94Bxu2bnMAQnpqDt9cmsRTTz0pTFQiYQDCc6CrLhmEz05dwMzsZWx78hm0dHaKa+QX5z5EbOprFeND1o1irBg6vbe7H5sf2IzhoQG0tEQdI0WqGHz3slnLrlvWMnBqA9dv3oJ19NyHwiDItPgh5npWmcecIZfLYdeux8G89H998CBeOvBCsVQTDCIEy2MBCLRBcAdKch/W7mtotRO70jjoPkiO+PgCRvt7i0KRk+F3Ba3l0Fk2H8XGixeDzsXQ11VnoKQa+yw8TMRSAAEKIJhPl60bQVn8zdvp6r7+ArzMOGsB3N3dKeFJK1qle8epxn55gSVv9BEaKYYZD1WjeAEItEGIumwQTOf9jF2C7kOfvRxLFTDUWWUetIeMI6SNXKhlvZqPNMaZTqhQy4aBck1t0N7I++5Lj/tQFrMtMgi3ZzE6PNi49Mt+60iQlXKTiy0kMdTb1bj6fACDoSGVzjyLfgIEt9yqaySrnIjisaTcHJsCEMQ+Rrk5CkCocf8G7rree5xCNZ55DFQBCBx/ggOq6Y4dPYZ8LocfPPggxsZWIx6PCxBwP319fRKi/djR4xJ5kRlw1/zRAxhad494MaSn53Dl4iSefPopofiTyQRef/MIdv3kOXFlbaMNwvi7aMU8biXz6B9bi+89uBFLi2lkM0uauS0OEBmHzz74CH/6wx1oiWqwQxdJGiRrGwTnDuTew+XG2Fx6CzZ+c/I0rKOTH9ijIYVaLsoLGz/96c9w6dKn+OU//D2e3rcn8NwG/8BGMmcjJ+meVa+DyLgg9ambsiWL7vb8PEb7+ugNKLpXy6TybfCiJxImY8FF2KtpqCBtdr8rTfMsHu9YUQAn8jlEbQ0QytxCVbkeS7A69EbKN1rZc5jIeA2fP0+B8YwtAIFxM7zjUe/Y+n0nIkXcHOnFYKtASe62NFKn4WrA7XQew53KzbHSU45hCDIGrGJ6MYs7elvV7tB1rnQOZSl5lpdRVxIgrB4eLGGzfNWBQTrifVcfMgTnVCcO9C3PxdDQm6+uj2xhKqPSPYvxc8iPhFqOaoDQYNnl13RJ98xQy010c1xM+Rspettnup/L5/DN118jmUxi7I4x/wy2eoF/cukTbN22DZcufYJkSyv6xtbK4Z6NxTF75Qvse+IJuf2nUkn815tHsGnnTuQiQLQAfHPxY/xw58OYiy/i/MefYsOmTchr6oN2e+ahLQSNGr/43Ud4Zs9uxR7o52aqFCAEXS4SKOnMOVhHzr4fOkCg8FtcTOLq1BTuWHs3+jvDTLFphsJGMm8jbysVw0oFU8mB6irMbSktACHuBggKeZZcfYLOVJn3KfgoNBoBEGppkgEIETsiKF/orRAFhxsgyIXex/q8lnbX9o4CeAyURG7EuMXW9m3wt+QmLAChgJ4o0OYFJCEdAKJioBdDSOWX7BHqYI2KIcR1wjo5lkrFEMNIE+IgsE6yhbMLixjo6ynaIIQYoZK3y6RO1lSRTSu3HMuiCp35zfNdqABBz5eRH5y/WZ2LgbKlrv4F2YaaAaoVILiLzuazOHHsBObicyU1iuGqjhxMZuDRRx/FnWvWSCC7w0ePYzaRRUuEHlJRPPInWzE2plKsk4G48O77+Orryw5u33DXd7B9+zYRehOTk7h2ZQpWySWLG4q8Lt+I4L77vie2D8b4muMnAEFyMXh3pVG3Vz4R2a7fTExqgCA2CEpINvIg9UNi80s59LVXikgdZKYrvWsjRQYBEQln634IxtyHWy3Wxw7s8IADp9wILXHp5qgAgtK7hhMZTxaWyeaYTqNvhQxCOet3Eb6u9UQGgSoGQfnVaP8VTqMcoPQIYbImXVaYa5NVzGeVFwEBQjXddL3dMzdaFShJ52Lwxp8P4UBlkWQQhjrowqnoH69uvJGCWRiERBZ39CgGgUmwGgvTl+/p67EYVg8N+dpX1Dtf5b4zAGGwtwgQGl1HycGkIyky3fOK5snvYx+Gzw0QGg3O/VgdwyA0CyCIiqHOdM/lEz3rE9Rw+q4JTGbzaI1G0BK1tEeWkmayK1yqj+W7RAsDR62k33BkhPZfc9Sz6v+pYljVqc7ZIHJTqXl1qOWJs7AOn3nXHu1qg2WJM4UHqTR+yc9lcugXt7ywH3+AEAQM+LXQ73uZEgbBsDWD0B9+qGVfgBDCoBp6mH8mCkWAEEJVJcNtGITuLmZz9CQxCWnpECAYL4YwqjCqHMpo7jaqNMhuSRwEj1BZ0SHg03iuF8ZBGOwguFOz577BqUO8cb12AAJVDHR3ltuVEaDLDTFXWrOke56NYTVDLTewHxUBwuIihnoUQAj7MZEUVwwQamyohFqOqkiKjQYIfk1gsqaO9uapGEwchEDpntlwI/gCzjkBAlWJTHZHhFfKCBRHhMbd5f5P3irjTmTOJdMsAoTRTnO1Cn5RZR6I/544B+vwxAV75FsACO6xrnHNBnzNpWLQGg0ztsust1d4GxbRZykbhFh8HiNNBAiiYuis00gxwIh+awBBkjUFQ8EBulXyajwrKVEcm5V6yyn3nRsgkPmbMwBBhEb44YFjDJTUFXWMBt3GbgYINqrPLG+KDAIDLwhA0CVLpc5fGubXLAAhNofVQwNNObCFQfgDBwj5aBS9TaD8RcWQTKK9vQPdTbBBYH2U1Yl0DjUDBAv48ssvce3aNYfKHx4elsyOol7wMexRkXMUonAYBPH5JYvQqJ1WWo4BCgQII5pBCF6T8tp4+/QZWG9PXHAYBPFArcOgLEgDyCCIiiFUnTJbRIBAS38L3RoglEP6KzVkcgMEsUEIGyC4DJeaCRCSBW4rHQchyKTX8a7DIHR2QadGqKOUYJ+IDYLF6Ibh8CPlAEKbBgjVjAeD9Ua97aYwDUAQPBuSgDJtrAQQVFIq/ZRNGBOstzywb8zGMDKgczEE+7z2tzXTw/piiwkM9yw3Uqy9sBrf1AfaYnoJzWQQBCC4o6bW2Nygr/2fBwh6zo+fPI77N97vdG9ychL79u1DT7cKlFTpYRRapnVX5kbhyBenfncuhrr2uTh24u3jx/C/qx4H+4HObyEAAAAASUVORK5CYII=;" parent="1" vertex="1">
                    <mxGeometry x="40" y="30" width="520" height="234" as="geometry"/>
                </mxCell>
                <mxCell id="3" value="" style="edgeStyle=none;orthogonalLoop=1;jettySize=auto;html=1;" parent="1" edge="1">
                    <mxGeometry width="80" relative="1" as="geometry">
                        <mxPoint x="50" y="439.5" as="sourcePoint"/>
                        <mxPoint x="330" y="439.5" as="targetPoint"/>
                        <Array as="points"/>
                    </mxGeometry>
                </mxCell>
                <mxCell id="4" value="" style="edgeStyle=none;orthogonalLoop=1;jettySize=auto;html=1;startArrow=none;" parent="1" source="5" edge="1">
                    <mxGeometry width="80" relative="1" as="geometry">
                        <mxPoint x="160" y="320" as="sourcePoint"/>
                        <mxPoint x="160" y="580" as="targetPoint"/>
                        <Array as="points"/>
                    </mxGeometry>
                </mxCell>
                <mxCell id="6" value="" style="edgeStyle=none;orthogonalLoop=1;jettySize=auto;html=1;endArrow=none;" parent="1" target="5" edge="1">
                    <mxGeometry width="80" relative="1" as="geometry">
                        <mxPoint x="160" y="320" as="sourcePoint"/>
                        <mxPoint x="160" y="580" as="targetPoint"/>
                        <Array as="points">
                            <mxPoint x="160" y="520"/>
                        </Array>
                    </mxGeometry>
                </mxCell>
                <mxCell id="7" value="180" style="text;strokeColor=none;align=center;fillColor=none;html=1;verticalAlign=middle;whiteSpace=wrap;rounded=0;" parent="1" vertex="1">
                    <mxGeometry x="110" y="480" width="60" height="30" as="geometry"/>
                </mxCell>
                <mxCell id="8" value="270" style="text;strokeColor=none;align=center;fillColor=none;html=1;verticalAlign=middle;whiteSpace=wrap;rounded=0;" parent="1" vertex="1">
                    <mxGeometry x="200" y="440" width="60" height="30" as="geometry"/>
                </mxCell>
                <mxCell id="10" value="0" style="text;strokeColor=none;align=center;fillColor=none;html=1;verticalAlign=middle;whiteSpace=wrap;rounded=0;" parent="1" vertex="1">
                    <mxGeometry x="120" y="370" width="60" height="30" as="geometry"/>
                </mxCell>
                <mxCell id="11" value="90" style="text;strokeColor=none;align=center;fillColor=none;html=1;verticalAlign=middle;whiteSpace=wrap;rounded=0;" parent="1" vertex="1">
                    <mxGeometry x="70" y="410" width="60" height="30" as="geometry"/>
                </mxCell>
                <mxCell id="13" value="x" style="text;strokeColor=none;align=center;fillColor=none;html=1;verticalAlign=middle;whiteSpace=wrap;rounded=0;" parent="1" vertex="1">
                    <mxGeometry x="300" y="440" width="60" height="30" as="geometry"/>
                </mxCell>
                <mxCell id="14" value="y" style="text;strokeColor=none;align=center;fillColor=none;html=1;verticalAlign=middle;whiteSpace=wrap;rounded=0;" parent="1" vertex="1">
                    <mxGeometry x="150" y="550" width="60" height="30" as="geometry"/>
                </mxCell>
                <mxCell id="15" value="N" style="text;strokeColor=none;align=center;fillColor=none;html=1;verticalAlign=middle;whiteSpace=wrap;rounded=0;" parent="1" vertex="1">
                    <mxGeometry x="130" y="290" width="60" height="30" as="geometry"/>
                </mxCell>
                <mxCell id="16" value="S" style="text;strokeColor=none;align=center;fillColor=none;html=1;verticalAlign=middle;whiteSpace=wrap;rounded=0;" parent="1" vertex="1">
                    <mxGeometry x="130" y="580" width="60" height="30" as="geometry"/>
                </mxCell>
                <mxCell id="17" value="E" style="text;strokeColor=none;align=center;fillColor=none;html=1;verticalAlign=middle;whiteSpace=wrap;rounded=0;" parent="1" vertex="1">
                    <mxGeometry x="310" y="425" width="60" height="30" as="geometry"/>
                </mxCell>
                <mxCell id="18" value="W" style="text;strokeColor=none;align=center;fillColor=none;html=1;verticalAlign=middle;whiteSpace=wrap;rounded=0;" parent="1" vertex="1">
                    <mxGeometry x="10" y="425" width="60" height="30" as="geometry"/>
                </mxCell>
            </root>
        </mxGraphModel>
    </diagram>
</mxfile>